Aikya-Semibold_b005.ufo
<glyph name="exclam" format="1">
  <advance width="306"/>
  <unicode hex="0021"/>
  <outline>
    <contour>
      <point x="120" y="178" type="line"/>
      <point x="184" y="178" type="line"/>
      <point x="206" y="550" type="line"/>
      <point x="94" y="550" type="line"/>
    </contour>
    <contour>
      <point x="92" y="51" type="curve" smooth="yes"/>
      <point x="92" y="17"/>
      <point x="118" y="-7"/>
      <point x="154" y="-7" type="curve" smooth="yes"/>
      <point x="188" y="-7"/>
      <point x="216" y="16"/>
      <point x="216" y="50" type="curve" smooth="yes"/>
      <point x="216" y="83"/>
      <point x="192" y="109"/>
      <point x="154" y="109" type="curve" smooth="yes"/>
      <point x="118" y="109"/>
      <point x="92" y="85"/>
    </contour>
  </outline>
</glyph>
<glyph name="quotedbl" format="1">
  <advance width="440"/>
  <unicode hex="0022"/>
  <outline>
    <contour>
      <point x="276" y="354" type="line"/>
      <point x="336" y="354" type="line"/>
      <point x="353" y="597" type="line"/>
      <point x="259" y="597" type="line"/>
    </contour>
    <contour>
      <point x="102" y="354" type="line"/>
      <point x="163" y="354" type="line"/>
      <point x="180" y="597" type="line"/>
      <point x="86" y="597" type="line"/>
    </contour>
  </outline>
</glyph>
<glyph name="numbersign" format="1">
  <advance width="551"/>
  <unicode hex="0023"/>
  <outline>
    <contour>
      <point x="119" y="0" type="line"/>
      <point x="197" y="0" type="line"/>
      <point x="210" y="128" type="line"/>
      <point x="321" y="128" type="line"/>
      <point x="310" y="0" type="line"/>
      <point x="386" y="0" type="line"/>
      <point x="399" y="128" type="line"/>
      <point x="493" y="128" type="line"/>
      <point x="493" y="184" type="line"/>
      <point x="406" y="184" type="line"/>
      <point x="418" y="319" type="line"/>
      <point x="509" y="319" type="line"/>
      <point x="509" y="374" type="line"/>
      <point x="425" y="374" type="line"/>
      <point x="437" y="496" type="line"/>
      <point x="360" y="496" type="line"/>
      <point x="348" y="374" type="line"/>
      <point x="238" y="374" type="line"/>
      <point x="249" y="496" type="line"/>
      <point x="172" y="496" type="line"/>
      <point x="160" y="374" type="line"/>
      <point x="68" y="374" type="line"/>
      <point x="68" y="319" type="line"/>
      <point x="154" y="319" type="line"/>
      <point x="140" y="184" type="line"/>
      <point x="56" y="184" type="line"/>
      <point x="56" y="128" type="line"/>
      <point x="133" y="128" type="line"/>
    </contour>
    <contour>
      <point x="217" y="184" type="line"/>
      <point x="230" y="319" type="line"/>
      <point x="341" y="319" type="line"/>
      <point x="326" y="184" type="line"/>
    </contour>
  </outline>
</glyph>
<glyph name="dollar" format="1">
  <advance width="496"/>
  <unicode hex="0024"/>
  <outline>
    <contour>
      <point x="438" y="149" type="curve" smooth="yes"/>
      <point x="438" y="233"/>
      <point x="374" y="272"/>
      <point x="289" y="318" type="curve"/>
      <point x="231" y="350"/>
      <point x="170" y="379"/>
      <point x="170" y="438" type="curve" smooth="yes"/>
      <point x="170" y="485"/>
      <point x="208" y="512"/>
      <point x="259" y="512" type="curve" smooth="yes"/>
      <point x="291" y="513"/>
      <point x="312" y="504"/>
      <point x="326" y="492" type="curve"/>
      <point x="343" y="409" type="line"/>
      <point x="401" y="409" type="line"/>
      <point x="406" y="529" type="line"/>
      <point x="387" y="536"/>
      <point x="339" y="552"/>
      <point x="282" y="556" type="curve"/>
      <point x="282" y="637" type="line"/>
      <point x="221" y="637" type="line"/>
      <point x="221" y="555" type="line"/>
      <point x="130" y="543"/>
      <point x="71" y="487"/>
      <point x="71" y="416" type="curve" smooth="yes"/>
      <point x="71" y="325"/>
      <point x="127" y="284"/>
      <point x="205" y="245" type="curve" smooth="yes"/>
      <point x="279" y="207"/>
      <point x="334" y="176"/>
      <point x="334" y="122" type="curve" smooth="yes"/>
      <point x="334" y="69"/>
      <point x="305" y="38"/>
      <point x="239" y="38" type="curve" smooth="yes"/>
      <point x="197" y="38"/>
      <point x="168" y="49"/>
      <point x="151" y="65" type="curve"/>
      <point x="134" y="154" type="line"/>
      <point x="73" y="154" type="line"/>
      <point x="67" y="24" type="line"/>
      <point x="88" y="17"/>
      <point x="147" y="-3"/>
      <point x="215" y="-7" type="curve"/>
      <point x="214" y="-93" type="line"/>
      <point x="275" y="-93" type="line"/>
      <point x="276" y="-6" type="line"/>
      <point x="389" y="5"/>
      <point x="438" y="73"/>
    </contour>
  </outline>
</glyph>
<glyph name="percent" format="1">
  <advance width="781"/>
  <unicode hex="0025"/>
  <outline>
    <contour>
      <point x="173" y="234" type="curve" smooth="yes"/>
      <point x="254" y="234"/>
      <point x="324" y="291"/>
      <point x="324" y="393" type="curve" smooth="yes"/>
      <point x="324" y="480"/>
      <point x="285" y="550"/>
      <point x="186" y="550" type="curve" smooth="yes"/>
      <point x="104" y="550"/>
      <point x="35" y="491"/>
      <point x="35" y="389" type="curve" smooth="yes"/>
      <point x="35" y="305"/>
      <point x="85" y="234"/>
    </contour>
    <contour>
      <point x="179" y="280" type="curve" smooth="yes"/>
      <point x="138" y="280"/>
      <point x="121" y="337"/>
      <point x="121" y="392" type="curve" smooth="yes"/>
      <point x="121" y="458"/>
      <point x="139" y="504"/>
      <point x="182" y="504" type="curve" smooth="yes"/>
      <point x="223" y="504"/>
      <point x="238" y="450"/>
      <point x="238" y="390" type="curve" smooth="yes"/>
      <point x="238" y="325"/>
      <point x="222" y="280"/>
    </contour>
    <contour>
      <point x="236" y="0" type="line"/>
      <point x="305" y="0" type="line"/>
      <point x="542" y="556" type="line"/>
      <point x="473" y="556" type="line"/>
    </contour>
    <contour>
      <point x="456" y="166" type="curve" smooth="yes"/>
      <point x="456" y="82"/>
      <point x="505" y="11"/>
      <point x="593" y="11" type="curve" smooth="yes"/>
      <point x="673" y="11"/>
      <point x="744" y="68"/>
      <point x="744" y="170" type="curve" smooth="yes"/>
      <point x="744" y="257"/>
      <point x="705" y="327"/>
      <point x="606" y="327" type="curve" smooth="yes"/>
      <point x="524" y="327"/>
      <point x="456" y="268"/>
    </contour>
    <contour>
      <point x="541" y="170" type="curve" smooth="yes"/>
      <point x="541" y="235"/>
      <point x="559" y="281"/>
      <point x="601" y="281" type="curve" smooth="yes"/>
      <point x="643" y="281"/>
      <point x="658" y="227"/>
      <point x="658" y="167" type="curve" smooth="yes"/>
      <point x="658" y="102"/>
      <point x="641" y="57"/>
      <point x="598" y="57" type="curve" smooth="yes"/>
      <point x="557" y="57"/>
      <point x="541" y="115"/>
    </contour>
  </outline>
</glyph>
<glyph name="ampersand" format="1">
  <advance width="564"/>
  <unicode hex="0026"/>
  <outline>
    <contour>
      <point x="374" y="257" type="line"/>
      <point x="432" y="247" type="line"/>
      <point x="434" y="207"/>
      <point x="429" y="162"/>
      <point x="406" y="124" type="curve"/>
      <point x="392" y="139" type="line" smooth="yes"/>
      <point x="356" y="173"/>
      <point x="292" y="245"/>
      <point x="258" y="288" type="curve"/>
      <point x="332" y="331"/>
      <point x="382" y="369"/>
      <point x="382" y="452" type="curve" smooth="yes"/>
      <point x="382" y="503"/>
      <point x="339" y="557"/>
      <point x="242" y="557" type="curve" smooth="yes"/>
      <point x="152" y="557"/>
      <point x="84" y="498"/>
      <point x="84" y="423" type="curve" smooth="yes"/>
      <point x="84" y="365"/>
      <point x="114" y="311"/>
      <point x="146" y="271" type="curve"/>
      <point x="95" y="245"/>
      <point x="36" y="203"/>
      <point x="36" y="135" type="curve" smooth="yes"/>
      <point x="36" y="41"/>
      <point x="115" y="-7"/>
      <point x="241" y="-7" type="curve" smooth="yes"/>
      <point x="287" y="-7"/>
      <point x="337" y="2"/>
      <point x="374" y="30" type="curve"/>
      <point x="407" y="4"/>
      <point x="432" y="-5"/>
      <point x="471" y="-5" type="curve" smooth="yes"/>
      <point x="484" y="-5"/>
      <point x="522" y="-2"/>
      <point x="534" y="6" type="curve"/>
      <point x="534" y="47" type="line"/>
      <point x="497" y="49"/>
      <point x="469" y="66"/>
      <point x="442" y="90" type="curve"/>
      <point x="473" y="124"/>
      <point x="499" y="180"/>
      <point x="498" y="247" type="curve"/>
      <point x="553" y="257" type="line"/>
      <point x="553" y="305" type="line"/>
      <point x="374" y="305" type="line"/>
    </contour>
    <contour>
      <point x="251" y="41" type="curve" smooth="yes"/>
      <point x="171" y="41"/>
      <point x="129" y="88"/>
      <point x="129" y="149" type="curve" smooth="yes"/>
      <point x="129" y="187"/>
      <point x="149" y="213"/>
      <point x="173" y="236" type="curve"/>
      <point x="218" y="182"/>
      <point x="282" y="107"/>
      <point x="333" y="63" type="curve"/>
      <point x="310" y="48"/>
      <point x="280" y="41"/>
    </contour>
    <contour>
      <point x="179" y="438" type="curve" smooth="yes"/>
      <point x="179" y="488"/>
      <point x="206" y="519"/>
      <point x="241" y="519" type="curve" smooth="yes"/>
      <point x="289" y="519"/>
      <point x="297" y="475"/>
      <point x="297" y="451" type="curve" smooth="yes"/>
      <point x="297" y="398"/>
      <point x="281" y="361"/>
      <point x="232" y="319" type="curve"/>
      <point x="210" y="345"/>
      <point x="179" y="386"/>
    </contour>
  </outline>
</glyph>
<glyph name="quotesingle" format="1">
  <advance width="266"/>
  <unicode hex="0027"/>
  <outline>
    <contour>
      <point x="102" y="354" type="line"/>
      <point x="163" y="354" type="line"/>
      <point x="180" y="597" type="line"/>
      <point x="86" y="597" type="line"/>
    </contour>
  </outline>
</glyph>
<glyph name="parenleft" format="1">
  <advance width="325"/>
  <unicode hex="0028"/>
  <outline>
    <contour>
      <point x="44" y="247" type="curve" smooth="yes"/>
      <point x="44" y="-12"/>
      <point x="202" y="-119"/>
      <point x="235" y="-139" type="curve"/>
      <point x="274" y="-111" type="line"/>
      <point x="237" y="-85"/>
      <point x="131" y="38"/>
      <point x="137" y="260" type="curve" smooth="yes"/>
      <point x="143" y="463"/>
      <point x="241" y="568"/>
      <point x="273" y="588" type="curve"/>
      <point x="235" y="616" type="line"/>
      <point x="195" y="594"/>
      <point x="44" y="471"/>
    </contour>
  </outline>
</glyph>
<glyph name="parenright" format="1">
  <advance width="325"/>
  <unicode hex="0029"/>
  <outline>
    <contour>
      <point x="281" y="231" type="curve" smooth="yes"/>
      <point x="281" y="490"/>
      <point x="123" y="597"/>
      <point x="89" y="617" type="curve"/>
      <point x="50" y="589" type="line"/>
      <point x="87" y="563"/>
      <point x="193" y="440"/>
      <point x="187" y="218" type="curve" smooth="yes"/>
      <point x="182" y="15"/>
      <point x="83" y="-90"/>
      <point x="52" y="-110" type="curve"/>
      <point x="89" y="-138" type="line"/>
      <point x="129" y="-116"/>
      <point x="281" y="7"/>
    </contour>
  </outline>
</glyph>
<glyph name="asterisk" format="1">
  <advance width="485"/>
  <unicode hex="002A"/>
  <outline>
    <contour>
      <point x="94" y="287" type="line"/>
      <point x="169" y="343" type="line"/>
      <point x="228" y="399" type="line"/>
      <point x="211" y="322" type="line"/>
      <point x="203" y="226" type="line"/>
      <point x="288" y="226" type="line"/>
      <point x="276" y="322" type="line"/>
      <point x="256" y="398" type="line"/>
      <point x="318" y="345" type="line"/>
      <point x="392" y="289" type="line"/>
      <point x="435" y="363" type="line"/>
      <point x="350" y="400" type="line"/>
      <point x="270" y="423" type="line"/>
      <point x="350" y="447" type="line"/>
      <point x="433" y="487" type="line"/>
      <point x="391" y="558" type="line"/>
      <point x="315" y="502" type="line"/>
      <point x="256" y="447" type="line"/>
      <point x="273" y="525" type="line"/>
      <point x="282" y="618" type="line"/>
      <point x="196" y="618" type="line"/>
      <point x="208" y="523" type="line"/>
      <point x="228" y="445" type="line"/>
      <point x="167" y="500" type="line"/>
      <point x="92" y="556" type="line"/>
      <point x="50" y="483" type="line"/>
      <point x="136" y="445" type="line"/>
      <point x="214" y="422" type="line"/>
      <point x="136" y="399" type="line"/>
      <point x="51" y="358" type="line"/>
    </contour>
  </outline>
</glyph>
<glyph name="plus" format="1">
  <advance width="490"/>
  <unicode hex="002B"/>
  <outline>
    <contour>
      <point x="76" y="188" type="line"/>
      <point x="147" y="188" type="line"/>
      <point x="213" y="190" type="line"/>
      <point x="210" y="132" type="line"/>
      <point x="210" y="45" type="line"/>
      <point x="279" y="45" type="line"/>
      <point x="279" y="132" type="line"/>
      <point x="276" y="190" type="line"/>
      <point x="332" y="188" type="line"/>
      <point x="414" y="188" type="line"/>
      <point x="414" y="255" type="line"/>
      <point x="332" y="255" type="line"/>
      <point x="276" y="250" type="line"/>
      <point x="279" y="309" type="line"/>
      <point x="279" y="392" type="line"/>
      <point x="210" y="392" type="line"/>
      <point x="210" y="309" type="line"/>
      <point x="213" y="250" type="line"/>
      <point x="147" y="255" type="line"/>
      <point x="76" y="255" type="line"/>
    </contour>
  </outline>
</glyph>
<glyph name="comma" format="1">
  <advance width="248"/>
  <unicode hex="002C"/>
  <outline>
    <contour>
      <point x="127" y="116" type="curve" smooth="yes"/>
      <point x="91" y="116"/>
      <point x="68" y="96"/>
      <point x="68" y="60" type="curve" smooth="yes"/>
      <point x="68" y="13"/>
      <point x="115" y="13"/>
      <point x="115" y="-37" type="curve" smooth="yes"/>
      <point x="115" y="-83"/>
      <point x="92" y="-113"/>
      <point x="70" y="-130" type="curve"/>
      <point x="70" y="-141" type="line"/>
      <point x="99" y="-163" type="line"/>
      <point x="101" y="-163" type="line"/>
      <point x="140" y="-143"/>
      <point x="192" y="-68"/>
      <point x="192" y="20" type="curve" smooth="yes"/>
      <point x="192" y="80"/>
      <point x="167" y="116"/>
    </contour>
  </outline>
</glyph>
<glyph name="hyphen" format="1">
  <advance width="471"/>
  <unicode hex="002D"/>
  <outline>
    <contour>
      <point x="83" y="189" type="line"/>
      <point x="387" y="189" type="line"/>
      <point x="387" y="257" type="line"/>
      <point x="83" y="257" type="line"/>
    </contour>
  </outline>
</glyph>
<glyph name="period" format="1">
  <advance width="224"/>
  <unicode hex="002E"/>
  <outline>
    <contour>
      <point x="50" y="51" type="curve" smooth="yes"/>
      <point x="50" y="17"/>
      <point x="76" y="-7"/>
      <point x="112" y="-7" type="curve" smooth="yes"/>
      <point x="146" y="-7"/>
      <point x="174" y="16"/>
      <point x="174" y="50" type="curve" smooth="yes"/>
      <point x="174" y="83"/>
      <point x="150" y="109"/>
      <point x="112" y="109" type="curve" smooth="yes"/>
      <point x="76" y="109"/>
      <point x="50" y="85"/>
    </contour>
  </outline>
</glyph>
<glyph name="slash" format="1">
  <advance width="319"/>
  <unicode hex="002F"/>
  <outline>
    <contour>
      <point x="25" y="-131" type="line"/>
      <point x="101" y="-131" type="line"/>
      <point x="294" y="579" type="line"/>
      <point x="218" y="579" type="line"/>
    </contour>
  </outline>
</glyph>
<glyph name="zero" format="1">
  <advance width="482"/>
  <unicode hex="0030"/>
  <outline>
    <contour>
      <point x="232" y="-8" type="curve" smooth="yes"/>
      <point x="347" y="-8"/>
      <point x="440" y="79"/>
      <point x="440" y="235" type="curve" smooth="yes"/>
      <point x="441" y="378"/>
      <point x="382" y="466"/>
      <point x="251" y="466" type="curve" smooth="yes"/>
      <point x="140" y="466"/>
      <point x="43" y="386"/>
      <point x="41" y="230" type="curve" smooth="yes"/>
      <point x="41" y="90"/>
      <point x="103" y="-8"/>
    </contour>
    <contour>
      <point x="242" y="37" type="curve" smooth="yes"/>
      <point x="175" y="37"/>
      <point x="150" y="112"/>
      <point x="150" y="237" type="curve" smooth="yes"/>
      <point x="150" y="358"/>
      <point x="177" y="422"/>
      <point x="242" y="422" type="curve" smooth="yes"/>
      <point x="309" y="422"/>
      <point x="332" y="356"/>
      <point x="332" y="228" type="curve" smooth="yes"/>
      <point x="332" y="103"/>
      <point x="307" y="37"/>
    </contour>
  </outline>
</glyph>
<glyph name="one" format="1">
  <advance width="334"/>
  <unicode hex="0031"/>
  <outline>
    <contour>
      <point x="41" y="0" type="line"/>
      <point x="319" y="0" type="line"/>
      <point x="319" y="44" type="line"/>
      <point x="237" y="53" type="line"/>
      <point x="237" y="460" type="line"/>
      <point x="178" y="468" type="line"/>
      <point x="178" y="468" type="line"/>
      <point x="143" y="438"/>
      <point x="81" y="406"/>
      <point x="26" y="395" type="curve"/>
      <point x="34" y="344" type="line"/>
      <point x="57" y="345"/>
      <point x="114" y="356"/>
      <point x="132" y="362" type="curve"/>
      <point x="132" y="53" type="line"/>
      <point x="41" y="44" type="line"/>
    </contour>
  </outline>
</glyph>
<glyph name="two" format="1">
  <advance width="445"/>
  <unicode hex="0032"/>
  <outline>
    <contour>
      <point x="41" y="0" type="line"/>
      <point x="401" y="0" type="line"/>
      <point x="421" y="123" type="line"/>
      <point x="374" y="132" type="line"/>
      <point x="347" y="75" type="line"/>
      <point x="134" y="57" type="line"/>
      <point x="262" y="131"/>
      <point x="374" y="231"/>
      <point x="374" y="333" type="curve" smooth="yes"/>
      <point x="374" y="403"/>
      <point x="324" y="467"/>
      <point x="211" y="467" type="curve" smooth="yes"/>
      <point x="131" y="467"/>
      <point x="58" y="418"/>
      <point x="31" y="384" type="curve"/>
      <point x="58" y="345" type="line"/>
      <point x="81" y="364"/>
      <point x="117" y="396"/>
      <point x="177" y="396" type="curve" smooth="yes"/>
      <point x="230" y="396"/>
      <point x="263" y="365"/>
      <point x="263" y="316" type="curve" smooth="yes"/>
      <point x="263" y="221"/>
      <point x="156" y="115"/>
      <point x="27" y="39" type="curve"/>
    </contour>
  </outline>
</glyph>
<glyph name="three" format="1">
  <advance width="416"/>
  <unicode hex="0033"/>
  <outline>
    <contour>
      <point x="36" y="-54" type="curve"/>
      <point x="36" y="-107" type="line"/>
      <point x="57" y="-113"/>
      <point x="94" y="-119"/>
      <point x="123" y="-119" type="curve" smooth="yes"/>
      <point x="286" y="-119"/>
      <point x="386" y="-38"/>
      <point x="386" y="70" type="curve" smooth="yes"/>
      <point x="385" y="148"/>
      <point x="317" y="200"/>
      <point x="216" y="191" type="curve"/>
      <point x="291" y="216"/>
      <point x="358" y="272"/>
      <point x="358" y="347" type="curve" smooth="yes"/>
      <point x="358" y="433"/>
      <point x="289" y="468"/>
      <point x="201" y="468" type="curve" smooth="yes"/>
      <point x="128" y="468"/>
      <point x="57" y="430"/>
      <point x="33" y="406" type="curve"/>
      <point x="58" y="363" type="line"/>
      <point x="83" y="382"/>
      <point x="122" y="401"/>
      <point x="170" y="401" type="curve" smooth="yes"/>
      <point x="211" y="401"/>
      <point x="250" y="384"/>
      <point x="249" y="330" type="curve" smooth="yes"/>
      <point x="249" y="286"/>
      <point x="216" y="243"/>
      <point x="158" y="217" type="curve" smooth="yes"/>
      <point x="140" y="211"/>
      <point x="120" y="203"/>
      <point x="99" y="200" type="curve"/>
      <point x="114" y="154" type="line"/>
      <point x="159" y="165" type="line"/>
      <point x="236" y="162"/>
      <point x="271" y="125"/>
      <point x="271" y="62" type="curve" smooth="yes"/>
      <point x="271" y="-7"/>
      <point x="208" y="-63"/>
      <point x="101" y="-63" type="curve" smooth="yes"/>
      <point x="79" y="-63"/>
      <point x="55" y="-60"/>
    </contour>
  </outline>
</glyph>
<glyph name="four" format="1">
  <advance width="486"/>
  <unicode hex="0034"/>
  <outline>
    <contour>
      <point x="45" y="0" type="line"/>
      <point x="289" y="0" type="line"/>
      <point x="289" y="-119" type="line"/>
      <point x="378" y="-119" type="line"/>
      <point x="378" y="0" type="line"/>
      <point x="469" y="0" type="line"/>
      <point x="469" y="75" type="line"/>
      <point x="378" y="69" type="line"/>
      <point x="378" y="204" type="line"/>
      <point x="295" y="198" type="line"/>
      <point x="289" y="64" type="line"/>
      <point x="113" y="54" type="line"/>
      <point x="145" y="101" type="line"/>
      <point x="339" y="462" type="line"/>
      <point x="260" y="504" type="line"/>
      <point x="235" y="504" type="line"/>
      <point x="183" y="383"/>
      <point x="80" y="151"/>
      <point x="20" y="39" type="curve"/>
    </contour>
  </outline>
</glyph>
<glyph name="five" format="1">
  <advance width="450"/>
  <unicode hex="0035"/>
  <outline>
    <contour>
      <point x="66" y="-68" type="curve"/>
      <point x="66" y="-114" type="line"/>
      <point x="83" y="-118"/>
      <point x="101" y="-119"/>
      <point x="118" y="-119" type="curve" smooth="yes"/>
      <point x="285" y="-119"/>
      <point x="404" y="-19"/>
      <point x="404" y="108" type="curve" smooth="yes"/>
      <point x="404" y="207"/>
      <point x="347" y="257"/>
      <point x="251" y="257" type="curve" smooth="yes"/>
      <point x="203" y="257"/>
      <point x="161" y="241"/>
      <point x="137" y="229" type="curve"/>
      <point x="166" y="381" type="line"/>
      <point x="365" y="381" type="line"/>
      <point x="381" y="474" type="line"/>
      <point x="332" y="474" type="line"/>
      <point x="324" y="460" type="line"/>
      <point x="98" y="460" type="line"/>
      <point x="63" y="189" type="line"/>
      <point x="88" y="172" type="line"/>
      <point x="114" y="184"/>
      <point x="155" y="194"/>
      <point x="187" y="194" type="curve" smooth="yes"/>
      <point x="250" y="194"/>
      <point x="292" y="170"/>
      <point x="292" y="91" type="curve" smooth="yes"/>
      <point x="292" y="-2"/>
      <point x="210" y="-70"/>
      <point x="109" y="-70" type="curve" smooth="yes"/>
      <point x="96" y="-70"/>
      <point x="79" y="-68"/>
    </contour>
  </outline>
</glyph>
<glyph name="six" format="1">
  <advance width="494"/>
  <unicode hex="0036"/>
  <outline>
    <contour>
      <point x="249" y="-8" type="curve" smooth="yes"/>
      <point x="377" y="-8"/>
      <point x="446" y="91"/>
      <point x="446" y="198" type="curve" smooth="yes"/>
      <point x="446" y="302"/>
      <point x="388" y="367"/>
      <point x="289" y="367" type="curve" smooth="yes"/>
      <point x="234" y="367"/>
      <point x="196" y="346"/>
      <point x="174" y="326" type="curve"/>
      <point x="202" y="423"/>
      <point x="272" y="509"/>
      <point x="383" y="543" type="curve"/>
      <point x="362" y="582" type="line"/>
      <point x="219" y="563"/>
      <point x="52" y="420"/>
      <point x="52" y="221" type="curve" smooth="yes"/>
      <point x="52" y="94"/>
      <point x="121" y="-8"/>
    </contour>
    <contour>
      <point x="256" y="312" type="curve" smooth="yes"/>
      <point x="305" y="312"/>
      <point x="341" y="275"/>
      <point x="341" y="177" type="curve" smooth="yes"/>
      <point x="341" y="107"/>
      <point x="314" y="37"/>
      <point x="254" y="37" type="curve" smooth="yes"/>
      <point x="181" y="37"/>
      <point x="158" y="123"/>
      <point x="160" y="231" type="curve"/>
      <point x="160" y="245"/>
      <point x="161" y="258"/>
      <point x="163" y="272" type="curve"/>
      <point x="177" y="289"/>
      <point x="211" y="312"/>
    </contour>
  </outline>
</glyph>
<glyph name="seven" format="1">
  <advance width="431"/>
  <unicode hex="0037"/>
  <outline>
    <contour>
      <point x="104" y="-102" type="curve"/>
      <point x="212" y="-132" type="line"/>
      <point x="412" y="435" type="line"/>
      <point x="394" y="460" type="line"/>
      <point x="44" y="460" type="line"/>
      <point x="26" y="301" type="line"/>
      <point x="87" y="290" type="line"/>
      <point x="124" y="392" type="line"/>
      <point x="319" y="395" type="line"/>
      <point x="260" y="251"/>
      <point x="182" y="58"/>
    </contour>
  </outline>
</glyph>
<glyph name="eight" format="1">
  <advance width="476"/>
  <unicode hex="0038"/>
  <outline>
    <contour>
      <point x="44" y="132" type="curve" smooth="yes"/>
      <point x="44" y="31"/>
      <point x="144" y="-8"/>
      <point x="236" y="-8" type="curve" smooth="yes"/>
      <point x="345" y="-8"/>
      <point x="436" y="49"/>
      <point x="436" y="141" type="curve" smooth="yes"/>
      <point x="436" y="220"/>
      <point x="376" y="265"/>
      <point x="311" y="301" type="curve"/>
      <point x="372" y="335"/>
      <point x="407" y="385"/>
      <point x="407" y="437" type="curve" smooth="yes"/>
      <point x="407" y="510"/>
      <point x="342" y="560"/>
      <point x="240" y="560" type="curve" smooth="yes"/>
      <point x="150" y="560"/>
      <point x="66" y="510"/>
      <point x="66" y="419" type="curve" smooth="yes"/>
      <point x="66" y="348"/>
      <point x="106" y="305"/>
      <point x="155" y="274" type="curve"/>
      <point x="80" y="241"/>
      <point x="44" y="188"/>
    </contour>
    <contour>
      <point x="333" y="122" type="curve" smooth="yes"/>
      <point x="333" y="70"/>
      <point x="289" y="37"/>
      <point x="240" y="37" type="curve" smooth="yes"/>
      <point x="170" y="37"/>
      <point x="132" y="84"/>
      <point x="132" y="150" type="curve" smooth="yes"/>
      <point x="132" y="194"/>
      <point x="157" y="230"/>
      <point x="191" y="253" type="curve"/>
      <point x="260" y="215"/>
      <point x="333" y="186"/>
    </contour>
    <contour>
      <point x="154" y="443" type="curve" smooth="yes"/>
      <point x="154" y="490"/>
      <point x="192" y="517"/>
      <point x="239" y="517" type="curve" smooth="yes"/>
      <point x="293" y="517"/>
      <point x="327" y="483"/>
      <point x="327" y="418" type="curve" smooth="yes"/>
      <point x="327" y="383"/>
      <point x="306" y="347"/>
      <point x="272" y="323" type="curve"/>
      <point x="210" y="356"/>
      <point x="154" y="388"/>
    </contour>
  </outline>
</glyph>
<glyph name="nine" format="1">
  <advance width="490"/>
  <unicode hex="0039"/>
  <outline>
    <contour>
      <point x="247" y="467" type="curve" smooth="yes"/>
      <point x="119" y="467"/>
      <point x="47" y="374"/>
      <point x="47" y="269" type="curve" smooth="yes"/>
      <point x="47" y="162"/>
      <point x="114" y="93"/>
      <point x="213" y="93" type="curve" smooth="yes"/>
      <point x="261" y="93"/>
      <point x="298" y="112"/>
      <point x="320" y="132" type="curve"/>
      <point x="295" y="34"/>
      <point x="234" y="-51"/>
      <point x="125" y="-85" type="curve"/>
      <point x="145" y="-124" type="line"/>
      <point x="289" y="-104"/>
      <point x="442" y="38"/>
      <point x="442" y="241" type="curve" smooth="yes"/>
      <point x="442" y="369"/>
      <point x="379" y="467"/>
    </contour>
    <contour>
      <point x="240" y="148" type="curve" smooth="yes"/>
      <point x="190" y="148"/>
      <point x="152" y="189"/>
      <point x="152" y="290" type="curve" smooth="yes"/>
      <point x="152" y="352"/>
      <point x="180" y="422"/>
      <point x="240" y="422" type="curve" smooth="yes"/>
      <point x="315" y="422"/>
      <point x="337" y="337"/>
      <point x="334" y="235" type="curve" smooth="yes"/>
      <point x="334" y="218"/>
      <point x="333" y="202"/>
      <point x="330" y="186" type="curve"/>
      <point x="317" y="169"/>
      <point x="283" y="148"/>
    </contour>
  </outline>
</glyph>
<glyph name="colon" format="1">
  <advance width="254"/>
  <unicode hex="003A"/>
  <outline>
    <contour>
      <point x="64" y="354" type="curve" smooth="yes"/>
      <point x="64" y="320"/>
      <point x="90" y="296"/>
      <point x="126" y="296" type="curve" smooth="yes"/>
      <point x="160" y="296"/>
      <point x="188" y="319"/>
      <point x="188" y="353" type="curve" smooth="yes"/>
      <point x="188" y="386"/>
      <point x="164" y="412"/>
      <point x="126" y="412" type="curve" smooth="yes"/>
      <point x="90" y="412"/>
      <point x="64" y="388"/>
    </contour>
    <contour>
      <point x="64" y="51" type="curve" smooth="yes"/>
      <point x="64" y="17"/>
      <point x="90" y="-7"/>
      <point x="126" y="-7" type="curve" smooth="yes"/>
      <point x="160" y="-7"/>
      <point x="188" y="16"/>
      <point x="188" y="50" type="curve" smooth="yes"/>
      <point x="188" y="83"/>
      <point x="164" y="109"/>
      <point x="126" y="109" type="curve" smooth="yes"/>
      <point x="90" y="109"/>
      <point x="64" y="85"/>
    </contour>
  </outline>
</glyph>
<glyph name="semicolon" format="1">
  <advance width="254"/>
  <unicode hex="003B"/>
  <outline>
    <contour>
      <point x="128" y="116" type="curve" smooth="yes"/>
      <point x="92" y="116"/>
      <point x="69" y="96"/>
      <point x="69" y="60" type="curve" smooth="yes"/>
      <point x="69" y="13"/>
      <point x="116" y="13"/>
      <point x="116" y="-37" type="curve" smooth="yes"/>
      <point x="116" y="-83"/>
      <point x="93" y="-113"/>
      <point x="71" y="-130" type="curve"/>
      <point x="71" y="-141" type="line"/>
      <point x="100" y="-163" type="line"/>
      <point x="102" y="-163" type="line"/>
      <point x="140" y="-143"/>
      <point x="193" y="-68"/>
      <point x="193" y="20" type="curve" smooth="yes"/>
      <point x="193" y="80"/>
      <point x="168" y="116"/>
    </contour>
    <contour>
      <point x="65" y="354" type="curve" smooth="yes"/>
      <point x="65" y="320"/>
      <point x="91" y="296"/>
      <point x="127" y="296" type="curve" smooth="yes"/>
      <point x="161" y="296"/>
      <point x="189" y="319"/>
      <point x="189" y="353" type="curve" smooth="yes"/>
      <point x="189" y="386"/>
      <point x="165" y="412"/>
      <point x="127" y="412" type="curve" smooth="yes"/>
      <point x="91" y="412"/>
      <point x="65" y="388"/>
    </contour>
  </outline>
</glyph>
<glyph name="less" format="1">
  <advance width="496"/>
  <unicode hex="003C"/>
  <outline>
    <contour>
      <point x="61" y="200" type="line"/>
      <point x="411" y="20" type="line"/>
      <point x="411" y="98" type="line"/>
      <point x="153" y="223" type="line"/>
      <point x="411" y="348" type="line"/>
      <point x="411" y="426" type="line"/>
      <point x="61" y="246" type="line"/>
    </contour>
  </outline>
</glyph>
<glyph name="equal" format="1">
  <advance width="484"/>
  <unicode hex="003D"/>
  <outline>
    <contour>
      <point x="74" y="90" type="line"/>
      <point x="411" y="90" type="line"/>
      <point x="411" y="156" type="line"/>
      <point x="74" y="156" type="line"/>
    </contour>
    <contour>
      <point x="74" y="290" type="line"/>
      <point x="411" y="290" type="line"/>
      <point x="411" y="355" type="line"/>
      <point x="74" y="355" type="line"/>
    </contour>
  </outline>
</glyph>
<glyph name="greater" format="1">
  <advance width="496"/>
  <unicode hex="003E"/>
  <outline>
    <contour>
      <point x="435" y="200" type="line"/>
      <point x="85" y="20" type="line"/>
      <point x="85" y="98" type="line"/>
      <point x="343" y="223" type="line"/>
      <point x="85" y="348" type="line"/>
      <point x="85" y="426" type="line"/>
      <point x="435" y="246" type="line"/>
    </contour>
  </outline>
</glyph>
<glyph name="question" format="1">
  <advance width="414"/>
  <unicode hex="003F"/>
  <outline>
    <contour>
      <point x="147" y="158" type="curve"/>
      <point x="209" y="169" type="line"/>
      <point x="203" y="193"/>
      <point x="199" y="214"/>
      <point x="199" y="223" type="curve" smooth="yes"/>
      <point x="199" y="281"/>
      <point x="370" y="275"/>
      <point x="370" y="384" type="curve" smooth="yes"/>
      <point x="370" y="445"/>
      <point x="318" y="552"/>
      <point x="195" y="552" type="curve" smooth="yes"/>
      <point x="154" y="552"/>
      <point x="104" y="540"/>
      <point x="71" y="526" type="curve"/>
      <point x="107" y="429" type="line"/>
      <point x="146" y="448"/>
      <point x="194" y="462"/>
      <point x="226" y="462" type="curve" smooth="yes"/>
      <point x="268" y="462"/>
      <point x="295" y="437"/>
      <point x="295" y="411" type="curve" smooth="yes"/>
      <point x="295" y="348"/>
      <point x="114" y="358"/>
      <point x="114" y="264" type="curve" smooth="yes"/>
      <point x="114" y="236"/>
      <point x="129" y="190"/>
    </contour>
    <contour>
      <point x="129" y="51" type="curve" smooth="yes"/>
      <point x="129" y="17"/>
      <point x="155" y="-7"/>
      <point x="190" y="-7" type="curve" smooth="yes"/>
      <point x="225" y="-7"/>
      <point x="252" y="16"/>
      <point x="252" y="50" type="curve" smooth="yes"/>
      <point x="252" y="83"/>
      <point x="228" y="109"/>
      <point x="190" y="109" type="curve" smooth="yes"/>
      <point x="155" y="109"/>
      <point x="129" y="85"/>
    </contour>
  </outline>
</glyph>
<glyph name="at" format="1">
  <advance width="800"/>
  <unicode hex="0040"/>
  <outline>
    <contour>
      <point x="61" y="127" type="curve" smooth="yes"/>
      <point x="61" y="-67"/>
      <point x="164" y="-187"/>
      <point x="343" y="-187" type="curve" smooth="yes"/>
      <point x="415" y="-187"/>
      <point x="484" y="-166"/>
      <point x="523" y="-134" type="curve"/>
      <point x="507" y="-97" type="line"/>
      <point x="479" y="-116"/>
      <point x="414" y="-131"/>
      <point x="359" y="-131" type="curve" smooth="yes"/>
      <point x="233" y="-131"/>
      <point x="128" y="-42"/>
      <point x="128" y="144" type="curve" smooth="yes"/>
      <point x="128" y="365"/>
      <point x="266" y="505"/>
      <point x="428" y="505" type="curve" smooth="yes"/>
      <point x="548" y="505"/>
      <point x="668" y="445"/>
      <point x="668" y="268" type="curve" smooth="yes"/>
      <point x="668" y="139"/>
      <point x="597" y="53"/>
      <point x="546" y="53" type="curve" smooth="yes"/>
      <point x="537" y="53"/>
      <point x="531" y="79"/>
      <point x="533" y="123" type="curve"/>
      <point x="539" y="195"/>
      <point x="562" y="310"/>
      <point x="573" y="364" type="curve"/>
      <point x="555" y="369"/>
      <point x="539" y="378"/>
      <point x="524" y="382" type="curve"/>
      <point x="514" y="384"/>
      <point x="504" y="373"/>
      <point x="501" y="364" type="curve"/>
      <point x="474" y="378"/>
      <point x="441" y="384"/>
      <point x="414" y="384" type="curve" smooth="yes"/>
      <point x="293" y="384"/>
      <point x="218" y="248"/>
      <point x="218" y="135" type="curve" smooth="yes"/>
      <point x="218" y="39"/>
      <point x="273" y="-18"/>
      <point x="323" y="-18" type="curve" smooth="yes"/>
      <point x="387" y="-18"/>
      <point x="440" y="70"/>
      <point x="472" y="157" type="curve"/>
      <point x="462" y="106"/>
      <point x="460" y="72"/>
      <point x="461" y="51" type="curve" smooth="yes"/>
      <point x="463" y="9"/>
      <point x="486" y="-13"/>
      <point x="512" y="-13" type="curve" smooth="yes"/>
      <point x="575" y="-13"/>
      <point x="729" y="89"/>
      <point x="729" y="290" type="curve" smooth="yes"/>
      <point x="729" y="468"/>
      <point x="619" y="561"/>
      <point x="460" y="561" type="curve" smooth="yes"/>
      <point x="251" y="561"/>
      <point x="61" y="381"/>
    </contour>
    <contour>
      <point x="300" y="159" type="curve" smooth="yes"/>
      <point x="300" y="244"/>
      <point x="333" y="329"/>
      <point x="396" y="329" type="curve" smooth="yes"/>
      <point x="416" y="329"/>
      <point x="463" y="312"/>
      <point x="477" y="298" type="curve"/>
      <point x="473" y="277"/>
      <point x="464" y="246"/>
      <point x="456" y="220" type="curve"/>
      <point x="429" y="141"/>
      <point x="378" y="62"/>
      <point x="345" y="62" type="curve" smooth="yes"/>
      <point x="312" y="62"/>
      <point x="300" y="123"/>
    </contour>
  </outline>
</glyph>
<glyph name="A" format="1">
  <advance width="518"/>
  <unicode hex="0041"/>
  <outline>
    <contour>
      <point x="-13" y="0" type="line"/>
      <point x="175" y="0" type="line"/>
      <point x="175" y="44" type="line"/>
      <point x="115" y="51" type="line"/>
      <point x="144" y="149" type="line"/>
      <point x="339" y="149" type="line"/>
      <point x="369" y="53" type="line"/>
      <point x="313" y="44" type="line"/>
      <point x="313" y="0" type="line"/>
      <point x="529" y="0" type="line"/>
      <point x="529" y="44" type="line"/>
      <point x="485" y="53" type="line"/>
      <point x="312" y="554" type="line"/>
      <point x="204" y="554" type="line"/>
      <point x="31" y="53" type="line"/>
      <point x="-14" y="44" type="line"/>
    </contour>
    <contour>
      <point x="226" y="430" type="line"/>
      <point x="239" y="487" type="line"/>
      <point x="253" y="431" type="line"/>
      <point x="324" y="201" type="line"/>
      <point x="159" y="201" type="line"/>
    </contour>
  </outline>
</glyph>
<glyph name="B" format="1">
  <advance width="518"/>
  <unicode hex="0042"/>
  <outline>
    <contour>
      <point x="30" y="0" type="line"/>
      <point x="140" y="0" type="line" smooth="yes"/>
      <point x="192" y="0"/>
      <point x="214" y="-4"/>
      <point x="261" y="-4" type="curve" smooth="yes"/>
      <point x="442" y="-4"/>
      <point x="494" y="74"/>
      <point x="494" y="165" type="curve" smooth="yes"/>
      <point x="494" y="247"/>
      <point x="434" y="296"/>
      <point x="340" y="294" type="curve"/>
      <point x="409" y="306"/>
      <point x="456" y="358"/>
      <point x="456" y="431" type="curve" smooth="yes"/>
      <point x="456" y="509"/>
      <point x="408" y="556"/>
      <point x="256" y="556" type="curve" smooth="yes"/>
      <point x="218" y="556"/>
      <point x="185" y="550"/>
      <point x="139" y="550" type="curve" smooth="yes"/>
      <point x="32" y="550" type="line"/>
      <point x="32" y="505" type="line"/>
      <point x="89" y="496" type="line"/>
      <point x="89" y="53" type="line"/>
      <point x="30" y="44" type="line"/>
    </contour>
    <contour>
      <point x="193" y="259" type="line"/>
      <point x="209" y="260"/>
      <point x="245" y="260"/>
      <point x="269" y="260" type="curve" smooth="yes"/>
      <point x="346" y="260"/>
      <point x="380" y="231"/>
      <point x="380" y="155" type="curve" smooth="yes"/>
      <point x="380" y="85"/>
      <point x="346" y="42"/>
      <point x="259" y="42" type="curve" smooth="yes"/>
      <point x="236" y="42"/>
      <point x="206" y="43"/>
      <point x="193" y="49" type="curve"/>
    </contour>
    <contour>
      <point x="193" y="506" type="line"/>
      <point x="204" y="508"/>
      <point x="230" y="510"/>
      <point x="251" y="510" type="curve" smooth="yes"/>
      <point x="325" y="510"/>
      <point x="351" y="480"/>
      <point x="351" y="417" type="curve" smooth="yes"/>
      <point x="351" y="349"/>
      <point x="323" y="311"/>
      <point x="260" y="311" type="curve" smooth="yes"/>
      <point x="242" y="311"/>
      <point x="209" y="311"/>
      <point x="193" y="312" type="curve"/>
    </contour>
  </outline>
</glyph>
<glyph name="F" format="1">
  <advance width="461"/>
  <unicode hex="0046"/>
  <outline>
    <contour>
      <point x="31" y="0" type="line"/>
      <point x="306" y="0" type="line"/>
      <point x="306" y="44" type="line"/>
      <point x="194" y="53" type="line"/>
      <point x="194" y="246" type="line"/>
      <point x="306" y="243" type="line"/>
      <point x="321" y="178" type="line"/>
      <point x="369" y="178" type="line"/>
      <point x="369" y="363" type="line"/>
      <point x="321" y="363" type="line"/>
      <point x="306" y="299" type="line"/>
      <point x="194" y="298" type="line"/>
      <point x="194" y="505" type="line"/>
      <point x="358" y="499" type="line"/>
      <point x="383" y="418" type="line"/>
      <point x="443" y="418" type="line"/>
      <point x="435" y="550" type="line"/>
      <point x="29" y="550" type="line"/>
      <point x="29" y="505" type="line"/>
      <point x="89" y="496" type="line"/>
      <point x="89" y="53" type="line"/>
      <point x="31" y="44" type="line"/>
    </contour>
  </outline>
</glyph>
<glyph name="G" format="1">
  <advance width="552"/>
  <unicode hex="0047"/>
  <outline>
    <contour>
      <point x="290" y="-8" type="curve" smooth="yes"/>
      <point x="389" y="-8"/>
      <point x="459" y="28"/>
      <point x="497" y="30" type="curve"/>
      <point x="497" y="224" type="line"/>
      <point x="537" y="231" type="line"/>
      <point x="537" y="281" type="line"/>
      <point x="314" y="281" type="line"/>
      <point x="314" y="231" type="line"/>
      <point x="394" y="223" type="line"/>
      <point x="394" y="66" type="line"/>
      <point x="376" y="49"/>
      <point x="338" y="39"/>
      <point x="299" y="39" type="curve" smooth="yes"/>
      <point x="194" y="39"/>
      <point x="149" y="150"/>
      <point x="149" y="284" type="curve" smooth="yes"/>
      <point x="149" y="434"/>
      <point x="212" y="511"/>
      <point x="308" y="511" type="curve" smooth="yes"/>
      <point x="362" y="511"/>
      <point x="384" y="497"/>
      <point x="392" y="490" type="curve"/>
      <point x="412" y="398" type="line"/>
      <point x="484" y="398" type="line"/>
      <point x="492" y="534" type="line"/>
      <point x="466" y="540"/>
      <point x="390" y="557"/>
      <point x="312" y="557" type="curve" smooth="yes"/>
      <point x="145" y="557"/>
      <point x="27" y="453"/>
      <point x="27" y="269" type="curve" smooth="yes"/>
      <point x="27" y="111"/>
      <point x="122" y="-8"/>
    </contour>
  </outline>
</glyph>
<glyph name="H" format="1">
  <advance width="618"/>
  <unicode hex="0048"/>
  <outline>
    <contour>
      <point x="33" y="0" type="line"/>
      <point x="257" y="0" type="line"/>
      <point x="257" y="44" type="line"/>
      <point x="194" y="53" type="line"/>
      <point x="194" y="254" type="line"/>
      <point x="423" y="254" type="line"/>
      <point x="423" y="53" type="line"/>
      <point x="366" y="44" type="line"/>
      <point x="366" y="0" type="line"/>
      <point x="585" y="0" type="line"/>
      <point x="585" y="44" type="line"/>
      <point x="528" y="53" type="line"/>
      <point x="528" y="496" type="line"/>
      <point x="585" y="505" type="line"/>
      <point x="585" y="550" type="line"/>
      <point x="365" y="550" type="line"/>
      <point x="365" y="505" type="line"/>
      <point x="423" y="495" type="line"/>
      <point x="423" y="309" type="line"/>
      <point x="194" y="309" type="line"/>
      <point x="194" y="496" type="line"/>
      <point x="256" y="505" type="line"/>
      <point x="256" y="550" type="line"/>
      <point x="34" y="550" type="line"/>
      <point x="34" y="505" type="line"/>
      <point x="89" y="496" type="line"/>
      <point x="89" y="53" type="line"/>
      <point x="33" y="44" type="line"/>
    </contour>
  </outline>
</glyph>
<glyph name="I" format="1">
  <advance width="303"/>
  <unicode hex="0049"/>
  <outline>
    <contour>
      <point x="36" y="0" type="line"/>
      <point x="270" y="0" type="line"/>
      <point x="270" y="43" type="line"/>
      <point x="206" y="53" type="line"/>
      <point x="206" y="496" type="line"/>
      <point x="269" y="505" type="line"/>
      <point x="269" y="550" type="line"/>
      <point x="35" y="550" type="line"/>
      <point x="35" y="505" type="line"/>
      <point x="99" y="495" type="line"/>
      <point x="99" y="53" type="line"/>
      <point x="36" y="44" type="line"/>
    </contour>
  </outline>
</glyph>
<glyph name="J" format="1">
  <advance width="288"/>
  <unicode hex="004A"/>
  <outline>
    <contour>
      <point x="14" y="-138" type="line"/>
      <point x="104" y="-122"/>
      <point x="174" y="-68"/>
      <point x="194" y="15" type="curve"/>
      <point x="203" y="54"/>
      <point x="204" y="120"/>
      <point x="204" y="205" type="curve" smooth="yes"/>
      <point x="204" y="496" type="line"/>
      <point x="265" y="505" type="line"/>
      <point x="265" y="550" type="line"/>
      <point x="33" y="550" type="line"/>
      <point x="33" y="505" type="line"/>
      <point x="99" y="495" type="line"/>
      <point x="99" y="160" type="line" smooth="yes"/>
      <point x="99" y="70"/>
      <point x="94" y="33"/>
      <point x="84" y="-2" type="curve"/>
      <point x="66" y="-55"/>
      <point x="25" y="-89"/>
      <point x="-10" y="-100" type="curve"/>
    </contour>
  </outline>
</glyph>
<glyph name="K" format="1">
  <advance width="549"/>
  <unicode hex="004B"/>
  <outline>
    <contour>
      <point x="551" y="0" type="line"/>
      <point x="551" y="43" type="line"/>
      <point x="518" y="53" type="line"/>
      <point x="489" y="63"/>
      <point x="392" y="271"/>
      <point x="322" y="332" type="curve"/>
      <point x="467" y="496" type="line"/>
      <point x="527" y="505" type="line"/>
      <point x="527" y="550" type="line"/>
      <point x="329" y="550" type="line"/>
      <point x="329" y="505" type="line"/>
      <point x="389" y="496" type="line"/>
      <point x="195" y="253" type="line"/>
      <point x="195" y="495" type="line"/>
      <point x="251" y="505" type="line"/>
      <point x="251" y="550" type="line"/>
      <point x="31" y="550" type="line"/>
      <point x="31" y="505" type="line"/>
      <point x="89" y="496" type="line"/>
      <point x="89" y="53" type="line"/>
      <point x="30" y="44" type="line"/>
      <point x="30" y="0" type="line"/>
      <point x="260" y="0" type="line"/>
      <point x="260" y="43" type="line"/>
      <point x="195" y="53" type="line"/>
      <point x="195" y="183" type="line"/>
      <point x="261" y="260" type="line"/>
      <point x="318" y="190"/>
      <point x="389" y="0"/>
      <point x="422" y="0" type="curve" smooth="yes"/>
    </contour>
  </outline>
</glyph>
<glyph name="L" format="1">
  <advance width="472"/>
  <unicode hex="004C"/>
  <outline>
    <contour>
      <point x="31" y="0" type="line"/>
      <point x="439" y="0" type="line"/>
      <point x="461" y="184" type="line"/>
      <point x="403" y="193" type="line"/>
      <point x="357" y="60" type="line"/>
      <point x="195" y="54" type="line"/>
      <point x="195" y="495" type="line"/>
      <point x="266" y="505" type="line"/>
      <point x="266" y="550" type="line"/>
      <point x="32" y="550" type="line"/>
      <point x="32" y="505" type="line"/>
      <point x="89" y="495" type="line"/>
      <point x="89" y="53" type="line"/>
      <point x="31" y="44" type="line"/>
    </contour>
  </outline>
</glyph>
<glyph name="M" format="1">
  <advance width="753"/>
  <unicode hex="004D"/>
  <outline>
    <contour>
      <point x="0" y="0" type="line"/>
      <point x="205" y="0" type="line"/>
      <point x="205" y="44" type="line"/>
      <point x="132" y="53" type="line"/>
      <point x="158" y="376" type="line"/>
      <point x="168" y="514" type="line"/>
      <point x="204" y="380" type="line"/>
      <point x="328" y="23" type="line"/>
      <point x="398" y="23" type="line"/>
      <point x="505" y="410" type="line"/>
      <point x="528" y="513" type="line"/>
      <point x="543" y="376" type="line"/>
      <point x="585" y="53" type="line"/>
      <point x="523" y="44" type="line"/>
      <point x="523" y="0" type="line"/>
      <point x="756" y="0" type="line"/>
      <point x="756" y="44" type="line"/>
      <point x="693" y="53" type="line"/>
      <point x="625" y="495" type="line"/>
      <point x="705" y="505" type="line"/>
      <point x="705" y="550" type="line"/>
      <point x="483" y="550" type="line"/>
      <point x="396" y="224" type="line"/>
      <point x="381" y="146" type="line"/>
      <point x="363" y="224" type="line"/>
      <point x="260" y="550" type="line"/>
      <point x="40" y="550" type="line"/>
      <point x="40" y="505" type="line"/>
      <point x="115" y="496" type="line"/>
      <point x="62" y="53" type="line"/>
      <point x="0" y="44" type="line"/>
    </contour>
  </outline>
</glyph>
<glyph name="N" format="1">
  <advance width="594"/>
  <unicode hex="004E"/>
  <outline>
    <contour>
      <point x="31" y="0" type="line"/>
      <point x="226" y="0" type="line"/>
      <point x="226" y="44" type="line"/>
      <point x="152" y="53" type="line"/>
      <point x="152" y="450" type="line"/>
      <point x="204" y="351" type="line"/>
      <point x="438" y="0" type="line"/>
      <point x="521" y="0" type="line"/>
      <point x="521" y="496" type="line"/>
      <point x="580" y="505" type="line"/>
      <point x="580" y="550" type="line"/>
      <point x="395" y="550" type="line"/>
      <point x="395" y="505" type="line"/>
      <point x="459" y="496" type="line"/>
      <point x="459" y="133" type="line"/>
      <point x="419" y="214" type="line"/>
      <point x="194" y="550" type="line"/>
      <point x="31" y="550" type="line"/>
      <point x="31" y="505" type="line"/>
      <point x="89" y="496" type="line"/>
      <point x="89" y="53" type="line"/>
      <point x="31" y="44" type="line"/>
    </contour>
  </outline>
</glyph>
<glyph name="O" format="1">
  <advance width="538"/>
  <unicode hex="004F"/>
  <outline>
    <contour>
      <point x="265" y="-8" type="curve" smooth="yes"/>
      <point x="413" y="-7"/>
      <point x="517" y="109"/>
      <point x="517" y="283" type="curve" smooth="yes"/>
      <point x="517" y="449"/>
      <point x="441" y="557"/>
      <point x="275" y="557" type="curve" smooth="yes"/>
      <point x="126" y="557"/>
      <point x="22" y="447"/>
      <point x="22" y="272" type="curve" smooth="yes"/>
      <point x="22" y="104"/>
      <point x="99" y="-10"/>
    </contour>
    <contour>
      <point x="269" y="511" type="curve" smooth="yes"/>
      <point x="351" y="511"/>
      <point x="400" y="436"/>
      <point x="400" y="282" type="curve" smooth="yes"/>
      <point x="400" y="121"/>
      <point x="349" y="38"/>
      <point x="269" y="38" type="curve" smooth="yes"/>
      <point x="186" y="38"/>
      <point x="138" y="120"/>
      <point x="138" y="273" type="curve" smooth="yes"/>
      <point x="138" y="435"/>
      <point x="189" y="511"/>
    </contour>
  </outline>
</glyph>
<glyph name="P" format="1">
  <advance width="488"/>
  <unicode hex="0050"/>
  <outline>
    <contour>
      <point x="31" y="0" type="line"/>
      <point x="292" y="0" type="line"/>
      <point x="292" y="44" type="line"/>
      <point x="195" y="53" type="line"/>
      <point x="195" y="200" type="line"/>
      <point x="201" y="198"/>
      <point x="230" y="197"/>
      <point x="254" y="197" type="curve" smooth="yes"/>
      <point x="387" y="197"/>
      <point x="472" y="270"/>
      <point x="472" y="393" type="curve" smooth="yes"/>
      <point x="472" y="497"/>
      <point x="424" y="555"/>
      <point x="264" y="555" type="curve" smooth="yes"/>
      <point x="205" y="555"/>
      <point x="179" y="550"/>
      <point x="139" y="550" type="curve" smooth="yes"/>
      <point x="34" y="550" type="line"/>
      <point x="34" y="505" type="line"/>
      <point x="89" y="496" type="line"/>
      <point x="89" y="53" type="line"/>
      <point x="31" y="44" type="line"/>
    </contour>
    <contour>
      <point x="194" y="247" type="curve"/>
      <point x="194" y="505" type="line"/>
      <point x="209" y="506"/>
      <point x="221" y="510"/>
      <point x="251" y="510" type="curve" smooth="yes"/>
      <point x="325" y="510"/>
      <point x="363" y="476"/>
      <point x="363" y="391" type="curve" smooth="yes"/>
      <point x="363" y="278"/>
      <point x="311" y="243"/>
      <point x="253" y="243" type="curve" smooth="yes"/>
      <point x="223" y="243"/>
      <point x="206" y="245"/>
    </contour>
  </outline>
</glyph>
<glyph name="Q" format="1">
  <advance width="542"/>
  <unicode hex="0051"/>
  <outline>
    <contour>
      <point x="267" y="-8" type="curve" smooth="yes"/>
      <point x="285" y="-8"/>
      <point x="303" y="-6"/>
      <point x="319" y="-2" type="curve"/>
      <point x="405" y="-31"/>
      <point x="476" y="-143"/>
      <point x="591" y="-143" type="curve" smooth="yes"/>
      <point x="595" y="-143" type="line" smooth="yes"/>
      <point x="651" y="-143"/>
      <point x="673" y="-117"/>
      <point x="681" y="-109" type="curve"/>
      <point x="671" y="-73" type="line"/>
      <point x="664" y="-74"/>
      <point x="655" y="-76"/>
      <point x="639" y="-76" type="curve" smooth="yes"/>
      <point x="638" y="-76" type="line" smooth="yes"/>
      <point x="564" y="-76"/>
      <point x="471" y="6"/>
      <point x="382" y="21" type="curve"/>
      <point x="466" y="65"/>
      <point x="518" y="159"/>
      <point x="518" y="283" type="curve" smooth="yes"/>
      <point x="518" y="449"/>
      <point x="442" y="557"/>
      <point x="277" y="557" type="curve" smooth="yes"/>
      <point x="128" y="557"/>
      <point x="23" y="447"/>
      <point x="23" y="272" type="curve" smooth="yes"/>
      <point x="23" y="104"/>
      <point x="101" y="-10"/>
    </contour>
    <contour>
      <point x="271" y="511" type="curve" smooth="yes"/>
      <point x="354" y="511"/>
      <point x="401" y="436"/>
      <point x="401" y="282" type="curve" smooth="yes"/>
      <point x="401" y="121"/>
      <point x="351" y="38"/>
      <point x="271" y="38" type="curve" smooth="yes"/>
      <point x="188" y="38"/>
      <point x="140" y="120"/>
      <point x="140" y="273" type="curve" smooth="yes"/>
      <point x="140" y="435"/>
      <point x="191" y="511"/>
    </contour>
  </outline>
</glyph>
<glyph name="V" format="1">
  <advance width="508"/>
  <unicode hex="0056"/>
  <outline>
    <contour>
      <point x="217" y="-5" type="line"/>
      <point x="302" y="-5" type="line"/>
      <point x="474" y="496" type="line"/>
      <point x="521" y="505" type="line"/>
      <point x="521" y="550" type="line"/>
      <point x="344" y="550" type="line"/>
      <point x="344" y="505" type="line"/>
      <point x="400" y="495" type="line"/>
      <point x="296" y="162" type="line"/>
      <point x="278" y="86" type="line"/>
      <point x="257" y="161" type="line"/>
      <point x="147" y="496" type="line"/>
      <point x="210" y="505" type="line"/>
      <point x="210" y="550" type="line"/>
      <point x="-12" y="550" type="line"/>
      <point x="-12" y="505" type="line"/>
      <point x="32" y="496" type="line"/>
    </contour>
  </outline>
</glyph>
<glyph name="X" format="1">
  <advance width="533"/>
  <unicode hex="0058"/>
  <outline>
    <contour>
      <point x="4" y="0" type="line"/>
      <point x="207" y="0" type="line"/>
      <point x="207" y="44" type="line"/>
      <point x="137" y="53" type="line"/>
      <point x="243" y="234" type="line"/>
      <point x="355" y="53" type="line"/>
      <point x="295" y="44" type="line"/>
      <point x="295" y="0" type="line"/>
      <point x="533" y="0" type="line"/>
      <point x="533" y="44" type="line"/>
      <point x="480" y="53" type="line"/>
      <point x="318" y="292" type="line"/>
      <point x="464" y="496" type="line"/>
      <point x="522" y="505" type="line"/>
      <point x="522" y="550" type="line"/>
      <point x="332" y="550" type="line"/>
      <point x="332" y="505" type="line"/>
      <point x="395" y="496" type="line"/>
      <point x="290" y="327" type="line"/>
      <point x="188" y="495" type="line"/>
      <point x="250" y="505" type="line"/>
      <point x="250" y="550" type="line"/>
      <point x="12" y="550" type="line"/>
      <point x="12" y="505" type="line"/>
      <point x="64" y="495" type="line"/>
      <point x="214" y="270" type="line"/>
      <point x="66" y="53" type="line"/>
      <point x="4" y="44" type="line"/>
    </contour>
  </outline>
</glyph>
<glyph name="Y" format="1">
  <advance width="485"/>
  <unicode hex="0059"/>
  <outline>
    <contour>
      <point x="114" y="0" type="line"/>
      <point x="382" y="0" type="line"/>
      <point x="382" y="44" type="line"/>
      <point x="302" y="53" type="line"/>
      <point x="302" y="218" type="line"/>
      <point x="450" y="496" type="line"/>
      <point x="496" y="505" type="line"/>
      <point x="496" y="550" type="line"/>
      <point x="317" y="550" type="line"/>
      <point x="317" y="505" type="line"/>
      <point x="374" y="496" type="line"/>
      <point x="287" y="310" type="line"/>
      <point x="266" y="261" type="line"/>
      <point x="246" y="311" type="line"/>
      <point x="153" y="495" type="line"/>
      <point x="205" y="505" type="line"/>
      <point x="205" y="550" type="line"/>
      <point x="-11" y="550" type="line"/>
      <point x="-11" y="505" type="line"/>
      <point x="33" y="495" type="line"/>
      <point x="191" y="218" type="line"/>
      <point x="191" y="53" type="line"/>
      <point x="114" y="44" type="line"/>
    </contour>
  </outline>
</glyph>
<glyph name="bracketleft" format="1">
  <advance width="316"/>
  <unicode hex="005B"/>
  <outline>
    <contour>
      <point x="66" y="-22" type="line"/>
      <point x="66" y="-90"/>
      <point x="95" y="-101"/>
      <point x="150" y="-101" type="curve" smooth="yes"/>
      <point x="190" y="-101"/>
      <point x="225" y="-95"/>
      <point x="256" y="-87" type="curve"/>
      <point x="256" y="-49" type="line"/>
      <point x="155" y="-49" type="line"/>
      <point x="155" y="544" type="line"/>
      <point x="256" y="544" type="line"/>
      <point x="256" y="581" type="line"/>
      <point x="225" y="588"/>
      <point x="191" y="596"/>
      <point x="150" y="596" type="curve" smooth="yes"/>
      <point x="95" y="596"/>
      <point x="66" y="584"/>
      <point x="66" y="516" type="curve" smooth="yes"/>
    </contour>
  </outline>
</glyph>
<glyph name="backslash" format="1">
  <advance width="319"/>
  <unicode hex="005C"/>
  <outline>
    <contour>
      <point x="286" y="-131" type="line"/>
      <point x="210" y="-131" type="line"/>
      <point x="17" y="579" type="line"/>
      <point x="93" y="579" type="line"/>
    </contour>
  </outline>
</glyph>
<glyph name="bracketright" format="1">
  <advance width="316"/>
  <unicode hex="005D"/>
  <outline>
    <contour>
      <point x="250" y="-22" type="line"/>
      <point x="250" y="-90"/>
      <point x="221" y="-101"/>
      <point x="166" y="-101" type="curve" smooth="yes"/>
      <point x="126" y="-101"/>
      <point x="91" y="-95"/>
      <point x="60" y="-87" type="curve"/>
      <point x="60" y="-49" type="line"/>
      <point x="161" y="-49" type="line"/>
      <point x="161" y="544" type="line"/>
      <point x="60" y="544" type="line"/>
      <point x="60" y="581" type="line"/>
      <point x="91" y="588"/>
      <point x="126" y="596"/>
      <point x="166" y="596" type="curve" smooth="yes"/>
      <point x="221" y="596"/>
      <point x="250" y="584"/>
      <point x="250" y="516" type="curve" smooth="yes"/>
    </contour>
  </outline>
</glyph>
<glyph name="asciicircum" format="1">
  <advance width="493"/>
  <unicode hex="005E"/>
  <outline>
    <contour>
      <point x="61" y="99" type="line"/>
      <point x="145" y="99" type="line"/>
      <point x="246" y="451" type="line"/>
      <point x="348" y="99" type="line"/>
      <point x="431" y="99" type="line"/>
      <point x="284" y="554" type="line"/>
      <point x="207" y="554" type="line"/>
    </contour>
  </outline>
</glyph>
<glyph name="grave" format="1">
  <advance width="247"/>
  <unicode hex="0060"/>
  <outline>
    <contour>
      <point x="140" y="477" type="curve"/>
      <point x="141" y="477" type="line"/>
      <point x="178" y="509" type="line"/>
      <point x="54" y="660" type="line"/>
      <point x="53" y="660" type="line"/>
      <point x="-12" y="603" type="line"/>
      <point x="12" y="565"/>
      <point x="103" y="490"/>
    </contour>
  </outline>
</glyph>
<glyph name="a" format="1">
  <advance width="418"/>
  <unicode hex="0061"/>
  <outline>
    <contour>
      <point x="26" y="114" type="curve" smooth="yes"/>
      <point x="26" y="32"/>
      <point x="84" y="-8"/>
      <point x="151" y="-8" type="curve" smooth="yes"/>
      <point x="211" y="-8"/>
      <point x="254" y="26"/>
      <point x="272" y="46" type="curve"/>
      <point x="272" y="31" type="line" smooth="yes"/>
      <point x="272" y="-2"/>
      <point x="284" y="-8"/>
      <point x="315" y="-8" type="curve" smooth="yes"/>
      <point x="345" y="-8"/>
      <point x="386" y="-1"/>
      <point x="404" y="3" type="curve"/>
      <point x="404" y="44" type="line"/>
      <point x="363" y="44" type="line"/>
      <point x="363" y="272" type="line" smooth="yes"/>
      <point x="363" y="379"/>
      <point x="327" y="420"/>
      <point x="215" y="420" type="curve" smooth="yes"/>
      <point x="135" y="420"/>
      <point x="58" y="378"/>
      <point x="41" y="363" type="curve"/>
      <point x="63" y="319" type="line"/>
      <point x="90" y="332"/>
      <point x="134" y="351"/>
      <point x="190" y="351" type="curve" smooth="yes"/>
      <point x="253" y="351"/>
      <point x="268" y="326"/>
      <point x="268" y="269" type="curve" smooth="yes"/>
      <point x="268" y="251" type="line"/>
      <point x="129" y="250"/>
      <point x="26" y="210"/>
    </contour>
    <contour>
      <point x="198" y="53" type="curve" smooth="yes"/>
      <point x="161" y="53"/>
      <point x="135" y="76"/>
      <point x="135" y="125" type="curve" smooth="yes"/>
      <point x="135" y="168"/>
      <point x="170" y="206"/>
      <point x="268" y="206" type="curve"/>
      <point x="268" y="82" type="line"/>
      <point x="248" y="66"/>
      <point x="217" y="53"/>
    </contour>
  </outline>
</glyph>
<glyph name="b" format="1">
  <advance width="456"/>
  <unicode hex="0062"/>
  <outline>
    <contour>
      <point x="55" y="20" type="line"/>
      <point x="65" y="12"/>
      <point x="124" y="-8"/>
      <point x="211" y="-8" type="curve" smooth="yes"/>
      <point x="346" y="-8"/>
      <point x="429" y="92"/>
      <point x="429" y="220" type="curve" smooth="yes"/>
      <point x="429" y="364"/>
      <point x="353" y="422"/>
      <point x="268" y="422" type="curve" smooth="yes"/>
      <point x="218" y="422"/>
      <point x="179" y="399"/>
      <point x="156" y="375" type="curve"/>
      <point x="156" y="594" type="line"/>
      <point x="135" y="607" type="line"/>
      <point x="133" y="607" type="line"/>
      <point x="-1" y="591" type="line"/>
      <point x="-1" y="553" type="line"/>
      <point x="55" y="544" type="line"/>
    </contour>
    <contour>
      <point x="228" y="359" type="curve" smooth="yes"/>
      <point x="282" y="359"/>
      <point x="321" y="314"/>
      <point x="320" y="207" type="curve" smooth="yes"/>
      <point x="318" y="91"/>
      <point x="275" y="36"/>
      <point x="215" y="36" type="curve" smooth="yes"/>
      <point x="186" y="36"/>
      <point x="161" y="43"/>
      <point x="156" y="56" type="curve"/>
      <point x="156" y="326" type="line"/>
      <point x="169" y="340"/>
      <point x="195" y="359"/>
    </contour>
  </outline>
</glyph>
<glyph name="c" format="1">
  <advance width="382"/>
  <unicode hex="0063"/>
  <outline>
    <contour>
      <point x="26" y="201" type="curve" smooth="yes"/>
      <point x="27" y="82"/>
      <point x="85" y="-8"/>
      <point x="216" y="-8" type="curve" smooth="yes"/>
      <point x="280" y="-8"/>
      <point x="338" y="24"/>
      <point x="360" y="48" type="curve"/>
      <point x="342" y="86" type="line"/>
      <point x="320" y="72"/>
      <point x="286" y="56"/>
      <point x="240" y="56" type="curve" smooth="yes"/>
      <point x="180" y="56"/>
      <point x="134" y="110"/>
      <point x="135" y="226" type="curve" smooth="yes"/>
      <point x="136" y="332"/>
      <point x="172" y="375"/>
      <point x="224" y="375" type="curve" smooth="yes"/>
      <point x="246" y="375"/>
      <point x="265" y="369"/>
      <point x="270" y="353" type="curve" smooth="yes"/>
      <point x="288" y="278" type="line"/>
      <point x="351" y="278" type="line"/>
      <point x="355" y="400" type="line"/>
      <point x="333" y="404"/>
      <point x="295" y="422"/>
      <point x="237" y="422" type="curve" smooth="yes"/>
      <point x="105" y="422"/>
      <point x="26" y="329"/>
    </contour>
  </outline>
</glyph>
<glyph name="d" format="1">
  <advance width="463"/>
  <unicode hex="0064"/>
  <outline>
    <contour>
      <point x="188" y="-8" type="curve" smooth="yes"/>
      <point x="241" y="-8"/>
      <point x="285" y="18"/>
      <point x="310" y="49" type="curve"/>
      <point x="310" y="31" type="line" smooth="yes"/>
      <point x="310" y="-3"/>
      <point x="325" y="-8"/>
      <point x="354" y="-8" type="curve" smooth="yes"/>
      <point x="385" y="-8"/>
      <point x="420" y="-1"/>
      <point x="441" y="3" type="curve"/>
      <point x="441" y="45" type="line"/>
      <point x="401" y="45" type="line"/>
      <point x="401" y="592" type="line"/>
      <point x="380" y="607" type="line"/>
      <point x="377" y="607" type="line"/>
      <point x="228" y="593" type="line"/>
      <point x="228" y="552" type="line"/>
      <point x="301" y="543" type="line"/>
      <point x="301" y="416" type="line"/>
      <point x="284" y="420"/>
      <point x="265" y="422"/>
      <point x="246" y="422" type="curve" smooth="yes"/>
      <point x="105" y="422"/>
      <point x="27" y="319"/>
      <point x="27" y="196" type="curve" smooth="yes"/>
      <point x="27" y="54"/>
      <point x="101" y="-8"/>
    </contour>
    <contour>
      <point x="228" y="54" type="curve" smooth="yes"/>
      <point x="175" y="54"/>
      <point x="134" y="98"/>
      <point x="136" y="209" type="curve"/>
      <point x="137" y="331"/>
      <point x="183" y="376"/>
      <point x="241" y="376" type="curve" smooth="yes"/>
      <point x="268" y="376"/>
      <point x="294" y="366"/>
      <point x="301" y="357" type="curve"/>
      <point x="301" y="86" type="line"/>
      <point x="287" y="71"/>
      <point x="261" y="54"/>
    </contour>
  </outline>
</glyph>
<glyph name="e" format="1">
  <advance width="406"/>
  <unicode hex="0065"/>
  <outline>
    <contour>
      <point x="219" y="-8" type="curve" smooth="yes"/>
      <point x="285" y="-8"/>
      <point x="349" y="23"/>
      <point x="374" y="49" type="curve"/>
      <point x="356" y="89" type="line"/>
      <point x="333" y="74"/>
      <point x="288" y="56"/>
      <point x="248" y="56" type="curve" smooth="yes"/>
      <point x="180" y="56"/>
      <point x="138" y="106"/>
      <point x="133" y="200" type="curve"/>
      <point x="375" y="200" type="line"/>
      <point x="379" y="219"/>
      <point x="380" y="241"/>
      <point x="380" y="274" type="curve"/>
      <point x="378" y="369"/>
      <point x="324" y="422"/>
      <point x="225" y="422" type="curve" smooth="yes"/>
      <point x="108" y="422"/>
      <point x="27" y="339"/>
      <point x="27" y="206" type="curve" smooth="yes"/>
      <point x="27" y="80"/>
      <point x="86" y="-8"/>
    </contour>
    <contour>
      <point x="212" y="375" type="curve" smooth="yes"/>
      <point x="262" y="375"/>
      <point x="279" y="334"/>
      <point x="279" y="277" type="curve" smooth="yes"/>
      <point x="279" y="268"/>
      <point x="279" y="254"/>
      <point x="278" y="246" type="curve"/>
      <point x="132" y="246" type="line"/>
      <point x="136" y="349"/>
      <point x="169" y="375"/>
    </contour>
  </outline>
</glyph>
<glyph name="f" format="1">
  <advance width="304"/>
  <unicode hex="0066"/>
  <outline>
    <contour>
      <point x="29" y="0" type="line"/>
      <point x="265" y="0" type="line"/>
      <point x="265" y="44" type="line"/>
      <point x="188" y="51" type="line"/>
      <point x="188" y="355" type="line"/>
      <point x="284" y="355" type="line"/>
      <point x="284" y="411" type="line"/>
      <point x="188" y="411" type="line"/>
      <point x="188" y="475" type="line" smooth="yes"/>
      <point x="188" y="524"/>
      <point x="202" y="538"/>
      <point x="243" y="538" type="curve" smooth="yes"/>
      <point x="276" y="538"/>
      <point x="309" y="525"/>
      <point x="317" y="516" type="curve"/>
      <point x="317" y="610" type="line"/>
      <point x="310" y="612"/>
      <point x="297" y="617"/>
      <point x="271" y="617" type="curve" smooth="yes"/>
      <point x="176" y="617"/>
      <point x="87" y="541"/>
      <point x="87" y="443" type="curve" smooth="yes"/>
      <point x="87" y="410" type="line"/>
      <point x="24" y="395" type="line"/>
      <point x="24" y="355" type="line"/>
      <point x="87" y="355" type="line"/>
      <point x="87" y="51" type="line"/>
      <point x="29" y="44" type="line"/>
    </contour>
  </outline>
</glyph>
<glyph name="g" format="1">
  <advance width="460"/>
  <unicode hex="0067"/>
  <outline>
    <contour>
      <point x="389" y="293" type="curve" smooth="yes"/>
      <point x="389" y="312"/>
      <point x="386" y="329"/>
      <point x="380" y="343" type="curve"/>
      <point x="454" y="343" type="line"/>
      <point x="454" y="423" type="line"/>
      <point x="431" y="423" type="line" smooth="yes"/>
      <point x="392" y="423"/>
      <point x="361" y="401"/>
      <point x="350" y="388" type="curve"/>
      <point x="321" y="411"/>
      <point x="279" y="422"/>
      <point x="221" y="422" type="curve"/>
      <point x="126" y="422"/>
      <point x="41" y="370"/>
      <point x="41" y="282" type="curve" smooth="yes"/>
      <point x="41" y="227"/>
      <point x="66" y="182"/>
      <point x="120" y="160" type="curve"/>
      <point x="84" y="143"/>
      <point x="61" y="110"/>
      <point x="61" y="76" type="curve" smooth="yes"/>
      <point x="61" y="47"/>
      <point x="73" y="28"/>
      <point x="96" y="14" type="curve"/>
      <point x="60" y="-2"/>
      <point x="27" y="-42"/>
      <point x="27" y="-85" type="curve" smooth="yes"/>
      <point x="27" y="-151"/>
      <point x="78" y="-200"/>
      <point x="216" y="-200" type="curve"/>
      <point x="217" y="-200" type="line"/>
      <point x="335" y="-200"/>
      <point x="444" y="-135"/>
      <point x="444" y="-42" type="curve" smooth="yes"/>
      <point x="444" y="32"/>
      <point x="395" y="69"/>
      <point x="295" y="69" type="curve" smooth="yes"/>
      <point x="219" y="69" type="line" smooth="yes"/>
      <point x="161" y="69"/>
      <point x="138" y="76"/>
      <point x="138" y="110" type="curve" smooth="yes"/>
      <point x="138" y="122"/>
      <point x="143" y="139"/>
      <point x="152" y="150" type="curve"/>
      <point x="169" y="146"/>
      <point x="189" y="145"/>
      <point x="211" y="145" type="curve"/>
      <point x="320" y="145"/>
      <point x="390" y="205"/>
    </contour>
    <contour>
      <point x="188" y="-4" type="curve"/>
      <point x="262" y="-4" type="line" smooth="yes"/>
      <point x="324" y="-4"/>
      <point x="341" y="-22"/>
      <point x="341" y="-65" type="curve" smooth="yes"/>
      <point x="341" y="-121"/>
      <point x="282" y="-149"/>
      <point x="228" y="-149" type="curve" smooth="yes"/>
      <point x="227" y="-149" type="line" smooth="yes"/>
      <point x="154" y="-149"/>
      <point x="127" y="-116"/>
      <point x="127" y="-63" type="curve" smooth="yes"/>
      <point x="127" y="-35"/>
      <point x="135" y="-15"/>
      <point x="145" y="0" type="curve"/>
      <point x="158" y="-3"/>
      <point x="172" y="-4"/>
    </contour>
    <contour>
      <point x="288" y="285" type="curve" smooth="yes"/>
      <point x="288" y="227"/>
      <point x="269" y="191"/>
      <point x="219" y="191" type="curve"/>
      <point x="164" y="191"/>
      <point x="144" y="231"/>
      <point x="144" y="288" type="curve" smooth="yes"/>
      <point x="144" y="351"/>
      <point x="171" y="377"/>
      <point x="217" y="377" type="curve"/>
      <point x="265" y="377"/>
      <point x="288" y="349"/>
    </contour>
  </outline>
</glyph>
<glyph name="h" format="1">
  <advance width="497"/>
  <unicode hex="0068"/>
  <outline>
    <contour>
      <point x="30" y="0" type="line"/>
      <point x="220" y="0" type="line"/>
      <point x="220" y="44" type="line"/>
      <point x="174" y="51" type="line"/>
      <point x="174" y="323" type="line"/>
      <point x="197" y="342"/>
      <point x="232" y="358"/>
      <point x="265" y="358" type="curve" smooth="yes"/>
      <point x="321" y="358"/>
      <point x="330" y="326"/>
      <point x="330" y="254" type="curve" smooth="yes"/>
      <point x="330" y="51" type="line"/>
      <point x="287" y="44" type="line"/>
      <point x="287" y="0" type="line"/>
      <point x="481" y="0" type="line"/>
      <point x="481" y="44" type="line"/>
      <point x="432" y="51" type="line"/>
      <point x="432" y="254" type="line" smooth="yes"/>
      <point x="432" y="369"/>
      <point x="407" y="420"/>
      <point x="313" y="420" type="curve" smooth="yes"/>
      <point x="249" y="420"/>
      <point x="194" y="386"/>
      <point x="168" y="363" type="curve"/>
      <point x="173" y="429" type="line"/>
      <point x="172" y="593" type="line"/>
      <point x="152" y="607" type="line"/>
      <point x="150" y="607" type="line"/>
      <point x="14" y="591" type="line"/>
      <point x="14" y="551" type="line"/>
      <point x="72" y="543" type="line"/>
      <point x="72" y="51" type="line"/>
      <point x="30" y="44" type="line"/>
    </contour>
  </outline>
</glyph>
<glyph name="i" format="1">
  <advance width="255"/>
  <unicode hex="0069"/>
  <outline>
    <contour>
      <point x="29" y="0" type="line"/>
      <point x="236" y="0" type="line"/>
      <point x="236" y="44" type="line"/>
      <point x="184" y="51" type="line"/>
      <point x="184" y="407" type="line"/>
      <point x="163" y="421" type="line"/>
      <point x="162" y="421" type="line"/>
      <point x="30" y="405" type="line"/>
      <point x="30" y="355" type="line"/>
      <point x="82" y="341" type="line"/>
      <point x="82" y="51" type="line"/>
      <point x="29" y="44" type="line"/>
    </contour>
    <contour>
      <point x="124" y="484" type="curve"/>
      <point x="168" y="484"/>
      <point x="189" y="512"/>
      <point x="189" y="548" type="curve" smooth="yes"/>
      <point x="189" y="577"/>
      <point x="168" y="604"/>
      <point x="131" y="604" type="curve"/>
      <point x="91" y="604"/>
      <point x="69" y="573"/>
      <point x="69" y="539" type="curve" smooth="yes"/>
      <point x="69" y="507"/>
      <point x="91" y="484"/>
    </contour>
  </outline>
</glyph>
<glyph name="j" format="1">
  <advance width="240"/>
  <unicode hex="006A"/>
  <outline>
    <contour>
      <point x="83" y="26" type="line"/>
      <point x="83" y="-54"/>
      <point x="71" y="-110"/>
      <point x="31" y="-126" type="curve" smooth="yes"/>
      <point x="17" y="-133"/>
      <point x="0" y="-135"/>
      <point x="-7" y="-135" type="curve"/>
      <point x="-2" y="-177" type="line"/>
      <point x="4" y="-179"/>
      <point x="32" y="-181"/>
      <point x="42" y="-180" type="curve" smooth="yes"/>
      <point x="103" y="-176"/>
      <point x="182" y="-116"/>
      <point x="182" y="7" type="curve" smooth="yes"/>
      <point x="182" y="407" type="line"/>
      <point x="162" y="421" type="line"/>
      <point x="161" y="421" type="line"/>
      <point x="31" y="405" type="line"/>
      <point x="31" y="354" type="line"/>
      <point x="82" y="339" type="line"/>
    </contour>
    <contour>
      <point x="123" y="484" type="curve"/>
      <point x="168" y="484"/>
      <point x="188" y="512"/>
      <point x="188" y="548" type="curve" smooth="yes"/>
      <point x="188" y="577"/>
      <point x="168" y="604"/>
      <point x="130" y="604" type="curve"/>
      <point x="90" y="604"/>
      <point x="68" y="573"/>
      <point x="68" y="539" type="curve" smooth="yes"/>
      <point x="68" y="507"/>
      <point x="90" y="484"/>
    </contour>
  </outline>
</glyph>
<glyph name="k" format="1">
  <advance width="466"/>
  <unicode hex="006B"/>
  <outline>
    <contour>
      <point x="27" y="0" type="line"/>
      <point x="220" y="0" type="line"/>
      <point x="220" y="44" type="line"/>
      <point x="172" y="51" type="line"/>
      <point x="172" y="103" type="line"/>
      <point x="170" y="143" type="line"/>
      <point x="236" y="208" type="line"/>
      <point x="324" y="51" type="line"/>
      <point x="286" y="44" type="line"/>
      <point x="286" y="0" type="line"/>
      <point x="479" y="0" type="line"/>
      <point x="479" y="44" type="line"/>
      <point x="437" y="51" type="line"/>
      <point x="305" y="270" type="line"/>
      <point x="396" y="358" type="line"/>
      <point x="457" y="369" type="line"/>
      <point x="457" y="411" type="line"/>
      <point x="263" y="411" type="line"/>
      <point x="263" y="369" type="line"/>
      <point x="320" y="360" type="line"/>
      <point x="170" y="204" type="line"/>
      <point x="172" y="242" type="line"/>
      <point x="172" y="593" type="line"/>
      <point x="152" y="607" type="line"/>
      <point x="151" y="607" type="line"/>
      <point x="17" y="591" type="line"/>
      <point x="17" y="551" type="line"/>
      <point x="71" y="543" type="line"/>
      <point x="71" y="51" type="line"/>
      <point x="27" y="44" type="line"/>
    </contour>
  </outline>
</glyph>
<glyph name="l" format="1">
  <advance width="252"/>
  <unicode hex="006C"/>
  <outline>
    <contour>
      <point x="24" y="0" type="line"/>
      <point x="233" y="0" type="line"/>
      <point x="233" y="44" type="line"/>
      <point x="178" y="51" type="line"/>
      <point x="178" y="593" type="line"/>
      <point x="159" y="607" type="line"/>
      <point x="157" y="607" type="line"/>
      <point x="22" y="591" type="line"/>
      <point x="22" y="551" type="line"/>
      <point x="77" y="543" type="line"/>
      <point x="77" y="51" type="line"/>
      <point x="24" y="44" type="line"/>
    </contour>
  </outline>
</glyph>
<glyph name="m" format="1">
  <advance width="751"/>
  <unicode hex="006D"/>
  <outline>
    <contour>
      <point x="37" y="0" type="line"/>
      <point x="227" y="0" type="line"/>
      <point x="227" y="44" type="line"/>
      <point x="183" y="51" type="line"/>
      <point x="183" y="323" type="line"/>
      <point x="203" y="340"/>
      <point x="239" y="358"/>
      <point x="272" y="358" type="curve" smooth="yes"/>
      <point x="325" y="358"/>
      <point x="336" y="326"/>
      <point x="336" y="254" type="curve" smooth="yes"/>
      <point x="336" y="51" type="line"/>
      <point x="293" y="44" type="line"/>
      <point x="293" y="0" type="line"/>
      <point x="486" y="0" type="line"/>
      <point x="486" y="44" type="line"/>
      <point x="439" y="51" type="line"/>
      <point x="439" y="254" type="line" smooth="yes"/>
      <point x="439" y="281"/>
      <point x="437" y="306"/>
      <point x="433" y="327" type="curve"/>
      <point x="453" y="342"/>
      <point x="485" y="358"/>
      <point x="515" y="358" type="curve" smooth="yes"/>
      <point x="571" y="358"/>
      <point x="583" y="326"/>
      <point x="583" y="252" type="curve" smooth="yes"/>
      <point x="583" y="51" type="line"/>
      <point x="544" y="44" type="line"/>
      <point x="544" y="0" type="line"/>
      <point x="734" y="0" type="line"/>
      <point x="734" y="44" type="line"/>
      <point x="686" y="50" type="line"/>
      <point x="686" y="255" type="line" smooth="yes"/>
      <point x="686" y="369"/>
      <point x="656" y="420"/>
      <point x="565" y="420" type="curve" smooth="yes"/>
      <point x="511" y="420"/>
      <point x="452" y="392"/>
      <point x="422" y="365" type="curve"/>
      <point x="405" y="403"/>
      <point x="374" y="420"/>
      <point x="320" y="420" type="curve" smooth="yes"/>
      <point x="275" y="420"/>
      <point x="204" y="392"/>
      <point x="172" y="361" type="curve"/>
      <point x="172" y="378" type="line"/>
      <point x="172" y="407" type="line"/>
      <point x="154" y="421" type="line"/>
      <point x="153" y="421" type="line"/>
      <point x="32" y="406" type="line"/>
      <point x="32" y="355" type="line"/>
      <point x="79" y="341" type="line"/>
      <point x="79" y="50" type="line"/>
      <point x="37" y="44" type="line"/>
    </contour>
  </outline>
</glyph>
<glyph name="n" format="1">
  <advance width="505"/>
  <unicode hex="006E"/>
  <outline>
    <contour>
      <point x="36" y="0" type="line"/>
      <point x="228" y="0" type="line"/>
      <point x="228" y="44" type="line"/>
      <point x="183" y="51" type="line"/>
      <point x="183" y="322" type="line"/>
      <point x="203" y="339"/>
      <point x="239" y="358"/>
      <point x="273" y="358" type="curve" smooth="yes"/>
      <point x="327" y="358"/>
      <point x="337" y="326"/>
      <point x="337" y="254" type="curve" smooth="yes"/>
      <point x="337" y="51" type="line"/>
      <point x="296" y="44" type="line"/>
      <point x="296" y="0" type="line"/>
      <point x="487" y="0" type="line"/>
      <point x="487" y="44" type="line"/>
      <point x="440" y="51" type="line"/>
      <point x="440" y="254" type="line" smooth="yes"/>
      <point x="440" y="373"/>
      <point x="413" y="420"/>
      <point x="322" y="420" type="curve" smooth="yes"/>
      <point x="264" y="420"/>
      <point x="203" y="390"/>
      <point x="172" y="361" type="curve"/>
      <point x="172" y="378" type="line"/>
      <point x="172" y="407" type="line"/>
      <point x="154" y="421" type="line"/>
      <point x="153" y="421" type="line"/>
      <point x="32" y="406" type="line"/>
      <point x="32" y="355" type="line"/>
      <point x="79" y="341" type="line"/>
      <point x="79" y="50" type="line"/>
      <point x="36" y="44" type="line"/>
    </contour>
  </outline>
</glyph>
<glyph name="o" format="1">
  <advance width="448"/>
  <unicode hex="006F"/>
  <outline>
    <contour>
      <point x="224" y="40" type="curve" smooth="yes"/>
      <point x="162" y="40"/>
      <point x="137" y="106"/>
      <point x="137" y="213" type="curve" smooth="yes"/>
      <point x="137" y="323"/>
      <point x="166" y="374"/>
      <point x="223" y="374" type="curve" smooth="yes"/>
      <point x="287" y="374"/>
      <point x="310" y="307"/>
      <point x="310" y="201" type="curve" smooth="yes"/>
      <point x="310" y="92"/>
      <point x="281" y="40"/>
    </contour>
    <contour>
      <point x="26" y="205" type="curve" smooth="yes"/>
      <point x="26" y="78"/>
      <point x="93" y="-8"/>
      <point x="218" y="-8" type="curve" smooth="yes"/>
      <point x="324" y="-8"/>
      <point x="422" y="63"/>
      <point x="422" y="209" type="curve" smooth="yes"/>
      <point x="422" y="336"/>
      <point x="355" y="422"/>
      <point x="228" y="422" type="curve" smooth="yes"/>
      <point x="123" y="422"/>
      <point x="26" y="348"/>
    </contour>
  </outline>
</glyph>
<glyph name="p" format="1">
  <advance width="471"/>
  <unicode hex="0070"/>
  <outline>
    <contour>
      <point x="443" y="220" type="curve" smooth="yes"/>
      <point x="443" y="364"/>
      <point x="368" y="422"/>
      <point x="282" y="422" type="curve" smooth="yes"/>
      <point x="226" y="422"/>
      <point x="184" y="392"/>
      <point x="162" y="366" type="curve"/>
      <point x="162" y="407" type="line"/>
      <point x="144" y="421" type="line"/>
      <point x="142" y="421" type="line"/>
      <point x="23" y="406" type="line"/>
      <point x="23" y="355" type="line"/>
      <point x="71" y="341" type="line"/>
      <point x="71" y="-128" type="line"/>
      <point x="22" y="-137" type="line"/>
      <point x="22" y="-179" type="line"/>
      <point x="240" y="-179" type="line"/>
      <point x="240" y="-137" type="line"/>
      <point x="171" y="-128" type="line"/>
      <point x="171" y="-60" type="line"/>
      <point x="169" y="0" type="line"/>
      <point x="183" y="-4"/>
      <point x="208" y="-8"/>
      <point x="227" y="-8" type="curve" smooth="yes"/>
      <point x="365" y="-8"/>
      <point x="443" y="97"/>
    </contour>
    <contour>
      <point x="243" y="361" type="curve" smooth="yes"/>
      <point x="295" y="361"/>
      <point x="336" y="316"/>
      <point x="335" y="207" type="curve"/>
      <point x="334" y="83"/>
      <point x="287" y="37"/>
      <point x="229" y="37" type="curve" smooth="yes"/>
      <point x="201" y="37"/>
      <point x="177" y="47"/>
      <point x="171" y="56" type="curve"/>
      <point x="171" y="330" type="line"/>
      <point x="184" y="344"/>
      <point x="211" y="361"/>
    </contour>
  </outline>
</glyph>
<glyph name="q" format="1">
  <advance width="455"/>
  <unicode hex="0071"/>
  <outline>
    <contour>
      <point x="188" y="-8" type="curve" smooth="yes"/>
      <point x="237" y="-8"/>
      <point x="278" y="14"/>
      <point x="303" y="40" type="curve"/>
      <point x="301" y="-17" type="line"/>
      <point x="301" y="-129" type="line"/>
      <point x="223" y="-137" type="line"/>
      <point x="223" y="-179" type="line"/>
      <point x="452" y="-179" type="line"/>
      <point x="452" y="-137" type="line"/>
      <point x="401" y="-129" type="line"/>
      <point x="401" y="407" type="line"/>
      <point x="386" y="419" type="line"/>
      <point x="385" y="419" type="line"/>
      <point x="334" y="409" type="line"/>
      <point x="313" y="415"/>
      <point x="278" y="422"/>
      <point x="246" y="422" type="curve" smooth="yes"/>
      <point x="105" y="422"/>
      <point x="27" y="320"/>
      <point x="27" y="197" type="curve" smooth="yes"/>
      <point x="27" y="54"/>
      <point x="102" y="-8"/>
    </contour>
    <contour>
      <point x="228" y="52" type="curve" smooth="yes"/>
      <point x="176" y="52"/>
      <point x="135" y="100"/>
      <point x="136" y="209" type="curve" smooth="yes"/>
      <point x="137" y="333"/>
      <point x="183" y="377"/>
      <point x="240" y="377" type="curve" smooth="yes"/>
      <point x="269" y="377"/>
      <point x="295" y="367"/>
      <point x="301" y="357" type="curve"/>
      <point x="301" y="84" type="line"/>
      <point x="288" y="70"/>
      <point x="262" y="52"/>
    </contour>
  </outline>
</glyph>
<glyph name="r" format="1">
  <advance width="348"/>
  <unicode hex="0072"/>
  <outline>
    <contour>
      <point x="32" y="0" type="line"/>
      <point x="274" y="0" type="line"/>
      <point x="274" y="43" type="line"/>
      <point x="185" y="51" type="line"/>
      <point x="185" y="297" type="line"/>
      <point x="202" y="309"/>
      <point x="235" y="324"/>
      <point x="280" y="324" type="curve" smooth="yes"/>
      <point x="304" y="324"/>
      <point x="319" y="318"/>
      <point x="332" y="310" type="curve"/>
      <point x="332" y="417" type="line"/>
      <point x="326" y="420"/>
      <point x="316" y="422"/>
      <point x="305" y="422" type="curve" smooth="yes"/>
      <point x="231" y="422"/>
      <point x="180" y="354"/>
      <point x="171" y="331" type="curve"/>
      <point x="170" y="331" type="line"/>
      <point x="171" y="384" type="line"/>
      <point x="171" y="407" type="line"/>
      <point x="152" y="421" type="line"/>
      <point x="150" y="421" type="line"/>
      <point x="37" y="406" type="line"/>
      <point x="37" y="355" type="line"/>
      <point x="84" y="341" type="line"/>
      <point x="84" y="51" type="line"/>
      <point x="32" y="43" type="line"/>
    </contour>
  </outline>
</glyph>
<glyph name="s" format="1">
  <advance width="384"/>
  <unicode hex="0073"/>
  <outline>
    <contour>
      <point x="40" y="22" type="line"/>
      <point x="66" y="14"/>
      <point x="124" y="-8"/>
      <point x="191" y="-8" type="curve" smooth="yes"/>
      <point x="300" y="-8"/>
      <point x="356" y="44"/>
      <point x="356" y="114" type="curve" smooth="yes"/>
      <point x="356" y="191"/>
      <point x="294" y="221"/>
      <point x="229" y="248" type="curve" smooth="yes"/>
      <point x="181" y="270"/>
      <point x="134" y="284"/>
      <point x="134" y="328" type="curve" smooth="yes"/>
      <point x="134" y="357"/>
      <point x="158" y="377"/>
      <point x="201" y="377" type="curve" smooth="yes"/>
      <point x="229" y="377"/>
      <point x="251" y="366"/>
      <point x="257" y="356" type="curve"/>
      <point x="274" y="302" type="line"/>
      <point x="331" y="302" type="line"/>
      <point x="331" y="398" type="line"/>
      <point x="309" y="402"/>
      <point x="269" y="421"/>
      <point x="199" y="421" type="curve" smooth="yes"/>
      <point x="103" y="421"/>
      <point x="41" y="373"/>
      <point x="41" y="306" type="curve" smooth="yes"/>
      <point x="41" y="240"/>
      <point x="76" y="204"/>
      <point x="145" y="175" type="curve" smooth="yes"/>
      <point x="213" y="145"/>
      <point x="258" y="128"/>
      <point x="258" y="89" type="curve" smooth="yes"/>
      <point x="258" y="59"/>
      <point x="240" y="36"/>
      <point x="189" y="36" type="curve" smooth="yes"/>
      <point x="158" y="36"/>
      <point x="125" y="50"/>
      <point x="117" y="63" type="curve"/>
      <point x="101" y="119" type="line"/>
      <point x="40" y="119" type="line"/>
    </contour>
  </outline>
</glyph>
<glyph name="u" format="1">
  <advance width="475"/>
  <unicode hex="0075"/>
  <outline>
    <contour>
      <point x="370" y="-8" type="curve" smooth="yes"/>
      <point x="406" y="-8"/>
      <point x="435" y="0"/>
      <point x="453" y="4" type="curve"/>
      <point x="453" y="46" type="line"/>
      <point x="412" y="46" type="line"/>
      <point x="412" y="410" type="line"/>
      <point x="393" y="421" type="line"/>
      <point x="262" y="410" type="line"/>
      <point x="262" y="370" type="line"/>
      <point x="311" y="358" type="line"/>
      <point x="311" y="84" type="line"/>
      <point x="296" y="73"/>
      <point x="268" y="53"/>
      <point x="228" y="53" type="curve" smooth="yes"/>
      <point x="179" y="53"/>
      <point x="165" y="78"/>
      <point x="165" y="150" type="curve" smooth="yes"/>
      <point x="165" y="410" type="line"/>
      <point x="149" y="421" type="line"/>
      <point x="25" y="410" type="line"/>
      <point x="25" y="369" type="line"/>
      <point x="64" y="358" type="line"/>
      <point x="64" y="150" type="line"/>
      <point x="64" y="36"/>
      <point x="101" y="-8"/>
      <point x="194" y="-8" type="curve" smooth="yes"/>
      <point x="246" y="-8"/>
      <point x="297" y="23"/>
      <point x="322" y="51" type="curve"/>
      <point x="322" y="33" type="line"/>
      <point x="322" y="5"/>
      <point x="337" y="-8"/>
    </contour>
  </outline>
</glyph>
<glyph name="v" format="1">
  <advance width="423"/>
  <unicode hex="0076"/>
  <outline>
    <contour>
      <point x="175" y="-6" type="line"/>
      <point x="258" y="-6" type="line"/>
      <point x="396" y="359" type="line"/>
      <point x="434" y="369" type="line"/>
      <point x="434" y="412" type="line"/>
      <point x="272" y="412" type="line"/>
      <point x="272" y="369" type="line"/>
      <point x="320" y="359" type="line"/>
      <point x="254" y="157" type="line"/>
      <point x="234" y="76" type="line"/>
      <point x="208" y="159" type="line"/>
      <point x="142" y="359" type="line"/>
      <point x="192" y="369" type="line"/>
      <point x="192" y="412" type="line"/>
      <point x="-4" y="412" type="line"/>
      <point x="-4" y="369" type="line"/>
      <point x="27" y="359" type="line"/>
    </contour>
  </outline>
</glyph>
<glyph name="w" format="1">
  <advance width="630"/>
  <unicode hex="0077"/>
  <outline>
    <contour>
      <point x="146" y="-6" type="line"/>
      <point x="231" y="-6" type="line"/>
      <point x="303" y="241" type="line"/>
      <point x="316" y="327" type="line"/>
      <point x="332" y="241" type="line"/>
      <point x="408" y="-6" type="line"/>
      <point x="493" y="-6" type="line"/>
      <point x="606" y="360" type="line"/>
      <point x="642" y="369" type="line"/>
      <point x="642" y="411" type="line"/>
      <point x="483" y="411" type="line"/>
      <point x="483" y="369" type="line"/>
      <point x="539" y="359" type="line"/>
      <point x="486" y="160" type="line"/>
      <point x="468" y="78" type="line"/>
      <point x="451" y="161" type="line"/>
      <point x="376" y="411" type="line"/>
      <point x="288" y="411" type="line"/>
      <point x="219" y="161" type="line"/>
      <point x="202" y="78" type="line"/>
      <point x="185" y="161" type="line"/>
      <point x="130" y="360" type="line"/>
      <point x="184" y="369" type="line"/>
      <point x="184" y="411" type="line"/>
      <point x="-6" y="411" type="line"/>
      <point x="-6" y="369" type="line"/>
      <point x="29" y="360" type="line"/>
    </contour>
  </outline>
</glyph>
<glyph name="x" format="1">
  <advance width="446"/>
  <unicode hex="0078"/>
  <outline>
    <contour>
      <point x="2" y="0" type="line"/>
      <point x="181" y="0" type="line"/>
      <point x="181" y="43" type="line"/>
      <point x="124" y="51" type="line"/>
      <point x="185" y="138" type="line"/>
      <point x="202" y="171" type="line"/>
      <point x="224" y="138" type="line"/>
      <point x="282" y="51" type="line"/>
      <point x="239" y="43" type="line"/>
      <point x="239" y="0" type="line"/>
      <point x="449" y="0" type="line"/>
      <point x="449" y="43" type="line"/>
      <point x="407" y="50" type="line"/>
      <point x="280" y="215" type="line"/>
      <point x="396" y="360" type="line"/>
      <point x="440" y="369" type="line"/>
      <point x="440" y="412" type="line"/>
      <point x="278" y="412" type="line"/>
      <point x="278" y="369" type="line"/>
      <point x="328" y="360" type="line"/>
      <point x="269" y="277" type="line"/>
      <point x="250" y="246" type="line"/>
      <point x="230" y="278" type="line"/>
      <point x="172" y="360" type="line"/>
      <point x="220" y="369" type="line"/>
      <point x="220" y="412" type="line"/>
      <point x="9" y="412" type="line"/>
      <point x="9" y="369" type="line"/>
      <point x="49" y="360" type="line"/>
      <point x="171" y="203" type="line"/>
      <point x="50" y="51" type="line"/>
      <point x="2" y="43" type="line"/>
    </contour>
  </outline>
</glyph>
<glyph name="y" format="1">
  <advance width="426"/>
  <unicode hex="0079"/>
  <outline>
    <contour>
      <point x="99" y="-184" type="curve" smooth="yes"/>
      <point x="184" y="-184"/>
      <point x="225" y="-123"/>
      <point x="268" y="-11" type="curve"/>
      <point x="277" y="9"/>
      <point x="337" y="180"/>
      <point x="395" y="360" type="curve"/>
      <point x="431" y="369" type="line"/>
      <point x="431" y="412" type="line"/>
      <point x="272" y="412" type="line"/>
      <point x="272" y="369" type="line"/>
      <point x="319" y="360" type="line"/>
      <point x="258" y="152" type="line"/>
      <point x="234" y="62" type="line"/>
      <point x="207" y="152" type="line"/>
      <point x="141" y="360" type="line"/>
      <point x="195" y="369" type="line"/>
      <point x="195" y="412" type="line"/>
      <point x="-7" y="412" type="line"/>
      <point x="-7" y="369" type="line"/>
      <point x="27" y="359" type="line"/>
      <point x="164" y="0" type="line"/>
      <point x="206" y="0" type="line"/>
      <point x="176" y="-83"/>
      <point x="144" y="-108"/>
      <point x="98" y="-108" type="curve" smooth="yes"/>
      <point x="82" y="-108"/>
      <point x="57" y="-104"/>
      <point x="50" y="-99" type="curve"/>
      <point x="50" y="-178" type="line"/>
      <point x="59" y="-181"/>
      <point x="82" y="-184"/>
    </contour>
  </outline>
</glyph>
<glyph name="z" format="1">
  <advance width="414"/>
  <unicode hex="007A"/>
  <outline>
    <contour>
      <point x="18" y="37" type="line"/>
      <point x="36" y="0" type="line"/>
      <point x="379" y="0" type="line"/>
      <point x="388" y="132" type="line"/>
      <point x="337" y="137" type="line"/>
      <point x="307" y="55" type="line"/>
      <point x="139" y="47" type="line"/>
      <point x="189" y="98" type="line"/>
      <point x="386" y="375" type="line"/>
      <point x="369" y="412" type="line"/>
      <point x="47" y="412" type="line"/>
      <point x="47" y="287" type="line"/>
      <point x="101" y="287" type="line"/>
      <point x="118" y="358" type="line"/>
      <point x="272" y="364" type="line"/>
      <point x="220" y="310" type="line"/>
    </contour>
  </outline>
</glyph>
<glyph name="braceleft" format="1">
  <advance width="380"/>
  <unicode hex="007B"/>
  <outline>
    <contour>
      <point x="103" y="-7" type="curve" smooth="yes"/>
      <point x="103" y="-67"/>
      <point x="133" y="-103"/>
      <point x="224" y="-103" type="curve" smooth="yes"/>
      <point x="263" y="-103"/>
      <point x="296" y="-96"/>
      <point x="327" y="-88" type="curve"/>
      <point x="327" y="-47" type="line"/>
      <point x="268" y="-47" type="line" smooth="yes"/>
      <point x="228" y="-47"/>
      <point x="201" y="-38"/>
      <point x="201" y="10" type="curve" smooth="yes"/>
      <point x="201" y="52"/>
      <point x="237" y="114"/>
      <point x="237" y="165" type="curve" smooth="yes"/>
      <point x="237" y="216"/>
      <point x="193" y="241"/>
      <point x="139" y="249" type="curve"/>
      <point x="193" y="257"/>
      <point x="237" y="279"/>
      <point x="237" y="331" type="curve" smooth="yes"/>
      <point x="237" y="382"/>
      <point x="201" y="444"/>
      <point x="201" y="486" type="curve" smooth="yes"/>
      <point x="201" y="534"/>
      <point x="228" y="544"/>
      <point x="268" y="544" type="curve" smooth="yes"/>
      <point x="327" y="543" type="line"/>
      <point x="327" y="584" type="line"/>
      <point x="296" y="591"/>
      <point x="263" y="598"/>
      <point x="224" y="598" type="curve" smooth="yes"/>
      <point x="134" y="598"/>
      <point x="103" y="563"/>
      <point x="103" y="502" type="curve" smooth="yes"/>
      <point x="103" y="434"/>
      <point x="154" y="391"/>
      <point x="154" y="330" type="curve" smooth="yes"/>
      <point x="154" y="297"/>
      <point x="149" y="281"/>
      <point x="61" y="281" type="curve"/>
      <point x="61" y="221" type="line"/>
      <point x="149" y="221"/>
      <point x="154" y="198"/>
      <point x="154" y="163" type="curve" smooth="yes"/>
      <point x="154" y="103"/>
      <point x="103" y="61"/>
    </contour>
  </outline>
</glyph>
<glyph name="bar" format="1">
  <advance width="313"/>
  <unicode hex="007C"/>
  <outline>
    <contour>
      <point x="120" y="-67" type="line"/>
      <point x="194" y="-67" type="line"/>
      <point x="194" y="644" type="line"/>
      <point x="120" y="644" type="line"/>
    </contour>
  </outline>
</glyph>
<glyph name="braceright" format="1">
  <advance width="380"/>
  <unicode hex="007D"/>
  <outline>
    <contour>
      <point x="276" y="-7" type="curve" smooth="yes"/>
      <point x="276" y="-67"/>
      <point x="247" y="-103"/>
      <point x="156" y="-103" type="curve" smooth="yes"/>
      <point x="117" y="-103"/>
      <point x="83" y="-96"/>
      <point x="53" y="-88" type="curve"/>
      <point x="53" y="-47" type="line"/>
      <point x="112" y="-47" type="line" smooth="yes"/>
      <point x="152" y="-47"/>
      <point x="179" y="-38"/>
      <point x="179" y="10" type="curve" smooth="yes"/>
      <point x="179" y="52"/>
      <point x="143" y="114"/>
      <point x="143" y="165" type="curve" smooth="yes"/>
      <point x="143" y="216"/>
      <point x="186" y="241"/>
      <point x="241" y="249" type="curve"/>
      <point x="186" y="257"/>
      <point x="143" y="279"/>
      <point x="143" y="331" type="curve" smooth="yes"/>
      <point x="143" y="382"/>
      <point x="179" y="444"/>
      <point x="179" y="486" type="curve" smooth="yes"/>
      <point x="179" y="534"/>
      <point x="151" y="544"/>
      <point x="112" y="544" type="curve" smooth="yes"/>
      <point x="53" y="543" type="line"/>
      <point x="53" y="584" type="line"/>
      <point x="83" y="591"/>
      <point x="117" y="598"/>
      <point x="156" y="598" type="curve" smooth="yes"/>
      <point x="246" y="598"/>
      <point x="276" y="563"/>
      <point x="276" y="502" type="curve" smooth="yes"/>
      <point x="276" y="434"/>
      <point x="226" y="391"/>
      <point x="226" y="330" type="curve" smooth="yes"/>
      <point x="226" y="297"/>
      <point x="231" y="281"/>
      <point x="319" y="281" type="curve"/>
      <point x="319" y="221" type="line"/>
      <point x="231" y="221"/>
      <point x="226" y="198"/>
      <point x="226" y="163" type="curve" smooth="yes"/>
      <point x="226" y="103"/>
      <point x="276" y="61"/>
    </contour>
  </outline>
</glyph>
<glyph name="asciitilde" format="1">
  <advance width="514"/>
  <unicode hex="007E"/>
  <outline>
    <contour>
      <point x="108" y="175" type="line"/>
      <point x="126" y="195"/>
      <point x="151" y="215"/>
      <point x="185" y="215" type="curve" smooth="yes"/>
      <point x="232" y="215"/>
      <point x="256" y="153"/>
      <point x="320" y="153" type="curve" smooth="yes"/>
      <point x="374" y="153"/>
      <point x="418" y="190"/>
      <point x="438" y="226" type="curve"/>
      <point x="404" y="265" type="line"/>
      <point x="387" y="245"/>
      <point x="366" y="224"/>
      <point x="330" y="224" type="curve" smooth="yes"/>
      <point x="288" y="224"/>
      <point x="260" y="286"/>
      <point x="192" y="286" type="curve" smooth="yes"/>
      <point x="138" y="286"/>
      <point x="92" y="246"/>
      <point x="75" y="214" type="curve"/>
    </contour>
  </outline>
</glyph>
<glyph name="exclamdown" format="1">
  <advance width="262"/>
  <unicode hex="00A1"/>
  <outline>
    <contour>
      <point x="118" y="334" type="line"/>
      <point x="55" y="334" type="line"/>
      <point x="33" y="-38" type="line"/>
      <point x="145" y="-38" type="line"/>
    </contour>
    <contour>
      <point x="147" y="461" type="curve" smooth="yes"/>
      <point x="147" y="495"/>
      <point x="121" y="519"/>
      <point x="85" y="519" type="curve" smooth="yes"/>
      <point x="51" y="519"/>
      <point x="23" y="496"/>
      <point x="23" y="462" type="curve" smooth="yes"/>
      <point x="23" y="429"/>
      <point x="47" y="403"/>
      <point x="85" y="403" type="curve" smooth="yes"/>
      <point x="121" y="403"/>
      <point x="147" y="427"/>
    </contour>
  </outline>
</glyph>
<glyph name="cent" format="1">
  <advance width="430"/>
  <unicode hex="00A2"/>
  <outline>
    <contour>
      <point x="42" y="201" type="curve"/>
      <point x="42" y="95"/>
      <point x="87" y="14"/>
      <point x="187" y="-5" type="curve"/>
      <point x="183" y="-88" type="line"/>
      <point x="241" y="-88" type="line"/>
      <point x="245" y="-7" type="line"/>
      <point x="303" y="-3"/>
      <point x="354" y="26"/>
      <point x="374" y="48" type="curve"/>
      <point x="356" y="86" type="line"/>
      <point x="334" y="72"/>
      <point x="300" y="56"/>
      <point x="255" y="56" type="curve" smooth="yes"/>
      <point x="194" y="56"/>
      <point x="149" y="110"/>
      <point x="150" y="226" type="curve" smooth="yes"/>
      <point x="151" y="332"/>
      <point x="188" y="375"/>
      <point x="239" y="375" type="curve" smooth="yes"/>
      <point x="260" y="375"/>
      <point x="281" y="369"/>
      <point x="285" y="353" type="curve"/>
      <point x="303" y="278" type="line"/>
      <point x="366" y="278" type="line"/>
      <point x="370" y="400" type="line"/>
      <point x="351" y="403"/>
      <point x="321" y="417"/>
      <point x="276" y="421" type="curve"/>
      <point x="280" y="497" type="line"/>
      <point x="222" y="497" type="line"/>
      <point x="218" y="420" type="line"/>
      <point x="106" y="405"/>
      <point x="41" y="317"/>
    </contour>
  </outline>
</glyph>
<glyph name="sterling" format="1">
  <advance width="561"/>
  <unicode hex="00A3"/>
  <outline>
    <contour>
      <point x="72" y="268" type="line"/>
      <point x="142" y="268" type="line"/>
      <point x="142" y="185" type="line" smooth="yes"/>
      <point x="142" y="146"/>
      <point x="137" y="106"/>
      <point x="128" y="94" type="curve"/>
      <point x="84" y="95"/>
      <point x="37" y="69"/>
      <point x="37" y="36" type="curve" smooth="yes"/>
      <point x="37" y="10"/>
      <point x="58" y="0"/>
      <point x="79" y="0" type="curve" smooth="yes"/>
      <point x="109" y="0"/>
      <point x="134" y="19"/>
      <point x="155" y="41" type="curve"/>
      <point x="215" y="40"/>
      <point x="278" y="-5"/>
      <point x="372" y="-5" type="curve" smooth="yes"/>
      <point x="468" y="-5"/>
      <point x="528" y="59"/>
      <point x="528" y="131" type="curve" smooth="yes"/>
      <point x="528" y="162"/>
      <point x="519" y="183"/>
      <point x="511" y="191" type="curve"/>
      <point x="407" y="191" type="line"/>
      <point x="418" y="181"/>
      <point x="428" y="153"/>
      <point x="428" y="124" type="curve" smooth="yes"/>
      <point x="428" y="78"/>
      <point x="412" y="55"/>
      <point x="351" y="55" type="curve" smooth="yes"/>
      <point x="299" y="55"/>
      <point x="245" y="76"/>
      <point x="201" y="81" type="curve"/>
      <point x="231" y="107"/>
      <point x="249" y="140"/>
      <point x="249" y="200" type="curve" smooth="yes"/>
      <point x="249" y="268" type="line"/>
      <point x="352" y="268" type="line"/>
      <point x="352" y="317" type="line"/>
      <point x="249" y="317" type="line"/>
      <point x="249" y="389" type="line" smooth="yes"/>
      <point x="249" y="489"/>
      <point x="286" y="503"/>
      <point x="320" y="503" type="curve" smooth="yes"/>
      <point x="370" y="503"/>
      <point x="408" y="467"/>
      <point x="414" y="454" type="curve"/>
      <point x="461" y="520" type="line"/>
      <point x="432" y="543"/>
      <point x="391" y="557"/>
      <point x="336" y="557" type="curve" smooth="yes"/>
      <point x="230" y="557"/>
      <point x="142" y="482"/>
      <point x="142" y="370" type="curve" smooth="yes"/>
      <point x="142" y="317" type="line"/>
      <point x="72" y="317" type="line"/>
    </contour>
  </outline>
</glyph>
<glyph name="currency" format="1">
  <advance width="559"/>
  <unicode hex="00A4"/>
  <outline>
    <contour>
      <point x="67" y="105" type="line"/>
      <point x="112" y="59" type="line"/>
      <point x="193" y="140" type="line"/>
      <point x="217" y="125"/>
      <point x="247" y="116"/>
      <point x="279" y="116" type="curve" smooth="yes"/>
      <point x="310" y="116"/>
      <point x="340" y="126"/>
      <point x="365" y="141" type="curve"/>
      <point x="446" y="60" type="line"/>
      <point x="491" y="106" type="line"/>
      <point x="411" y="185" type="line"/>
      <point x="430" y="213"/>
      <point x="442" y="247"/>
      <point x="442" y="284" type="curve" smooth="yes"/>
      <point x="442" y="318"/>
      <point x="430" y="351"/>
      <point x="413" y="376" type="curve"/>
      <point x="492" y="455" type="line"/>
      <point x="446" y="500" type="line"/>
      <point x="365" y="419" type="line"/>
      <point x="340" y="434"/>
      <point x="310" y="444"/>
      <point x="279" y="444" type="curve" smooth="yes"/>
      <point x="247" y="444"/>
      <point x="218" y="434"/>
      <point x="193" y="418" type="curve"/>
      <point x="111" y="500" type="line"/>
      <point x="67" y="454" type="line"/>
      <point x="148" y="374" type="line"/>
      <point x="129" y="345"/>
      <point x="119" y="312"/>
      <point x="119" y="276" type="curve" smooth="yes"/>
      <point x="119" y="241"/>
      <point x="129" y="209"/>
      <point x="146" y="183" type="curve"/>
    </contour>
    <contour>
      <point x="279" y="188" type="curve" smooth="yes"/>
      <point x="233" y="188"/>
      <point x="194" y="228"/>
      <point x="194" y="278" type="curve" smooth="yes"/>
      <point x="194" y="327"/>
      <point x="222" y="371"/>
      <point x="277" y="371" type="curve" smooth="yes"/>
      <point x="323" y="371"/>
      <point x="364" y="330"/>
      <point x="364" y="278" type="curve" smooth="yes"/>
      <point x="364" y="228"/>
      <point x="338" y="188"/>
    </contour>
  </outline>
</glyph>
<glyph name="yen" format="1">
  <advance width="592"/>
  <unicode hex="00A5"/>
  <outline>
    <contour>
      <point x="92" y="252" type="line"/>
      <point x="253" y="252" type="line"/>
      <point x="253" y="170" type="line"/>
      <point x="92" y="170" type="line"/>
      <point x="92" y="124" type="line"/>
      <point x="253" y="124" type="line"/>
      <point x="253" y="51" type="line"/>
      <point x="176" y="41" type="line"/>
      <point x="176" y="0" type="line"/>
      <point x="436" y="0" type="line"/>
      <point x="436" y="41" type="line"/>
      <point x="355" y="51" type="line"/>
      <point x="355" y="124" type="line"/>
      <point x="517" y="124" type="line"/>
      <point x="517" y="170" type="line"/>
      <point x="355" y="170" type="line"/>
      <point x="355" y="252" type="line"/>
      <point x="517" y="252" type="line"/>
      <point x="517" y="297" type="line"/>
      <point x="379" y="297" type="line"/>
      <point x="496" y="498" type="line"/>
      <point x="549" y="508" type="line"/>
      <point x="549" y="550" type="line"/>
      <point x="367" y="550" type="line"/>
      <point x="367" y="508" type="line"/>
      <point x="425" y="499" type="line"/>
      <point x="344" y="342" type="line"/>
      <point x="321" y="300" type="line"/>
      <point x="301" y="342" type="line"/>
      <point x="218" y="499" type="line"/>
      <point x="271" y="508" type="line"/>
      <point x="271" y="550" type="line"/>
      <point x="47" y="550" type="line"/>
      <point x="47" y="508" type="line"/>
      <point x="97" y="498" type="line"/>
      <point x="225" y="297" type="line"/>
      <point x="92" y="297" type="line"/>
    </contour>
  </outline>
</glyph>
<glyph name="brokenbar" format="1">
  <advance width="313"/>
  <unicode hex="00A6"/>
  <outline>
    <contour>
      <point x="120" y="-67" type="line"/>
      <point x="194" y="-67" type="line"/>
      <point x="194" y="232" type="line"/>
      <point x="120" y="232" type="line"/>
    </contour>
    <contour>
      <point x="120" y="344" type="line"/>
      <point x="194" y="344" type="line"/>
      <point x="194" y="644" type="line"/>
      <point x="120" y="644" type="line"/>
    </contour>
  </outline>
</glyph>
<glyph name="section" format="1">
  <advance width="503"/>
  <unicode hex="00A7"/>
  <outline>
    <contour>
      <point x="70" y="-39" type="line"/>
      <point x="93" y="-41"/>
      <point x="159" y="-73"/>
      <point x="244" y="-73" type="curve" smooth="yes"/>
      <point x="375" y="-73"/>
      <point x="429" y="-8"/>
      <point x="429" y="53" type="curve" smooth="yes"/>
      <point x="429" y="89"/>
      <point x="412" y="117"/>
      <point x="389" y="139" type="curve"/>
      <point x="419" y="166"/>
      <point x="442" y="201"/>
      <point x="442" y="251" type="curve" smooth="yes"/>
      <point x="442" y="346"/>
      <point x="328" y="391"/>
      <point x="276" y="414" type="curve"/>
      <point x="215" y="440"/>
      <point x="170" y="457"/>
      <point x="170" y="506" type="curve" smooth="yes"/>
      <point x="170" y="540"/>
      <point x="199" y="560"/>
      <point x="254" y="560" type="curve" smooth="yes"/>
      <point x="292" y="560"/>
      <point x="320" y="547"/>
      <point x="326" y="540" type="curve"/>
      <point x="347" y="468" type="line"/>
      <point x="402" y="468" type="line"/>
      <point x="406" y="582" type="line"/>
      <point x="383" y="586"/>
      <point x="328" y="609"/>
      <point x="260" y="609" type="curve" smooth="yes"/>
      <point x="150" y="609"/>
      <point x="82" y="560"/>
      <point x="82" y="488" type="curve" smooth="yes"/>
      <point x="82" y="450"/>
      <point x="97" y="422"/>
      <point x="120" y="399" type="curve"/>
      <point x="86" y="372"/>
      <point x="65" y="342"/>
      <point x="65" y="301" type="curve" smooth="yes"/>
      <point x="65" y="212"/>
      <point x="128" y="161"/>
      <point x="223" y="122" type="curve"/>
      <point x="291" y="96"/>
      <point x="341" y="77"/>
      <point x="341" y="32" type="curve" smooth="yes"/>
      <point x="341" y="-2"/>
      <point x="311" y="-27"/>
      <point x="247" y="-27" type="curve" smooth="yes"/>
      <point x="205" y="-27"/>
      <point x="165" y="-11"/>
      <point x="153" y="5" type="curve"/>
      <point x="138" y="85" type="line"/>
      <point x="77" y="85" type="line"/>
    </contour>
    <contour>
      <point x="270" y="206" type="curve" smooth="yes"/>
      <point x="192" y="239"/>
      <point x="135" y="270"/>
      <point x="135" y="323" type="curve" smooth="yes"/>
      <point x="135" y="343"/>
      <point x="141" y="358"/>
      <point x="155" y="371" type="curve"/>
      <point x="182" y="353"/>
      <point x="212" y="340"/>
      <point x="238" y="329" type="curve" smooth="yes"/>
      <point x="314" y="296"/>
      <point x="365" y="269"/>
      <point x="365" y="216" type="curve" smooth="yes"/>
      <point x="365" y="197"/>
      <point x="359" y="182"/>
      <point x="349" y="168" type="curve"/>
      <point x="322" y="185"/>
      <point x="293" y="196"/>
    </contour>
  </outline>
</glyph>
<glyph name="dieresis" format="1">
  <advance width="370"/>
  <unicode hex="00A8"/>
  <outline>
    <contour>
      <point x="91" y="487" type="curve"/>
      <point x="134" y="487"/>
      <point x="153" y="515"/>
      <point x="153" y="550" type="curve" smooth="yes"/>
      <point x="153" y="578"/>
      <point x="136" y="604"/>
      <point x="100" y="604" type="curve"/>
      <point x="60" y="604"/>
      <point x="41" y="575"/>
      <point x="41" y="540" type="curve" smooth="yes"/>
      <point x="41" y="511"/>
      <point x="60" y="487"/>
    </contour>
    <contour>
      <point x="267" y="487" type="curve"/>
      <point x="310" y="487"/>
      <point x="330" y="515"/>
      <point x="330" y="550" type="curve" smooth="yes"/>
      <point x="330" y="578"/>
      <point x="312" y="604"/>
      <point x="276" y="604" type="curve"/>
      <point x="237" y="604"/>
      <point x="218" y="575"/>
      <point x="218" y="540" type="curve" smooth="yes"/>
      <point x="218" y="514"/>
      <point x="237" y="487"/>
    </contour>
  </outline>
</glyph>
<glyph name="copyright" format="1">
  <advance width="770"/>
  <unicode hex="00A9"/>
  <outline>
    <contour>
      <point x="71" y="362" type="curve" smooth="yes"/>
      <point x="71" y="186"/>
      <point x="210" y="46"/>
      <point x="386" y="46" type="curve" smooth="yes"/>
      <point x="561" y="46"/>
      <point x="699" y="186"/>
      <point x="699" y="362" type="curve" smooth="yes"/>
      <point x="699" y="538"/>
      <point x="561" y="678"/>
      <point x="386" y="678" type="curve" smooth="yes"/>
      <point x="210" y="678"/>
      <point x="71" y="538"/>
    </contour>
    <contour>
      <point x="123" y="362" type="curve" smooth="yes"/>
      <point x="123" y="509"/>
      <point x="237" y="633"/>
      <point x="386" y="633" type="curve" smooth="yes"/>
      <point x="533" y="633"/>
      <point x="647" y="511"/>
      <point x="647" y="362" type="curve" smooth="yes"/>
      <point x="647" y="214"/>
      <point x="533" y="92"/>
      <point x="386" y="92" type="curve" smooth="yes"/>
      <point x="237" y="92"/>
      <point x="123" y="214"/>
    </contour>
    <contour>
      <point x="388" y="186" type="curve" smooth="yes"/>
      <point x="440" y="186"/>
      <point x="486" y="215"/>
      <point x="506" y="241" type="curve"/>
      <point x="486" y="276" type="line"/>
      <point x="468" y="258"/>
      <point x="442" y="246"/>
      <point x="412" y="246" type="curve" smooth="yes"/>
      <point x="347" y="246"/>
      <point x="299" y="298"/>
      <point x="299" y="374" type="curve" smooth="yes"/>
      <point x="299" y="444"/>
      <point x="330" y="494"/>
      <point x="386" y="494" type="curve" smooth="yes"/>
      <point x="420" y="494"/>
      <point x="431" y="488"/>
      <point x="440" y="482" type="curve"/>
      <point x="456" y="434" type="line"/>
      <point x="502" y="434" type="line"/>
      <point x="503" y="521" type="line"/>
      <point x="489" y="535"/>
      <point x="441" y="543"/>
      <point x="409" y="543" type="curve" smooth="yes"/>
      <point x="304" y="543"/>
      <point x="224" y="462"/>
      <point x="224" y="360" type="curve" smooth="yes"/>
      <point x="224" y="259"/>
      <point x="281" y="186"/>
    </contour>
  </outline>
</glyph>
<glyph name="ordfeminine" format="1">
  <advance width="379"/>
  <unicode hex="00AA"/>
  <outline>
    <contour>
      <point x="141" y="242" type="curve" smooth="yes"/>
      <point x="189" y="242"/>
      <point x="224" y="267"/>
      <point x="245" y="289" type="curve"/>
      <point x="245" y="271" type="line" smooth="yes"/>
      <point x="245" y="244"/>
      <point x="264" y="242"/>
      <point x="290" y="242" type="curve" smooth="yes"/>
      <point x="317" y="242"/>
      <point x="348" y="249"/>
      <point x="365" y="253" type="curve"/>
      <point x="365" y="287" type="line"/>
      <point x="327" y="287" type="line"/>
      <point x="327" y="464" type="line" smooth="yes"/>
      <point x="327" y="554"/>
      <point x="277" y="585"/>
      <point x="192" y="585" type="curve" smooth="yes"/>
      <point x="145" y="585"/>
      <point x="75" y="562"/>
      <point x="46" y="545" type="curve"/>
      <point x="70" y="501" type="line"/>
      <point x="95" y="512"/>
      <point x="135" y="526"/>
      <point x="175" y="526" type="curve" smooth="yes"/>
      <point x="226" y="526"/>
      <point x="242" y="511"/>
      <point x="242" y="454" type="curve" smooth="yes"/>
      <point x="242" y="445" type="line"/>
      <point x="119" y="444"/>
      <point x="35" y="413"/>
      <point x="35" y="339" type="curve" smooth="yes"/>
      <point x="35" y="284"/>
      <point x="73" y="242"/>
    </contour>
    <contour>
      <point x="179" y="296" type="curve" smooth="yes"/>
      <point x="147" y="296"/>
      <point x="129" y="317"/>
      <point x="129" y="347" type="curve" smooth="yes"/>
      <point x="129" y="387"/>
      <point x="154" y="406"/>
      <point x="242" y="408" type="curve"/>
      <point x="242" y="323" type="line"/>
      <point x="241" y="323" type="line"/>
      <point x="233" y="311"/>
      <point x="202" y="296"/>
    </contour>
  </outline>
</glyph>
<glyph name="guillemotleft" format="1">
  <advance width="699"/>
  <unicode hex="00AB"/>
  <outline>
    <contour>
      <point x="357" y="193" type="line"/>
      <point x="599" y="34" type="line"/>
      <point x="628" y="82" type="line"/>
      <point x="469" y="221" type="line"/>
      <point x="628" y="364" type="line"/>
      <point x="599" y="412" type="line"/>
      <point x="357" y="249" type="line"/>
    </contour>
    <contour>
      <point x="81" y="193" type="line"/>
      <point x="324" y="34" type="line"/>
      <point x="353" y="82" type="line"/>
      <point x="194" y="221" type="line"/>
      <point x="353" y="364" type="line"/>
      <point x="324" y="412" type="line"/>
      <point x="81" y="249" type="line"/>
    </contour>
  </outline>
</glyph>
<glyph name="logicalnot" format="1">
  <advance width="510"/>
  <unicode hex="00AC"/>
  <outline>
    <contour>
      <point x="76" y="196" type="line"/>
      <point x="362" y="196" type="line"/>
      <point x="362" y="58" type="line"/>
      <point x="434" y="58" type="line"/>
      <point x="434" y="257" type="line"/>
      <point x="76" y="257" type="line"/>
    </contour>
  </outline>
</glyph>
<glyph name="uni00AD" format="1">
  <advance width="487"/>
  <unicode hex="00AD"/>
  <outline>
    <contour>
      <point x="83" y="189" type="line"/>
      <point x="403" y="189" type="line"/>
      <point x="403" y="256" type="line"/>
      <point x="83" y="256" type="line"/>
    </contour>
  </outline>
</glyph>
<glyph name="registered" format="1">
  <advance width="770"/>
  <unicode hex="00AE"/>
  <outline>
    <contour>
      <point x="71" y="362" type="curve" smooth="yes"/>
      <point x="71" y="186"/>
      <point x="210" y="46"/>
      <point x="386" y="46" type="curve" smooth="yes"/>
      <point x="561" y="46"/>
      <point x="699" y="186"/>
      <point x="699" y="362" type="curve" smooth="yes"/>
      <point x="699" y="538"/>
      <point x="561" y="678"/>
      <point x="386" y="678" type="curve" smooth="yes"/>
      <point x="210" y="678"/>
      <point x="71" y="538"/>
    </contour>
    <contour>
      <point x="123" y="362" type="curve" smooth="yes"/>
      <point x="123" y="509"/>
      <point x="237" y="633"/>
      <point x="386" y="633" type="curve" smooth="yes"/>
      <point x="533" y="633"/>
      <point x="647" y="511"/>
      <point x="647" y="362" type="curve" smooth="yes"/>
      <point x="647" y="214"/>
      <point x="533" y="92"/>
      <point x="386" y="92" type="curve" smooth="yes"/>
      <point x="237" y="92"/>
      <point x="123" y="214"/>
    </contour>
    <contour>
      <point x="240" y="187" type="line"/>
      <point x="377" y="187" type="line"/>
      <point x="377" y="222" type="line"/>
      <point x="344" y="228" type="line"/>
      <point x="344" y="326" type="line"/>
      <point x="391" y="326" type="line"/>
      <point x="452" y="302"/>
      <point x="427" y="187"/>
      <point x="481" y="187" type="curve" smooth="yes"/>
      <point x="549" y="187" type="line"/>
      <point x="549" y="225" type="line"/>
      <point x="499" y="228"/>
      <point x="522" y="312"/>
      <point x="453" y="342" type="curve"/>
      <point x="504" y="354"/>
      <point x="527" y="394"/>
      <point x="527" y="445" type="curve" smooth="yes"/>
      <point x="527" y="500"/>
      <point x="484" y="538"/>
      <point x="392" y="538" type="curve"/>
      <point x="345" y="537"/>
      <point x="335" y="535"/>
      <point x="303" y="536" type="curve"/>
      <point x="240" y="536" type="line"/>
      <point x="240" y="498" type="line"/>
      <point x="272" y="490" type="line"/>
      <point x="272" y="230" type="line"/>
      <point x="240" y="222" type="line"/>
    </contour>
    <contour>
      <point x="344" y="372" type="curve"/>
      <point x="344" y="493" type="line"/>
      <point x="359" y="497"/>
      <point x="369" y="497"/>
      <point x="382" y="497" type="curve" smooth="yes"/>
      <point x="427" y="497"/>
      <point x="448" y="480"/>
      <point x="448" y="434" type="curve" smooth="yes"/>
      <point x="448" y="399"/>
      <point x="423" y="369"/>
      <point x="390" y="369" type="curve" smooth="yes"/>
      <point x="374" y="369"/>
      <point x="356" y="369"/>
    </contour>
  </outline>
</glyph>
<glyph name="macron" format="1">
  <advance width="247"/>
  <unicode hex="00AF"/>
  <outline>
    <contour>
      <point x="15" y="514" type="line"/>
      <point x="231" y="514" type="line"/>
      <point x="231" y="578" type="line"/>
      <point x="15" y="578" type="line"/>
    </contour>
  </outline>
</glyph>
<glyph name="degree" format="1">
  <advance width="359"/>
  <unicode hex="00B0"/>
  <outline>
    <contour>
      <point x="179" y="338" type="curve" smooth="yes"/>
      <point x="252" y="338"/>
      <point x="310" y="393"/>
      <point x="310" y="467" type="curve" smooth="yes"/>
      <point x="310" y="538"/>
      <point x="255" y="597"/>
      <point x="179" y="597" type="curve" smooth="yes"/>
      <point x="109" y="597"/>
      <point x="49" y="542"/>
      <point x="49" y="467" type="curve" smooth="yes"/>
      <point x="49" y="397"/>
      <point x="109" y="338"/>
    </contour>
    <contour>
      <point x="180" y="397" type="curve" smooth="yes"/>
      <point x="143" y="397"/>
      <point x="113" y="430"/>
      <point x="113" y="467" type="curve" smooth="yes"/>
      <point x="113" y="508"/>
      <point x="140" y="538"/>
      <point x="179" y="538" type="curve" smooth="yes"/>
      <point x="217" y="538"/>
      <point x="247" y="506"/>
      <point x="247" y="467" type="curve" smooth="yes"/>
      <point x="247" y="427"/>
      <point x="220" y="397"/>
    </contour>
  </outline>
</glyph>
<glyph name="plusminus" format="1">
  <advance width="490"/>
  <unicode hex="00B1"/>
  <outline>
    <contour>
      <point x="76" y="223" type="line"/>
      <point x="147" y="223" type="line"/>
      <point x="212" y="225" type="line"/>
      <point x="210" y="168" type="line"/>
      <point x="210" y="90" type="line"/>
      <point x="280" y="90" type="line"/>
      <point x="280" y="168" type="line"/>
      <point x="276" y="225" type="line"/>
      <point x="332" y="223" type="line"/>
      <point x="414" y="223" type="line"/>
      <point x="414" y="291" type="line"/>
      <point x="332" y="291" type="line"/>
      <point x="276" y="287" type="line"/>
      <point x="280" y="345" type="line"/>
      <point x="280" y="427" type="line"/>
      <point x="210" y="427" type="line"/>
      <point x="210" y="345" type="line"/>
      <point x="212" y="287" type="line"/>
      <point x="147" y="291" type="line"/>
      <point x="76" y="291" type="line"/>
    </contour>
    <contour>
      <point x="80" y="0" type="line"/>
      <point x="408" y="0" type="line"/>
      <point x="408" y="65" type="line"/>
      <point x="80" y="65" type="line"/>
    </contour>
  </outline>
</glyph>
<glyph name="twosuperior" format="1">
  <advance width="377"/>
  <unicode hex="00B2"/>
  <outline>
    <contour>
      <point x="55" y="197" type="line"/>
      <point x="329" y="197" type="line"/>
      <point x="348" y="301" type="line"/>
      <point x="304" y="309" type="line"/>
      <point x="276" y="258" type="line"/>
      <point x="117" y="244" type="line"/>
      <point x="214" y="299"/>
      <point x="313" y="390"/>
      <point x="313" y="470" type="curve" smooth="yes"/>
      <point x="313" y="532"/>
      <point x="266" y="578"/>
      <point x="183" y="578" type="curve" smooth="yes"/>
      <point x="109" y="578"/>
      <point x="57" y="538"/>
      <point x="38" y="515" type="curve"/>
      <point x="66" y="482" type="line"/>
      <point x="82" y="497"/>
      <point x="117" y="520"/>
      <point x="162" y="520" type="curve" smooth="yes"/>
      <point x="202" y="520"/>
      <point x="226" y="495"/>
      <point x="226" y="458" type="curve" smooth="yes"/>
      <point x="226" y="372"/>
      <point x="103" y="275"/>
      <point x="39" y="239" type="curve"/>
    </contour>
  </outline>
</glyph>
<glyph name="threesuperior" format="1">
  <advance width="361"/>
  <unicode hex="00B3"/>
  <outline>
    <contour>
      <point x="48" y="213" type="line"/>
      <point x="74" y="200"/>
      <point x="121" y="191"/>
      <point x="157" y="191" type="curve" smooth="yes"/>
      <point x="274" y="191"/>
      <point x="333" y="244"/>
      <point x="333" y="311" type="curve" smooth="yes"/>
      <point x="333" y="357"/>
      <point x="292" y="399"/>
      <point x="217" y="394" type="curve"/>
      <point x="275" y="417"/>
      <point x="300" y="449"/>
      <point x="300" y="492" type="curve" smooth="yes"/>
      <point x="300" y="542"/>
      <point x="252" y="578"/>
      <point x="175" y="578" type="curve" smooth="yes"/>
      <point x="117" y="578"/>
      <point x="62" y="556"/>
      <point x="39" y="535" type="curve"/>
      <point x="64" y="496" type="line"/>
      <point x="83" y="512"/>
      <point x="122" y="523"/>
      <point x="153" y="523" type="curve" smooth="yes"/>
      <point x="195" y="523"/>
      <point x="213" y="508"/>
      <point x="213" y="478" type="curve" smooth="yes"/>
      <point x="213" y="445"/>
      <point x="187" y="425"/>
      <point x="155" y="413" type="curve"/>
      <point x="137" y="404"/>
      <point x="117" y="398"/>
      <point x="104" y="396" type="curve"/>
      <point x="118" y="356" type="line"/>
      <point x="160" y="369" type="line"/>
      <point x="214" y="370"/>
      <point x="240" y="341"/>
      <point x="240" y="313" type="curve" smooth="yes"/>
      <point x="240" y="265"/>
      <point x="203" y="243"/>
      <point x="133" y="243" type="curve" smooth="yes"/>
      <point x="108" y="243"/>
      <point x="70" y="250"/>
      <point x="48" y="259" type="curve"/>
    </contour>
  </outline>
</glyph>
<glyph name="acute" format="1">
  <advance width="247"/>
  <unicode hex="00B4"/>
  <outline>
    <contour>
      <point x="102" y="477" type="line"/>
      <point x="102" y="477" type="line"/>
      <point x="140" y="491"/>
      <point x="231" y="565"/>
      <point x="254" y="603" type="curve"/>
      <point x="191" y="660" type="line"/>
      <point x="190" y="660" type="line"/>
      <point x="64" y="509" type="line"/>
    </contour>
  </outline>
</glyph>
<glyph name="uni00B5" format="1">
  <advance width="506"/>
  <unicode hex="00B5"/>
  <outline>
    <contour>
      <point x="80" y="-135" type="line"/>
      <point x="174" y="-135" type="line"/>
      <point x="174" y="22" type="line"/>
      <point x="192" y="4"/>
      <point x="221" y="-7"/>
      <point x="254" y="-7" type="curve" smooth="yes"/>
      <point x="297" y="-7"/>
      <point x="333" y="20"/>
      <point x="347" y="53" type="curve"/>
      <point x="347" y="29" type="line" smooth="yes"/>
      <point x="347" y="6"/>
      <point x="360" y="-10"/>
      <point x="390" y="-10" type="curve" smooth="yes"/>
      <point x="421" y="-10"/>
      <point x="454" y="-3"/>
      <point x="471" y="4" type="curve"/>
      <point x="471" y="46" type="line"/>
      <point x="430" y="46" type="line"/>
      <point x="430" y="410" type="line"/>
      <point x="416" y="420" type="line"/>
      <point x="283" y="410" type="line"/>
      <point x="283" y="374" type="line"/>
      <point x="329" y="358" type="line"/>
      <point x="329" y="96" type="line"/>
      <point x="321" y="78"/>
      <point x="298" y="54"/>
      <point x="255" y="54" type="curve" smooth="yes"/>
      <point x="206" y="54"/>
      <point x="181" y="97"/>
      <point x="181" y="128" type="curve" smooth="yes"/>
      <point x="181" y="410" type="line"/>
      <point x="165" y="420" type="line"/>
      <point x="39" y="410" type="line"/>
      <point x="39" y="373" type="line"/>
      <point x="80" y="358" type="line"/>
    </contour>
  </outline>
</glyph>
<glyph name="paragraph" format="1">
  <advance width="571"/>
  <unicode hex="00B6"/>
  <outline>
    <contour>
      <point x="124" y="0" type="line"/>
      <point x="282" y="0" type="line"/>
      <point x="282" y="562" type="line"/>
      <point x="285" y="562"/>
      <point x="292" y="563"/>
      <point x="297" y="563" type="curve" smooth="yes"/>
      <point x="325" y="563"/>
      <point x="356" y="560"/>
      <point x="373" y="558" type="curve"/>
      <point x="373" y="0" type="line"/>
      <point x="508" y="0" type="line"/>
      <point x="508" y="43" type="line"/>
      <point x="458" y="51" type="line"/>
      <point x="458" y="559" type="line"/>
      <point x="517" y="567" type="line"/>
      <point x="517" y="612" type="line"/>
      <point x="453" y="612" type="line"/>
      <point x="339" y="612"/>
      <point x="331" y="619"/>
      <point x="240" y="619" type="curve" smooth="yes"/>
      <point x="110" y="619"/>
      <point x="40" y="548"/>
      <point x="40" y="454" type="curve" smooth="yes"/>
      <point x="40" y="349"/>
      <point x="91" y="285"/>
      <point x="197" y="285" type="curve"/>
      <point x="197" y="51" type="line"/>
      <point x="124" y="43" type="line"/>
    </contour>
  </outline>
</glyph>
<glyph name="periodcentered" format="1">
  <advance width="259"/>
  <unicode hex="00B7"/>
  <outline>
    <contour>
      <point x="67" y="251" type="curve" smooth="yes"/>
      <point x="67" y="217"/>
      <point x="93" y="193"/>
      <point x="129" y="193" type="curve" smooth="yes"/>
      <point x="163" y="193"/>
      <point x="191" y="215"/>
      <point x="191" y="249" type="curve" smooth="yes"/>
      <point x="191" y="282"/>
      <point x="167" y="308"/>
      <point x="129" y="308" type="curve" smooth="yes"/>
      <point x="93" y="308"/>
      <point x="67" y="284"/>
    </contour>
  </outline>
</glyph>
<glyph name="cedilla" format="1">
  <advance width="222"/>
  <unicode hex="00B8"/>
  <outline>
    <contour>
      <point x="70" y="1" type="line"/>
      <point x="77" y="-9"/>
      <point x="92" y="-40"/>
      <point x="92" y="-66" type="curve" smooth="yes"/>
      <point x="92" y="-112"/>
      <point x="75" y="-117"/>
      <point x="42" y="-117" type="curve"/>
      <point x="36" y="-117"/>
      <point x="20" y="-115"/>
      <point x="11" y="-112" type="curve"/>
      <point x="10" y="-174" type="line"/>
      <point x="23" y="-180"/>
      <point x="46" y="-184"/>
      <point x="62" y="-184" type="curve" smooth="yes"/>
      <point x="126" y="-184"/>
      <point x="163" y="-165"/>
      <point x="165" y="-107" type="curve" smooth="yes"/>
      <point x="168" y="-58"/>
      <point x="132" y="-13"/>
      <point x="116" y="1" type="curve"/>
      <point x="101" y="5" type="line"/>
    </contour>
  </outline>
</glyph>
<glyph name="onesuperior" format="1">
  <advance width="360"/>
  <unicode hex="00B9"/>
  <outline>
    <contour>
      <point x="56" y="198" type="line"/>
      <point x="316" y="198" type="line"/>
      <point x="316" y="241" type="line"/>
      <point x="232" y="249" type="line"/>
      <point x="232" y="569" type="line"/>
      <point x="181" y="578" type="line"/>
      <point x="180" y="578" type="line"/>
      <point x="137" y="545"/>
      <point x="87" y="528"/>
      <point x="47" y="516" type="curve"/>
      <point x="61" y="469" type="line"/>
      <point x="86" y="474"/>
      <point x="119" y="479"/>
      <point x="148" y="490" type="curve"/>
      <point x="148" y="249" type="line"/>
      <point x="56" y="241" type="line"/>
    </contour>
  </outline>
</glyph>
<glyph name="ordmasculine" format="1">
  <advance width="388"/>
  <unicode hex="00BA"/>
  <outline>
    <contour>
      <point x="195" y="244" type="curve" smooth="yes"/>
      <point x="270" y="244"/>
      <point x="357" y="293"/>
      <point x="358" y="415" type="curve" smooth="yes"/>
      <point x="359" y="524"/>
      <point x="300" y="585"/>
      <point x="199" y="585" type="curve" smooth="yes"/>
      <point x="119" y="585"/>
      <point x="32" y="535"/>
      <point x="30" y="418" type="curve" smooth="yes"/>
      <point x="29" y="299"/>
      <point x="101" y="243"/>
    </contour>
    <contour>
      <point x="194" y="284" type="curve" smooth="yes"/>
      <point x="157" y="284"/>
      <point x="128" y="334"/>
      <point x="128" y="420" type="curve" smooth="yes"/>
      <point x="128" y="509"/>
      <point x="152" y="543"/>
      <point x="195" y="544" type="curve" smooth="yes"/>
      <point x="238" y="545"/>
      <point x="261" y="495"/>
      <point x="261" y="409" type="curve" smooth="yes"/>
      <point x="261" y="303"/>
      <point x="239" y="285"/>
    </contour>
  </outline>
</glyph>
<glyph name="guillemotright" format="1">
  <advance width="698"/>
  <unicode hex="00BB"/>
  <outline>
    <contour>
      <point x="617" y="193" type="line"/>
      <point x="375" y="34" type="line"/>
      <point x="345" y="82" type="line"/>
      <point x="505" y="221" type="line"/>
      <point x="346" y="364" type="line"/>
      <point x="375" y="412" type="line"/>
      <point x="617" y="249" type="line"/>
    </contour>
    <contour>
      <point x="349" y="193" type="line"/>
      <point x="106" y="34" type="line"/>
      <point x="77" y="82" type="line"/>
      <point x="236" y="221" type="line"/>
      <point x="77" y="364" type="line"/>
      <point x="106" y="412" type="line"/>
      <point x="349" y="249" type="line"/>
    </contour>
  </outline>
</glyph>
<glyph name="onequarter" format="1">
  <advance width="882"/>
  <unicode hex="00BC"/>
  <outline>
    <contour>
      <point x="544" y="74" type="line"/>
      <point x="720" y="74" type="line"/>
      <point x="720" y="1" type="line"/>
      <point x="795" y="1" type="line"/>
      <point x="795" y="74" type="line"/>
      <point x="859" y="74" type="line"/>
      <point x="860" y="133" type="line"/>
      <point x="795" y="129" type="line"/>
      <point x="795" y="223" type="line"/>
      <point x="728" y="217" type="line"/>
      <point x="720" y="125" type="line"/>
      <point x="591" y="118" type="line"/>
      <point x="627" y="164" type="line"/>
      <point x="760" y="379" type="line"/>
      <point x="745" y="397" type="line"/>
      <point x="669" y="397" type="line"/>
      <point x="647" y="352"/>
      <point x="530" y="135"/>
      <point x="516" y="110" type="curve"/>
    </contour>
    <contour>
      <point x="56" y="198" type="line"/>
      <point x="316" y="198" type="line"/>
      <point x="316" y="241" type="line"/>
      <point x="232" y="249" type="line"/>
      <point x="232" y="569" type="line"/>
      <point x="181" y="578" type="line"/>
      <point x="180" y="578" type="line"/>
      <point x="137" y="545"/>
      <point x="87" y="528"/>
      <point x="47" y="516" type="curve"/>
      <point x="61" y="469" type="line"/>
      <point x="86" y="474"/>
      <point x="119" y="479"/>
      <point x="148" y="490" type="curve"/>
      <point x="148" y="249" type="line"/>
      <point x="56" y="241" type="line"/>
    </contour>
    <contour>
      <point x="330" y="-64" type="line"/>
      <point x="590" y="596" type="line"/>
      <point x="528" y="602" type="line"/>
      <point x="266" y="-58" type="line"/>
    </contour>
  </outline>
</glyph>
<glyph name="threequarters" format="1">
  <advance width="882"/>
  <unicode hex="00BE"/>
  <outline>
    <contour>
      <point x="544" y="74" type="line"/>
      <point x="720" y="74" type="line"/>
      <point x="721" y="1" type="line"/>
      <point x="795" y="1" type="line"/>
      <point x="795" y="74" type="line"/>
      <point x="859" y="74" type="line"/>
      <point x="859" y="133" type="line"/>
      <point x="795" y="129" type="line"/>
      <point x="795" y="223" type="line"/>
      <point x="729" y="217" type="line"/>
      <point x="721" y="125" type="line"/>
      <point x="591" y="118" type="line"/>
      <point x="627" y="164" type="line"/>
      <point x="760" y="379" type="line"/>
      <point x="745" y="397" type="line"/>
      <point x="670" y="397" type="line"/>
      <point x="648" y="352"/>
      <point x="531" y="135"/>
      <point x="517" y="110" type="curve"/>
    </contour>
    <contour>
      <point x="48" y="213" type="line"/>
      <point x="74" y="200"/>
      <point x="121" y="191"/>
      <point x="157" y="191" type="curve" smooth="yes"/>
      <point x="274" y="191"/>
      <point x="333" y="244"/>
      <point x="333" y="311" type="curve" smooth="yes"/>
      <point x="333" y="357"/>
      <point x="292" y="399"/>
      <point x="217" y="394" type="curve"/>
      <point x="275" y="417"/>
      <point x="300" y="449"/>
      <point x="300" y="492" type="curve" smooth="yes"/>
      <point x="300" y="542"/>
      <point x="252" y="578"/>
      <point x="175" y="578" type="curve" smooth="yes"/>
      <point x="117" y="578"/>
      <point x="62" y="556"/>
      <point x="39" y="535" type="curve"/>
      <point x="64" y="496" type="line"/>
      <point x="83" y="512"/>
      <point x="122" y="523"/>
      <point x="153" y="523" type="curve" smooth="yes"/>
      <point x="195" y="523"/>
      <point x="213" y="508"/>
      <point x="213" y="478" type="curve" smooth="yes"/>
      <point x="213" y="445"/>
      <point x="187" y="425"/>
      <point x="155" y="413" type="curve"/>
      <point x="137" y="404"/>
      <point x="117" y="398"/>
      <point x="104" y="396" type="curve"/>
      <point x="118" y="356" type="line"/>
      <point x="160" y="369" type="line"/>
      <point x="214" y="370"/>
      <point x="240" y="341"/>
      <point x="240" y="313" type="curve" smooth="yes"/>
      <point x="240" y="265"/>
      <point x="203" y="243"/>
      <point x="133" y="243" type="curve" smooth="yes"/>
      <point x="108" y="243"/>
      <point x="70" y="250"/>
      <point x="48" y="259" type="curve"/>
    </contour>
    <contour>
      <point x="331" y="-64" type="line"/>
      <point x="591" y="596" type="line"/>
      <point x="529" y="602" type="line"/>
      <point x="267" y="-58" type="line"/>
    </contour>
  </outline>
</glyph>
<glyph name="questiondown" format="1">
  <advance width="370"/>
  <unicode hex="00BF"/>
  <outline>
    <contour>
      <point x="204" y="357" type="curve"/>
      <point x="142" y="346" type="line"/>
      <point x="148" y="321"/>
      <point x="152" y="300"/>
      <point x="152" y="291" type="curve" smooth="yes"/>
      <point x="152" y="233"/>
      <point x="-20" y="239"/>
      <point x="-20" y="130" type="curve" smooth="yes"/>
      <point x="-20" y="69"/>
      <point x="32" y="-38"/>
      <point x="155" y="-38" type="curve" smooth="yes"/>
      <point x="197" y="-38"/>
      <point x="247" y="-26"/>
      <point x="280" y="-12" type="curve"/>
      <point x="243" y="86" type="line"/>
      <point x="205" y="66"/>
      <point x="156" y="52"/>
      <point x="125" y="52" type="curve" smooth="yes"/>
      <point x="83" y="52"/>
      <point x="56" y="77"/>
      <point x="56" y="103" type="curve" smooth="yes"/>
      <point x="56" y="166"/>
      <point x="237" y="156"/>
      <point x="237" y="250" type="curve" smooth="yes"/>
      <point x="237" y="278"/>
      <point x="221" y="324"/>
    </contour>
    <contour>
      <point x="222" y="463" type="curve" smooth="yes"/>
      <point x="222" y="497"/>
      <point x="196" y="521"/>
      <point x="161" y="521" type="curve" smooth="yes"/>
      <point x="126" y="521"/>
      <point x="98" y="498"/>
      <point x="98" y="464" type="curve" smooth="yes"/>
      <point x="98" y="431"/>
      <point x="122" y="405"/>
      <point x="161" y="405" type="curve" smooth="yes"/>
      <point x="196" y="405"/>
      <point x="222" y="429"/>
    </contour>
  </outline>
</glyph>
<glyph name="Agrave" format="1">
  <advance width="518"/>
  <unicode hex="00C0"/>
  <outline>
    <contour>
      <point x="287" y="587" type="curve"/>
      <point x="288" y="587" type="line"/>
      <point x="323" y="616" type="line"/>
      <point x="208" y="727" type="line"/>
      <point x="143" y="679" type="line"/>
      <point x="168" y="642"/>
      <point x="253" y="598"/>
    </contour>
    <contour>
      <point x="-12" y="0" type="line"/>
      <point x="176" y="0" type="line"/>
      <point x="176" y="44" type="line"/>
      <point x="116" y="51" type="line"/>
      <point x="145" y="149" type="line"/>
      <point x="340" y="149" type="line"/>
      <point x="370" y="53" type="line"/>
      <point x="314" y="44" type="line"/>
      <point x="314" y="0" type="line"/>
      <point x="530" y="0" type="line"/>
      <point x="530" y="44" type="line"/>
      <point x="486" y="53" type="line"/>
      <point x="313" y="554" type="line"/>
      <point x="205" y="554" type="line"/>
      <point x="32" y="53" type="line"/>
      <point x="-13" y="44" type="line"/>
    </contour>
    <contour>
      <point x="227" y="430" type="line"/>
      <point x="240" y="487" type="line"/>
      <point x="254" y="431" type="line"/>
      <point x="325" y="201" type="line"/>
      <point x="160" y="201" type="line"/>
    </contour>
  </outline>
</glyph>
<glyph name="Aacute" format="1">
  <advance width="518"/>
  <unicode hex="00C1"/>
  <outline>
    <contour>
      <point x="242" y="587" type="line"/>
      <point x="243" y="587" type="line"/>
      <point x="274" y="596"/>
      <point x="353" y="636"/>
      <point x="387" y="679" type="curve"/>
      <point x="322" y="727" type="line"/>
      <point x="321" y="727" type="line"/>
      <point x="206" y="616" type="line"/>
    </contour>
    <contour>
      <point x="-12" y="0" type="line"/>
      <point x="176" y="0" type="line"/>
      <point x="176" y="44" type="line"/>
      <point x="116" y="51" type="line"/>
      <point x="145" y="149" type="line"/>
      <point x="340" y="149" type="line"/>
      <point x="370" y="53" type="line"/>
      <point x="314" y="44" type="line"/>
      <point x="314" y="0" type="line"/>
      <point x="530" y="0" type="line"/>
      <point x="530" y="44" type="line"/>
      <point x="486" y="53" type="line"/>
      <point x="313" y="554" type="line"/>
      <point x="205" y="554" type="line"/>
      <point x="32" y="53" type="line"/>
      <point x="-13" y="44" type="line"/>
    </contour>
    <contour>
      <point x="227" y="430" type="line"/>
      <point x="240" y="487" type="line"/>
      <point x="254" y="431" type="line"/>
      <point x="325" y="201" type="line"/>
      <point x="160" y="201" type="line"/>
    </contour>
  </outline>
</glyph>
<glyph name="Acircumflex" format="1">
  <advance width="518"/>
  <unicode hex="00C2"/>
  <outline>
    <contour>
      <point x="156" y="592" type="line"/>
      <point x="260" y="664" type="line"/>
      <point x="362" y="592" type="line"/>
      <point x="398" y="620" type="line"/>
      <point x="294" y="727" type="line"/>
      <point x="225" y="727" type="line"/>
      <point x="121" y="620" type="line"/>
    </contour>
    <contour>
      <point x="-12" y="0" type="line"/>
      <point x="176" y="0" type="line"/>
      <point x="176" y="44" type="line"/>
      <point x="116" y="51" type="line"/>
      <point x="145" y="149" type="line"/>
      <point x="340" y="149" type="line"/>
      <point x="370" y="53" type="line"/>
      <point x="314" y="44" type="line"/>
      <point x="314" y="0" type="line"/>
      <point x="530" y="0" type="line"/>
      <point x="530" y="44" type="line"/>
      <point x="486" y="53" type="line"/>
      <point x="313" y="554" type="line"/>
      <point x="205" y="554" type="line"/>
      <point x="32" y="53" type="line"/>
      <point x="-13" y="44" type="line"/>
    </contour>
    <contour>
      <point x="227" y="430" type="line"/>
      <point x="240" y="487" type="line"/>
      <point x="254" y="431" type="line"/>
      <point x="325" y="201" type="line"/>
      <point x="160" y="201" type="line"/>
    </contour>
  </outline>
</glyph>
<glyph name="Atilde" format="1">
  <advance width="518"/>
  <unicode hex="00C3"/>
  <outline>
    <contour>
      <point x="322" y="603" type="curve" smooth="yes"/>
      <point x="375" y="603"/>
      <point x="406" y="642"/>
      <point x="422" y="680" type="curve"/>
      <point x="387" y="708" type="line"/>
      <point x="376" y="694"/>
      <point x="365" y="668"/>
      <point x="332" y="668" type="curve" smooth="yes"/>
      <point x="290" y="668"/>
      <point x="268" y="726"/>
      <point x="206" y="726" type="curve" smooth="yes"/>
      <point x="148" y="726"/>
      <point x="110" y="680"/>
      <point x="99" y="649" type="curve"/>
      <point x="135" y="621" type="line"/>
      <point x="144" y="633"/>
      <point x="159" y="662"/>
      <point x="191" y="662" type="curve" smooth="yes"/>
      <point x="237" y="662"/>
      <point x="261" y="603"/>
    </contour>
    <contour>
      <point x="-12" y="0" type="line"/>
      <point x="176" y="0" type="line"/>
      <point x="176" y="44" type="line"/>
      <point x="116" y="51" type="line"/>
      <point x="145" y="149" type="line"/>
      <point x="340" y="149" type="line"/>
      <point x="370" y="53" type="line"/>
      <point x="314" y="44" type="line"/>
      <point x="314" y="0" type="line"/>
      <point x="530" y="0" type="line"/>
      <point x="530" y="44" type="line"/>
      <point x="486" y="53" type="line"/>
      <point x="313" y="554" type="line"/>
      <point x="205" y="554" type="line"/>
      <point x="32" y="53" type="line"/>
      <point x="-13" y="44" type="line"/>
    </contour>
    <contour>
      <point x="227" y="430" type="line"/>
      <point x="240" y="487" type="line"/>
      <point x="254" y="431" type="line"/>
      <point x="325" y="201" type="line"/>
      <point x="160" y="201" type="line"/>
    </contour>
  </outline>
</glyph>
<glyph name="Adieresis" format="1">
  <advance width="518"/>
  <unicode hex="00C4"/>
  <outline>
    <contour>
      <point x="160" y="604" type="curve"/>
      <point x="203" y="604"/>
      <point x="223" y="631"/>
      <point x="223" y="665" type="curve" smooth="yes"/>
      <point x="223" y="693"/>
      <point x="205" y="719"/>
      <point x="169" y="719" type="curve"/>
      <point x="130" y="719"/>
      <point x="111" y="690"/>
      <point x="111" y="656" type="curve" smooth="yes"/>
      <point x="111" y="628"/>
      <point x="130" y="604"/>
    </contour>
    <contour>
      <point x="347" y="604" type="curve"/>
      <point x="391" y="604"/>
      <point x="410" y="631"/>
      <point x="410" y="665" type="curve" smooth="yes"/>
      <point x="410" y="693"/>
      <point x="392" y="719"/>
      <point x="356" y="719" type="curve"/>
      <point x="316" y="719"/>
      <point x="298" y="690"/>
      <point x="298" y="656" type="curve" smooth="yes"/>
      <point x="298" y="630"/>
      <point x="318" y="604"/>
    </contour>
    <contour>
      <point x="-12" y="0" type="line"/>
      <point x="176" y="0" type="line"/>
      <point x="176" y="44" type="line"/>
      <point x="116" y="51" type="line"/>
      <point x="145" y="149" type="line"/>
      <point x="340" y="149" type="line"/>
      <point x="370" y="53" type="line"/>
      <point x="314" y="44" type="line"/>
      <point x="314" y="0" type="line"/>
      <point x="530" y="0" type="line"/>
      <point x="530" y="44" type="line"/>
      <point x="486" y="53" type="line"/>
      <point x="313" y="554" type="line"/>
      <point x="205" y="554" type="line"/>
      <point x="32" y="53" type="line"/>
      <point x="-13" y="44" type="line"/>
    </contour>
    <contour>
      <point x="227" y="430" type="line"/>
      <point x="240" y="487" type="line"/>
      <point x="254" y="431" type="line"/>
      <point x="325" y="201" type="line"/>
      <point x="160" y="201" type="line"/>
    </contour>
  </outline>
</glyph>
<glyph name="Aring" format="1">
  <advance width="518"/>
  <unicode hex="00C5"/>
  <outline>
    <contour>
      <point x="259" y="540" type="curve"/>
      <point x="259" y="540" type="line"/>
      <point x="331" y="540"/>
      <point x="385" y="575"/>
      <point x="385" y="634" type="curve" smooth="yes"/>
      <point x="386" y="688"/>
      <point x="349" y="728"/>
      <point x="265" y="728" type="curve"/>
      <point x="195" y="728"/>
      <point x="136" y="695"/>
      <point x="135" y="635" type="curve" smooth="yes"/>
      <point x="134" y="583"/>
      <point x="167" y="540"/>
    </contour>
    <contour>
      <point x="261" y="579" type="curve"/>
      <point x="217" y="579"/>
      <point x="201" y="607"/>
      <point x="201" y="635" type="curve" smooth="yes"/>
      <point x="201" y="668"/>
      <point x="217" y="689"/>
      <point x="261" y="689" type="curve"/>
      <point x="305" y="689"/>
      <point x="320" y="662"/>
      <point x="320" y="631" type="curve" smooth="yes"/>
      <point x="320" y="599"/>
      <point x="306" y="579"/>
    </contour>
    <contour>
      <point x="-13" y="0" type="line"/>
      <point x="175" y="0" type="line"/>
      <point x="175" y="44" type="line"/>
      <point x="115" y="51" type="line"/>
      <point x="144" y="149" type="line"/>
      <point x="339" y="149" type="line"/>
      <point x="369" y="53" type="line"/>
      <point x="313" y="44" type="line"/>
      <point x="313" y="0" type="line"/>
      <point x="529" y="0" type="line"/>
      <point x="529" y="44" type="line"/>
      <point x="485" y="53" type="line"/>
      <point x="312" y="554" type="line"/>
      <point x="204" y="554" type="line"/>
      <point x="31" y="53" type="line"/>
      <point x="-14" y="44" type="line"/>
    </contour>
    <contour>
      <point x="226" y="430" type="line"/>
      <point x="239" y="487" type="line"/>
      <point x="253" y="431" type="line"/>
      <point x="324" y="201" type="line"/>
      <point x="159" y="201" type="line"/>
    </contour>
  </outline>
</glyph>
<glyph name="AE" format="1">
  <advance width="692"/>
  <unicode hex="00C6"/>
  <outline>
    <contour>
      <point x="235" y="0" type="line"/>
      <point x="660" y="0" type="line"/>
      <point x="687" y="134" type="line"/>
      <point x="628" y="151" type="line"/>
      <point x="582" y="57" type="line"/>
      <point x="400" y="48" type="line"/>
      <point x="400" y="256" type="line"/>
      <point x="504" y="254" type="line"/>
      <point x="516" y="191" type="line"/>
      <point x="564" y="191" type="line"/>
      <point x="564" y="368" type="line"/>
      <point x="516" y="368" type="line"/>
      <point x="504" y="309" type="line"/>
      <point x="400" y="307" type="line"/>
      <point x="400" y="505" type="line"/>
      <point x="561" y="500" type="line"/>
      <point x="585" y="427" type="line"/>
      <point x="637" y="427" type="line"/>
      <point x="627" y="550" type="line"/>
      <point x="86" y="550" type="line"/>
      <point x="86" y="505" type="line"/>
      <point x="181" y="496" type="line"/>
      <point x="-9" y="53" type="line"/>
      <point x="-62" y="43" type="line"/>
      <point x="-62" y="0" type="line"/>
      <point x="132" y="0" type="line"/>
      <point x="132" y="43" type="line"/>
      <point x="78" y="52" type="line"/>
      <point x="117" y="155" type="line"/>
      <point x="295" y="155" type="line"/>
      <point x="295" y="52" type="line"/>
      <point x="235" y="43" type="line"/>
    </contour>
    <contour>
      <point x="213" y="403" type="line"/>
      <point x="251" y="501" type="line"/>
      <point x="295" y="501" type="line"/>
      <point x="295" y="207" type="line"/>
      <point x="137" y="207" type="line"/>
    </contour>
  </outline>
</glyph>
<glyph name="Egrave" format="1">
  <advance width="485"/>
  <unicode hex="00C8"/>
  <outline>
    <contour>
      <point x="267" y="587" type="curve"/>
      <point x="268" y="587" type="line"/>
      <point x="305" y="616" type="line"/>
      <point x="188" y="727" type="line"/>
      <point x="123" y="679" type="line"/>
      <point x="149" y="642"/>
      <point x="233" y="598"/>
    </contour>
    <contour>
      <point x="30" y="0" type="line"/>
      <point x="453" y="0" type="line"/>
      <point x="473" y="134" type="line"/>
      <point x="418" y="151" type="line"/>
      <point x="375" y="57" type="line"/>
      <point x="194" y="49" type="line"/>
      <point x="194" y="257" type="line"/>
      <point x="299" y="254" type="line"/>
      <point x="311" y="191" type="line"/>
      <point x="359" y="191" type="line"/>
      <point x="359" y="369" type="line"/>
      <point x="311" y="369" type="line"/>
      <point x="299" y="309" type="line"/>
      <point x="194" y="307" type="line"/>
      <point x="194" y="505" type="line"/>
      <point x="355" y="499" type="line"/>
      <point x="379" y="428" type="line"/>
      <point x="431" y="428" type="line"/>
      <point x="421" y="550" type="line"/>
      <point x="30" y="550" type="line"/>
      <point x="30" y="505" type="line"/>
      <point x="89" y="495" type="line"/>
      <point x="89" y="53" type="line"/>
      <point x="30" y="44" type="line"/>
    </contour>
  </outline>
</glyph>
<glyph name="Eacute" format="1">
  <advance width="485"/>
  <unicode hex="00C9"/>
  <outline>
    <contour>
      <point x="230" y="587" type="line"/>
      <point x="231" y="587" type="line"/>
      <point x="262" y="596"/>
      <point x="341" y="636"/>
      <point x="376" y="679" type="curve"/>
      <point x="311" y="727" type="line"/>
      <point x="310" y="727" type="line"/>
      <point x="194" y="616" type="line"/>
    </contour>
    <contour>
      <point x="30" y="0" type="line"/>
      <point x="453" y="0" type="line"/>
      <point x="473" y="134" type="line"/>
      <point x="418" y="151" type="line"/>
      <point x="375" y="57" type="line"/>
      <point x="194" y="49" type="line"/>
      <point x="194" y="257" type="line"/>
      <point x="299" y="254" type="line"/>
      <point x="311" y="191" type="line"/>
      <point x="359" y="191" type="line"/>
      <point x="359" y="369" type="line"/>
      <point x="311" y="369" type="line"/>
      <point x="299" y="309" type="line"/>
      <point x="194" y="307" type="line"/>
      <point x="194" y="505" type="line"/>
      <point x="355" y="499" type="line"/>
      <point x="379" y="428" type="line"/>
      <point x="431" y="428" type="line"/>
      <point x="421" y="550" type="line"/>
      <point x="30" y="550" type="line"/>
      <point x="30" y="505" type="line"/>
      <point x="89" y="495" type="line"/>
      <point x="89" y="53" type="line"/>
      <point x="30" y="44" type="line"/>
    </contour>
  </outline>
</glyph>
<glyph name="Ecircumflex" format="1">
  <advance width="485"/>
  <unicode hex="00CA"/>
  <outline>
    <contour>
      <point x="149" y="592" type="line"/>
      <point x="252" y="664" type="line"/>
      <point x="354" y="592" type="line"/>
      <point x="391" y="620" type="line"/>
      <point x="286" y="727" type="line"/>
      <point x="218" y="727" type="line"/>
      <point x="113" y="620" type="line"/>
    </contour>
    <contour>
      <point x="30" y="0" type="line"/>
      <point x="453" y="0" type="line"/>
      <point x="473" y="134" type="line"/>
      <point x="418" y="151" type="line"/>
      <point x="375" y="57" type="line"/>
      <point x="194" y="49" type="line"/>
      <point x="194" y="257" type="line"/>
      <point x="299" y="254" type="line"/>
      <point x="311" y="191" type="line"/>
      <point x="359" y="191" type="line"/>
      <point x="359" y="369" type="line"/>
      <point x="311" y="369" type="line"/>
      <point x="299" y="309" type="line"/>
      <point x="194" y="307" type="line"/>
      <point x="194" y="505" type="line"/>
      <point x="355" y="499" type="line"/>
      <point x="379" y="428" type="line"/>
      <point x="431" y="428" type="line"/>
      <point x="421" y="550" type="line"/>
      <point x="30" y="550" type="line"/>
      <point x="30" y="505" type="line"/>
      <point x="89" y="495" type="line"/>
      <point x="89" y="53" type="line"/>
      <point x="30" y="44" type="line"/>
    </contour>
  </outline>
</glyph>
<glyph name="Edieresis" format="1">
  <advance width="485"/>
  <unicode hex="00CB"/>
  <outline>
    <contour>
      <point x="153" y="604" type="curve"/>
      <point x="195" y="604"/>
      <point x="215" y="631"/>
      <point x="215" y="665" type="curve" smooth="yes"/>
      <point x="215" y="693"/>
      <point x="198" y="719"/>
      <point x="162" y="719" type="curve"/>
      <point x="122" y="719"/>
      <point x="104" y="690"/>
      <point x="104" y="656" type="curve" smooth="yes"/>
      <point x="104" y="628"/>
      <point x="123" y="604"/>
    </contour>
    <contour>
      <point x="339" y="604" type="curve"/>
      <point x="382" y="604"/>
      <point x="402" y="631"/>
      <point x="402" y="665" type="curve" smooth="yes"/>
      <point x="402" y="693"/>
      <point x="385" y="719"/>
      <point x="348" y="719" type="curve"/>
      <point x="309" y="719"/>
      <point x="290" y="690"/>
      <point x="290" y="656" type="curve" smooth="yes"/>
      <point x="290" y="630"/>
      <point x="309" y="604"/>
    </contour>
    <contour>
      <point x="30" y="0" type="line"/>
      <point x="453" y="0" type="line"/>
      <point x="473" y="134" type="line"/>
      <point x="418" y="151" type="line"/>
      <point x="375" y="57" type="line"/>
      <point x="194" y="49" type="line"/>
      <point x="194" y="257" type="line"/>
      <point x="299" y="254" type="line"/>
      <point x="311" y="191" type="line"/>
      <point x="359" y="191" type="line"/>
      <point x="359" y="369" type="line"/>
      <point x="311" y="369" type="line"/>
      <point x="299" y="309" type="line"/>
      <point x="194" y="307" type="line"/>
      <point x="194" y="505" type="line"/>
      <point x="355" y="499" type="line"/>
      <point x="379" y="428" type="line"/>
      <point x="431" y="428" type="line"/>
      <point x="421" y="550" type="line"/>
      <point x="30" y="550" type="line"/>
      <point x="30" y="505" type="line"/>
      <point x="89" y="495" type="line"/>
      <point x="89" y="53" type="line"/>
      <point x="30" y="44" type="line"/>
    </contour>
  </outline>
</glyph>
<glyph name="Igrave" format="1">
  <advance width="303"/>
  <unicode hex="00CC"/>
  <outline>
    <contour>
      <point x="163" y="587" type="curve"/>
      <point x="164" y="587" type="line"/>
      <point x="200" y="616" type="line"/>
      <point x="84" y="727" type="line"/>
      <point x="20" y="679" type="line"/>
      <point x="45" y="642"/>
      <point x="129" y="598"/>
    </contour>
    <contour>
      <point x="36" y="0" type="line"/>
      <point x="270" y="0" type="line"/>
      <point x="270" y="43" type="line"/>
      <point x="206" y="53" type="line"/>
      <point x="206" y="496" type="line"/>
      <point x="269" y="505" type="line"/>
      <point x="269" y="550" type="line"/>
      <point x="35" y="550" type="line"/>
      <point x="35" y="505" type="line"/>
      <point x="99" y="495" type="line"/>
      <point x="99" y="53" type="line"/>
      <point x="36" y="44" type="line"/>
    </contour>
  </outline>
</glyph>
<glyph name="Iacute" format="1">
  <advance width="303"/>
  <unicode hex="00CD"/>
  <outline>
    <contour>
      <point x="141" y="587" type="line"/>
      <point x="142" y="587" type="line"/>
      <point x="173" y="596"/>
      <point x="252" y="636"/>
      <point x="286" y="679" type="curve"/>
      <point x="222" y="727" type="line"/>
      <point x="221" y="727" type="line"/>
      <point x="105" y="616" type="line"/>
    </contour>
    <contour>
      <point x="36" y="0" type="line"/>
      <point x="270" y="0" type="line"/>
      <point x="270" y="43" type="line"/>
      <point x="206" y="53" type="line"/>
      <point x="206" y="496" type="line"/>
      <point x="269" y="505" type="line"/>
      <point x="269" y="550" type="line"/>
      <point x="35" y="550" type="line"/>
      <point x="35" y="505" type="line"/>
      <point x="99" y="495" type="line"/>
      <point x="99" y="53" type="line"/>
      <point x="36" y="44" type="line"/>
    </contour>
  </outline>
</glyph>
<glyph name="Icircumflex" format="1">
  <advance width="303"/>
  <unicode hex="00CE"/>
  <outline>
    <contour>
      <point x="48" y="592" type="line"/>
      <point x="152" y="664" type="line"/>
      <point x="254" y="592" type="line"/>
      <point x="291" y="620" type="line"/>
      <point x="186" y="727" type="line"/>
      <point x="117" y="727" type="line"/>
      <point x="13" y="620" type="line"/>
    </contour>
    <contour>
      <point x="36" y="0" type="line"/>
      <point x="270" y="0" type="line"/>
      <point x="270" y="43" type="line"/>
      <point x="206" y="53" type="line"/>
      <point x="206" y="496" type="line"/>
      <point x="269" y="505" type="line"/>
      <point x="269" y="550" type="line"/>
      <point x="35" y="550" type="line"/>
      <point x="35" y="505" type="line"/>
      <point x="99" y="495" type="line"/>
      <point x="99" y="53" type="line"/>
      <point x="36" y="44" type="line"/>
    </contour>
  </outline>
</glyph>
<glyph name="Idieresis" format="1">
  <advance width="303"/>
  <unicode hex="00CF"/>
  <outline>
    <contour>
      <point x="52" y="604" type="curve"/>
      <point x="96" y="604"/>
      <point x="115" y="631"/>
      <point x="115" y="665" type="curve" smooth="yes"/>
      <point x="115" y="693"/>
      <point x="97" y="719"/>
      <point x="62" y="719" type="curve"/>
      <point x="21" y="719"/>
      <point x="3" y="690"/>
      <point x="3" y="656" type="curve" smooth="yes"/>
      <point x="3" y="628"/>
      <point x="23" y="604"/>
    </contour>
    <contour>
      <point x="239" y="604" type="curve"/>
      <point x="283" y="604"/>
      <point x="301" y="631"/>
      <point x="301" y="665" type="curve" smooth="yes"/>
      <point x="301" y="693"/>
      <point x="285" y="719"/>
      <point x="248" y="719" type="curve"/>
      <point x="209" y="719"/>
      <point x="189" y="690"/>
      <point x="189" y="656" type="curve" smooth="yes"/>
      <point x="189" y="630"/>
      <point x="210" y="604"/>
    </contour>
    <contour>
      <point x="36" y="0" type="line"/>
      <point x="270" y="0" type="line"/>
      <point x="270" y="43" type="line"/>
      <point x="206" y="53" type="line"/>
      <point x="206" y="496" type="line"/>
      <point x="269" y="505" type="line"/>
      <point x="269" y="550" type="line"/>
      <point x="35" y="550" type="line"/>
      <point x="35" y="505" type="line"/>
      <point x="99" y="495" type="line"/>
      <point x="99" y="53" type="line"/>
      <point x="36" y="44" type="line"/>
    </contour>
  </outline>
</glyph>
<glyph name="Ntilde" format="1">
  <advance width="594"/>
  <unicode hex="00D1"/>
  <outline>
    <contour>
      <point x="365" y="603" type="curve" smooth="yes"/>
      <point x="418" y="603"/>
      <point x="449" y="642"/>
      <point x="465" y="680" type="curve"/>
      <point x="429" y="708" type="line"/>
      <point x="419" y="694"/>
      <point x="408" y="668"/>
      <point x="375" y="668" type="curve" smooth="yes"/>
      <point x="333" y="668"/>
      <point x="311" y="726"/>
      <point x="249" y="726" type="curve" smooth="yes"/>
      <point x="191" y="726"/>
      <point x="154" y="680"/>
      <point x="141" y="649" type="curve"/>
      <point x="177" y="621" type="line"/>
      <point x="187" y="633"/>
      <point x="202" y="662"/>
      <point x="234" y="662" type="curve" smooth="yes"/>
      <point x="279" y="662"/>
      <point x="304" y="603"/>
    </contour>
    <contour>
      <point x="31" y="0" type="line"/>
      <point x="226" y="0" type="line"/>
      <point x="226" y="44" type="line"/>
      <point x="152" y="53" type="line"/>
      <point x="152" y="450" type="line"/>
      <point x="204" y="351" type="line"/>
      <point x="438" y="0" type="line"/>
      <point x="521" y="0" type="line"/>
      <point x="521" y="496" type="line"/>
      <point x="580" y="505" type="line"/>
      <point x="580" y="550" type="line"/>
      <point x="395" y="550" type="line"/>
      <point x="395" y="505" type="line"/>
      <point x="459" y="496" type="line"/>
      <point x="459" y="133" type="line"/>
      <point x="419" y="214" type="line"/>
      <point x="194" y="550" type="line"/>
      <point x="31" y="550" type="line"/>
      <point x="31" y="505" type="line"/>
      <point x="89" y="496" type="line"/>
      <point x="89" y="53" type="line"/>
      <point x="31" y="44" type="line"/>
    </contour>
  </outline>
</glyph>
<glyph name="Ograve" format="1">
  <advance width="538"/>
  <unicode hex="00D2"/>
  <outline>
    <contour>
      <point x="296" y="587" type="curve"/>
      <point x="297" y="587" type="line"/>
      <point x="333" y="616" type="line"/>
      <point x="217" y="727" type="line"/>
      <point x="152" y="679" type="line"/>
      <point x="178" y="642"/>
      <point x="262" y="598"/>
    </contour>
    <contour>
      <point x="266" y="-8" type="curve" smooth="yes"/>
      <point x="414" y="-7"/>
      <point x="518" y="109"/>
      <point x="518" y="283" type="curve" smooth="yes"/>
      <point x="518" y="449"/>
      <point x="442" y="557"/>
      <point x="276" y="557" type="curve" smooth="yes"/>
      <point x="127" y="557"/>
      <point x="23" y="447"/>
      <point x="23" y="272" type="curve" smooth="yes"/>
      <point x="23" y="104"/>
      <point x="100" y="-10"/>
    </contour>
    <contour>
      <point x="270" y="511" type="curve" smooth="yes"/>
      <point x="352" y="511"/>
      <point x="401" y="436"/>
      <point x="401" y="282" type="curve" smooth="yes"/>
      <point x="401" y="121"/>
      <point x="350" y="38"/>
      <point x="270" y="38" type="curve" smooth="yes"/>
      <point x="187" y="38"/>
      <point x="139" y="120"/>
      <point x="139" y="273" type="curve" smooth="yes"/>
      <point x="139" y="435"/>
      <point x="190" y="511"/>
    </contour>
  </outline>
</glyph>
<glyph name="Ocircumflex" format="1">
  <advance width="538"/>
  <unicode hex="00D4"/>
  <outline>
    <contour>
      <point x="168" y="592" type="line"/>
      <point x="271" y="664" type="line"/>
      <point x="373" y="592" type="line"/>
      <point x="410" y="620" type="line"/>
      <point x="305" y="727" type="line"/>
      <point x="237" y="727" type="line"/>
      <point x="132" y="620" type="line"/>
    </contour>
    <contour>
      <point x="266" y="-8" type="curve" smooth="yes"/>
      <point x="414" y="-7"/>
      <point x="518" y="109"/>
      <point x="518" y="283" type="curve" smooth="yes"/>
      <point x="518" y="449"/>
      <point x="442" y="557"/>
      <point x="276" y="557" type="curve" smooth="yes"/>
      <point x="127" y="557"/>
      <point x="23" y="447"/>
      <point x="23" y="272" type="curve" smooth="yes"/>
      <point x="23" y="104"/>
      <point x="100" y="-10"/>
    </contour>
    <contour>
      <point x="270" y="511" type="curve" smooth="yes"/>
      <point x="352" y="511"/>
      <point x="401" y="436"/>
      <point x="401" y="282" type="curve" smooth="yes"/>
      <point x="401" y="121"/>
      <point x="350" y="38"/>
      <point x="270" y="38" type="curve" smooth="yes"/>
      <point x="187" y="38"/>
      <point x="139" y="120"/>
      <point x="139" y="273" type="curve" smooth="yes"/>
      <point x="139" y="435"/>
      <point x="190" y="511"/>
    </contour>
  </outline>
</glyph>
<glyph name="Otilde" format="1">
  <advance width="538"/>
  <unicode hex="00D5"/>
  <outline>
    <contour>
      <point x="333" y="603" type="curve" smooth="yes"/>
      <point x="386" y="603"/>
      <point x="417" y="642"/>
      <point x="434" y="680" type="curve"/>
      <point x="398" y="708" type="line"/>
      <point x="388" y="694"/>
      <point x="377" y="668"/>
      <point x="343" y="668" type="curve" smooth="yes"/>
      <point x="301" y="668"/>
      <point x="280" y="726"/>
      <point x="218" y="726" type="curve" smooth="yes"/>
      <point x="159" y="726"/>
      <point x="122" y="680"/>
      <point x="110" y="649" type="curve"/>
      <point x="145" y="621" type="line"/>
      <point x="155" y="633"/>
      <point x="171" y="662"/>
      <point x="202" y="662" type="curve" smooth="yes"/>
      <point x="248" y="662"/>
      <point x="272" y="603"/>
    </contour>
    <contour>
      <point x="266" y="-8" type="curve" smooth="yes"/>
      <point x="414" y="-7"/>
      <point x="518" y="109"/>
      <point x="518" y="283" type="curve" smooth="yes"/>
      <point x="518" y="449"/>
      <point x="442" y="557"/>
      <point x="276" y="557" type="curve" smooth="yes"/>
      <point x="127" y="557"/>
      <point x="23" y="447"/>
      <point x="23" y="272" type="curve" smooth="yes"/>
      <point x="23" y="104"/>
      <point x="100" y="-10"/>
    </contour>
    <contour>
      <point x="270" y="511" type="curve" smooth="yes"/>
      <point x="352" y="511"/>
      <point x="401" y="436"/>
      <point x="401" y="282" type="curve" smooth="yes"/>
      <point x="401" y="121"/>
      <point x="350" y="38"/>
      <point x="270" y="38" type="curve" smooth="yes"/>
      <point x="187" y="38"/>
      <point x="139" y="120"/>
      <point x="139" y="273" type="curve" smooth="yes"/>
      <point x="139" y="435"/>
      <point x="190" y="511"/>
    </contour>
  </outline>
</glyph>
<glyph name="Odieresis" format="1">
  <advance width="538"/>
  <unicode hex="00D6"/>
  <outline>
    <contour>
      <point x="172" y="604" type="curve"/>
      <point x="215" y="604"/>
      <point x="234" y="631"/>
      <point x="234" y="665" type="curve" smooth="yes"/>
      <point x="234" y="693"/>
      <point x="217" y="719"/>
      <point x="182" y="719" type="curve"/>
      <point x="141" y="719"/>
      <point x="122" y="690"/>
      <point x="122" y="656" type="curve" smooth="yes"/>
      <point x="122" y="628"/>
      <point x="142" y="604"/>
    </contour>
    <contour>
      <point x="358" y="604" type="curve"/>
      <point x="402" y="604"/>
      <point x="421" y="631"/>
      <point x="421" y="665" type="curve" smooth="yes"/>
      <point x="421" y="693"/>
      <point x="404" y="719"/>
      <point x="368" y="719" type="curve"/>
      <point x="328" y="719"/>
      <point x="309" y="690"/>
      <point x="309" y="656" type="curve" smooth="yes"/>
      <point x="309" y="630"/>
      <point x="329" y="604"/>
    </contour>
    <contour>
      <point x="266" y="-8" type="curve" smooth="yes"/>
      <point x="414" y="-7"/>
      <point x="518" y="109"/>
      <point x="518" y="283" type="curve" smooth="yes"/>
      <point x="518" y="449"/>
      <point x="442" y="557"/>
      <point x="276" y="557" type="curve" smooth="yes"/>
      <point x="127" y="557"/>
      <point x="23" y="447"/>
      <point x="23" y="272" type="curve" smooth="yes"/>
      <point x="23" y="104"/>
      <point x="100" y="-10"/>
    </contour>
    <contour>
      <point x="270" y="511" type="curve" smooth="yes"/>
      <point x="352" y="511"/>
      <point x="401" y="436"/>
      <point x="401" y="282" type="curve" smooth="yes"/>
      <point x="401" y="121"/>
      <point x="350" y="38"/>
      <point x="270" y="38" type="curve" smooth="yes"/>
      <point x="187" y="38"/>
      <point x="139" y="120"/>
      <point x="139" y="273" type="curve" smooth="yes"/>
      <point x="139" y="435"/>
      <point x="190" y="511"/>
    </contour>
  </outline>
</glyph>
<glyph name="multiply" format="1">
  <advance width="454"/>
  <unicode hex="00D7"/>
  <outline>
    <contour>
      <point x="111" y="49" type="line"/>
      <point x="227" y="175" type="line"/>
      <point x="343" y="49" type="line"/>
      <point x="398" y="105" type="line"/>
      <point x="276" y="223" type="line"/>
      <point x="398" y="340" type="line"/>
      <point x="343" y="398" type="line"/>
      <point x="227" y="271" type="line"/>
      <point x="110" y="398" type="line"/>
      <point x="55" y="341" type="line"/>
      <point x="179" y="223" type="line"/>
      <point x="56" y="105" type="line"/>
    </contour>
  </outline>
</glyph>
<glyph name="Oslash" format="1">
  <advance width="538"/>
  <unicode hex="00D8"/>
  <outline>
    <contour>
      <point x="159" y="-83" type="line"/>
      <point x="193" y="0" type="line"/>
      <point x="215" y="-5"/>
      <point x="238" y="-8"/>
      <point x="265" y="-8" type="curve"/>
      <point x="414" y="-7"/>
      <point x="517" y="109"/>
      <point x="517" y="283" type="curve" smooth="yes"/>
      <point x="517" y="403"/>
      <point x="476" y="493"/>
      <point x="391" y="533" type="curve"/>
      <point x="423" y="612" type="line"/>
      <point x="377" y="626" type="line"/>
      <point x="347" y="548" type="line"/>
      <point x="325" y="554"/>
      <point x="301" y="557"/>
      <point x="275" y="557" type="curve" smooth="yes"/>
      <point x="126" y="557"/>
      <point x="22" y="447"/>
      <point x="22" y="272" type="curve" smooth="yes"/>
      <point x="22" y="152"/>
      <point x="62" y="59"/>
      <point x="146" y="16" type="curve"/>
      <point x="111" y="-69" type="line"/>
    </contour>
    <contour>
      <point x="269" y="511" type="curve" smooth="yes"/>
      <point x="292" y="511"/>
      <point x="311" y="506"/>
      <point x="328" y="494" type="curve"/>
      <point x="183" y="84" type="line"/>
      <point x="154" y="122"/>
      <point x="138" y="187"/>
      <point x="138" y="273" type="curve" smooth="yes"/>
      <point x="138" y="435"/>
      <point x="189" y="511"/>
    </contour>
    <contour>
      <point x="400" y="282" type="curve" smooth="yes"/>
      <point x="400" y="121"/>
      <point x="349" y="38"/>
      <point x="269" y="38" type="curve" smooth="yes"/>
      <point x="247" y="38"/>
      <point x="228" y="43"/>
      <point x="212" y="55" type="curve"/>
      <point x="356" y="465" type="line"/>
      <point x="385" y="427"/>
      <point x="400" y="366"/>
    </contour>
  </outline>
</glyph>
<glyph name="Uacute" format="1">
  <advance width="549"/>
  <unicode hex="00DA"/>
  <outline>
    <contour>
      <point x="271" y="587" type="line"/>
      <point x="302" y="596"/>
      <point x="381" y="636"/>
      <point x="416" y="679" type="curve"/>
      <point x="351" y="727" type="line"/>
      <point x="350" y="727" type="line"/>
      <point x="234" y="616" type="line"/>
    </contour>
    <contour>
      <point x="283" y="-6" type="curve" smooth="yes"/>
      <point x="401" y="-6"/>
      <point x="489" y="60"/>
      <point x="489" y="221" type="curve" smooth="yes"/>
      <point x="489" y="495" type="line"/>
      <point x="540" y="505" type="line"/>
      <point x="540" y="550" type="line"/>
      <point x="357" y="550" type="line"/>
      <point x="357" y="505" type="line"/>
      <point x="419" y="495" type="line"/>
      <point x="419" y="216" type="line" smooth="yes"/>
      <point x="419" y="107"/>
      <point x="381" y="42"/>
      <point x="297" y="42" type="curve" smooth="yes"/>
      <point x="217" y="42"/>
      <point x="172" y="93"/>
      <point x="172" y="220" type="curve" smooth="yes"/>
      <point x="172" y="495" type="line"/>
      <point x="234" y="505" type="line"/>
      <point x="234" y="550" type="line"/>
      <point x="13" y="550" type="line"/>
      <point x="13" y="505" type="line"/>
      <point x="63" y="495" type="line"/>
      <point x="63" y="229" type="line" smooth="yes"/>
      <point x="63" y="64"/>
      <point x="133" y="-6"/>
    </contour>
  </outline>
</glyph>
<glyph name="Ucircumflex" format="1">
  <advance width="549"/>
  <unicode hex="00DB"/>
  <outline>
    <contour>
      <point x="186" y="592" type="line"/>
      <point x="289" y="664" type="line"/>
      <point x="392" y="592" type="line"/>
      <point x="429" y="620" type="line"/>
      <point x="324" y="727" type="line"/>
      <point x="255" y="727" type="line"/>
      <point x="151" y="620" type="line"/>
    </contour>
    <contour>
      <point x="283" y="-6" type="curve" smooth="yes"/>
      <point x="401" y="-6"/>
      <point x="489" y="60"/>
      <point x="489" y="221" type="curve" smooth="yes"/>
      <point x="489" y="495" type="line"/>
      <point x="540" y="505" type="line"/>
      <point x="540" y="550" type="line"/>
      <point x="357" y="550" type="line"/>
      <point x="357" y="505" type="line"/>
      <point x="419" y="495" type="line"/>
      <point x="419" y="216" type="line" smooth="yes"/>
      <point x="419" y="107"/>
      <point x="381" y="42"/>
      <point x="297" y="42" type="curve" smooth="yes"/>
      <point x="217" y="42"/>
      <point x="172" y="93"/>
      <point x="172" y="220" type="curve" smooth="yes"/>
      <point x="172" y="495" type="line"/>
      <point x="234" y="505" type="line"/>
      <point x="234" y="550" type="line"/>
      <point x="13" y="550" type="line"/>
      <point x="13" y="505" type="line"/>
      <point x="63" y="495" type="line"/>
      <point x="63" y="229" type="line" smooth="yes"/>
      <point x="63" y="64"/>
      <point x="133" y="-6"/>
    </contour>
  </outline>
</glyph>
<glyph name="Udieresis" format="1">
  <advance width="549"/>
  <unicode hex="00DC"/>
  <outline>
    <contour>
      <point x="189" y="604" type="curve"/>
      <point x="232" y="604"/>
      <point x="252" y="631"/>
      <point x="252" y="665" type="curve" smooth="yes"/>
      <point x="252" y="693"/>
      <point x="235" y="719"/>
      <point x="198" y="719" type="curve"/>
      <point x="159" y="719"/>
      <point x="140" y="690"/>
      <point x="140" y="656" type="curve" smooth="yes"/>
      <point x="140" y="628"/>
      <point x="159" y="604"/>
    </contour>
    <contour>
      <point x="376" y="604" type="curve"/>
      <point x="419" y="604"/>
      <point x="439" y="631"/>
      <point x="439" y="665" type="curve" smooth="yes"/>
      <point x="439" y="693"/>
      <point x="421" y="719"/>
      <point x="385" y="719" type="curve"/>
      <point x="346" y="719"/>
      <point x="327" y="690"/>
      <point x="327" y="656" type="curve" smooth="yes"/>
      <point x="327" y="630"/>
      <point x="346" y="604"/>
    </contour>
    <contour>
      <point x="283" y="-6" type="curve" smooth="yes"/>
      <point x="401" y="-6"/>
      <point x="489" y="60"/>
      <point x="489" y="221" type="curve" smooth="yes"/>
      <point x="489" y="495" type="line"/>
      <point x="540" y="505" type="line"/>
      <point x="540" y="550" type="line"/>
      <point x="357" y="550" type="line"/>
      <point x="357" y="505" type="line"/>
      <point x="419" y="495" type="line"/>
      <point x="419" y="216" type="line" smooth="yes"/>
      <point x="419" y="107"/>
      <point x="381" y="42"/>
      <point x="297" y="42" type="curve" smooth="yes"/>
      <point x="217" y="42"/>
      <point x="172" y="93"/>
      <point x="172" y="220" type="curve" smooth="yes"/>
      <point x="172" y="495" type="line"/>
      <point x="234" y="505" type="line"/>
      <point x="234" y="550" type="line"/>
      <point x="13" y="550" type="line"/>
      <point x="13" y="505" type="line"/>
      <point x="63" y="495" type="line"/>
      <point x="63" y="229" type="line" smooth="yes"/>
      <point x="63" y="64"/>
      <point x="133" y="-6"/>
    </contour>
  </outline>
</glyph>
<glyph name="Yacute" format="1">
  <advance width="485"/>
  <unicode hex="00DD"/>
  <outline>
    <contour>
      <point x="231" y="587" type="line"/>
      <point x="262" y="596"/>
      <point x="341" y="636"/>
      <point x="375" y="679" type="curve"/>
      <point x="310" y="727" type="line"/>
      <point x="194" y="616" type="line"/>
    </contour>
    <contour>
      <point x="111" y="0" type="line"/>
      <point x="379" y="0" type="line"/>
      <point x="379" y="44" type="line"/>
      <point x="299" y="53" type="line"/>
      <point x="299" y="218" type="line"/>
      <point x="447" y="496" type="line"/>
      <point x="493" y="505" type="line"/>
      <point x="493" y="550" type="line"/>
      <point x="314" y="550" type="line"/>
      <point x="314" y="505" type="line"/>
      <point x="371" y="496" type="line"/>
      <point x="284" y="310" type="line"/>
      <point x="263" y="261" type="line"/>
      <point x="243" y="311" type="line"/>
      <point x="150" y="495" type="line"/>
      <point x="202" y="505" type="line"/>
      <point x="202" y="550" type="line"/>
      <point x="-14" y="550" type="line"/>
      <point x="-14" y="505" type="line"/>
      <point x="30" y="495" type="line"/>
      <point x="188" y="218" type="line"/>
      <point x="188" y="53" type="line"/>
      <point x="111" y="44" type="line"/>
    </contour>
  </outline>
</glyph>
<glyph name="Thorn" format="1">
  <advance width="487"/>
  <unicode hex="00DE"/>
  <outline>
    <contour>
      <point x="30" y="0" type="line"/>
      <point x="271" y="0" type="line"/>
      <point x="271" y="43" type="line"/>
      <point x="194" y="52" type="line"/>
      <point x="194" y="123" type="line"/>
      <point x="213" y="121"/>
      <point x="243" y="119"/>
      <point x="281" y="119" type="curve" smooth="yes"/>
      <point x="398" y="119"/>
      <point x="469" y="171"/>
      <point x="469" y="285" type="curve" smooth="yes"/>
      <point x="469" y="383"/>
      <point x="411" y="431"/>
      <point x="303" y="431" type="curve" smooth="yes"/>
      <point x="261" y="431"/>
      <point x="230" y="426"/>
      <point x="194" y="423" type="curve"/>
      <point x="194" y="496" type="line"/>
      <point x="256" y="506" type="line"/>
      <point x="256" y="550" type="line"/>
      <point x="30" y="550" type="line"/>
      <point x="30" y="506" type="line"/>
      <point x="88" y="496" type="line"/>
      <point x="88" y="52" type="line"/>
      <point x="30" y="43" type="line"/>
    </contour>
    <contour>
      <point x="265" y="164" type="curve" smooth="yes"/>
      <point x="244" y="164"/>
      <point x="220" y="163"/>
      <point x="194" y="167" type="curve"/>
      <point x="194" y="377" type="line"/>
      <point x="209" y="380"/>
      <point x="232" y="383"/>
      <point x="256" y="383" type="curve"/>
      <point x="330" y="384"/>
      <point x="358" y="339"/>
      <point x="358" y="280" type="curve" smooth="yes"/>
      <point x="358" y="199"/>
      <point x="317" y="164"/>
    </contour>
  </outline>
</glyph>
<glyph name="germandbls" format="1">
  <advance width="481"/>
  <unicode hex="00DF"/>
  <outline>
    <contour>
      <point x="17" y="0" type="line"/>
      <point x="165" y="0" type="line"/>
      <point x="165" y="362" type="line"/>
      <point x="165" y="477"/>
      <point x="198" y="532"/>
      <point x="264" y="532" type="curve" smooth="yes"/>
      <point x="302" y="532"/>
      <point x="323" y="511"/>
      <point x="323" y="466" type="curve" smooth="yes"/>
      <point x="323" y="385"/>
      <point x="251" y="364"/>
      <point x="251" y="308" type="curve" smooth="yes"/>
      <point x="251" y="223"/>
      <point x="358" y="198"/>
      <point x="358" y="109" type="curve" smooth="yes"/>
      <point x="358" y="76"/>
      <point x="339" y="48"/>
      <point x="291" y="48" type="curve" smooth="yes"/>
      <point x="268" y="48"/>
      <point x="245" y="53"/>
      <point x="230" y="59" type="curve"/>
      <point x="230" y="0" type="line"/>
      <point x="244" y="-4"/>
      <point x="275" y="-8"/>
      <point x="292" y="-8" type="curve" smooth="yes"/>
      <point x="400" y="-8"/>
      <point x="467" y="42"/>
      <point x="467" y="125" type="curve" smooth="yes"/>
      <point x="467" y="243"/>
      <point x="337" y="275"/>
      <point x="337" y="336" type="curve" smooth="yes"/>
      <point x="337" y="388"/>
      <point x="420" y="400"/>
      <point x="420" y="483" type="curve" smooth="yes"/>
      <point x="420" y="548"/>
      <point x="368" y="582"/>
      <point x="283" y="582" type="curve" smooth="yes"/>
      <point x="155" y="582"/>
      <point x="63" y="490"/>
      <point x="63" y="348" type="curve" smooth="yes"/>
      <point x="63" y="51" type="line"/>
      <point x="17" y="44" type="line"/>
    </contour>
  </outline>
</glyph>
<glyph name="ae" format="1">
  <advance width="643"/>
  <unicode hex="00E6"/>
  <outline>
    <contour>
      <point x="457" y="-8" type="curve" smooth="yes"/>
      <point x="522" y="-8"/>
      <point x="586" y="23"/>
      <point x="611" y="49" type="curve"/>
      <point x="594" y="89" type="line"/>
      <point x="572" y="73"/>
      <point x="526" y="56"/>
      <point x="485" y="56" type="curve" smooth="yes"/>
      <point x="417" y="56"/>
      <point x="374" y="106"/>
      <point x="370" y="200" type="curve"/>
      <point x="613" y="200" type="line"/>
      <point x="617" y="219"/>
      <point x="618" y="241"/>
      <point x="618" y="274" type="curve"/>
      <point x="615" y="369"/>
      <point x="562" y="422"/>
      <point x="463" y="422" type="curve" smooth="yes"/>
      <point x="411" y="422"/>
      <point x="366" y="405"/>
      <point x="333" y="375" type="curve"/>
      <point x="314" y="407"/>
      <point x="278" y="420"/>
      <point x="215" y="420" type="curve" smooth="yes"/>
      <point x="135" y="420"/>
      <point x="55" y="380"/>
      <point x="35" y="363" type="curve"/>
      <point x="57" y="318" type="line"/>
      <point x="89" y="332"/>
      <point x="134" y="351"/>
      <point x="188" y="351" type="curve" smooth="yes"/>
      <point x="252" y="351"/>
      <point x="266" y="327"/>
      <point x="266" y="270" type="curve" smooth="yes"/>
      <point x="266" y="251" type="line"/>
      <point x="131" y="250"/>
      <point x="25" y="208"/>
      <point x="25" y="111" type="curve" smooth="yes"/>
      <point x="25" y="30"/>
      <point x="83" y="-8"/>
      <point x="150" y="-8" type="curve" smooth="yes"/>
      <point x="220" y="-8"/>
      <point x="275" y="31"/>
      <point x="300" y="68" type="curve"/>
      <point x="330" y="20"/>
      <point x="382" y="-8"/>
    </contour>
    <contour>
      <point x="196" y="53" type="curve" smooth="yes"/>
      <point x="161" y="53"/>
      <point x="135" y="73"/>
      <point x="135" y="125" type="curve" smooth="yes"/>
      <point x="135" y="168"/>
      <point x="171" y="208"/>
      <point x="266" y="209" type="curve"/>
      <point x="266" y="206" type="line" smooth="yes"/>
      <point x="266" y="168"/>
      <point x="271" y="133"/>
      <point x="283" y="103" type="curve"/>
      <point x="268" y="79"/>
      <point x="233" y="53"/>
    </contour>
    <contour>
      <point x="449" y="375" type="curve" smooth="yes"/>
      <point x="498" y="375"/>
      <point x="516" y="332"/>
      <point x="516" y="277" type="curve" smooth="yes"/>
      <point x="516" y="268"/>
      <point x="515" y="254"/>
      <point x="515" y="246" type="curve"/>
      <point x="369" y="246" type="line"/>
      <point x="372" y="349"/>
      <point x="405" y="375"/>
    </contour>
  </outline>
</glyph>
<glyph name="eth" format="1">
  <advance width="439"/>
  <unicode hex="00F0"/>
  <outline>
    <contour>
      <point x="133" y="483" type="line"/>
      <point x="180" y="544" type="line"/>
      <point x="230" y="510"/>
      <point x="267" y="461"/>
      <point x="285" y="410" type="curve"/>
      <point x="270" y="416"/>
      <point x="246" y="422"/>
      <point x="217" y="422" type="curve" smooth="yes"/>
      <point x="121" y="422"/>
      <point x="27" y="349"/>
      <point x="27" y="196" type="curve" smooth="yes"/>
      <point x="27" y="76"/>
      <point x="91" y="-8"/>
      <point x="219" y="-8" type="curve" smooth="yes"/>
      <point x="366" y="-8"/>
      <point x="414" y="125"/>
      <point x="414" y="243" type="curve" smooth="yes"/>
      <point x="414" y="399"/>
      <point x="328" y="518"/>
      <point x="219" y="593" type="curve"/>
      <point x="239" y="616"/>
      <point x="262" y="645"/>
      <point x="262" y="645" type="curve"/>
      <point x="222" y="676" type="line"/>
      <point x="222" y="676"/>
      <point x="196" y="645"/>
      <point x="176" y="618" type="curve"/>
      <point x="140" y="636"/>
      <point x="113" y="645"/>
      <point x="81" y="655" type="curve"/>
      <point x="62" y="610" type="line"/>
      <point x="80" y="605"/>
      <point x="112" y="590"/>
      <point x="140" y="572" type="curve"/>
      <point x="89" y="512" type="line"/>
    </contour>
    <contour>
      <point x="223" y="40" type="curve" smooth="yes"/>
      <point x="160" y="40"/>
      <point x="138" y="121"/>
      <point x="138" y="206" type="curve" smooth="yes"/>
      <point x="138" y="321"/>
      <point x="170" y="378"/>
      <point x="225" y="378" type="curve" smooth="yes"/>
      <point x="263" y="378"/>
      <point x="285" y="359"/>
      <point x="294" y="349" type="curve"/>
      <point x="299" y="331"/>
      <point x="307" y="286"/>
      <point x="307" y="231" type="curve" smooth="yes"/>
      <point x="307" y="99"/>
      <point x="280" y="40"/>
    </contour>
  </outline>
</glyph>
<glyph name="divide" format="1">
  <advance width="492"/>
  <unicode hex="00F7"/>
  <outline>
    <contour>
      <point x="187" y="68" type="curve" smooth="yes"/>
      <point x="187" y="36"/>
      <point x="213" y="15"/>
      <point x="241" y="15" type="curve" smooth="yes"/>
      <point x="277" y="15"/>
      <point x="305" y="37"/>
      <point x="305" y="74" type="curve" smooth="yes"/>
      <point x="305" y="102"/>
      <point x="287" y="126"/>
      <point x="250" y="126" type="curve" smooth="yes"/>
      <point x="217" y="126"/>
      <point x="187" y="102"/>
    </contour>
    <contour>
      <point x="76" y="189" type="line"/>
      <point x="415" y="189" type="line"/>
      <point x="415" y="255" type="line"/>
      <point x="76" y="255" type="line"/>
    </contour>
    <contour>
      <point x="246" y="323" type="curve" smooth="yes"/>
      <point x="282" y="323"/>
      <point x="310" y="344"/>
      <point x="310" y="380" type="curve" smooth="yes"/>
      <point x="310" y="408"/>
      <point x="291" y="433"/>
      <point x="255" y="433" type="curve" smooth="yes"/>
      <point x="222" y="433"/>
      <point x="192" y="408"/>
      <point x="192" y="374" type="curve" smooth="yes"/>
      <point x="192" y="342"/>
      <point x="218" y="323"/>
    </contour>
  </outline>
</glyph>
<glyph name="oslash" format="1">
  <advance width="448"/>
  <unicode hex="00F8"/>
  <outline>
    <contour>
      <point x="26" y="205" type="curve" smooth="yes"/>
      <point x="26" y="111"/>
      <point x="62" y="39"/>
      <point x="133" y="8" type="curve"/>
      <point x="103" y="-75" type="line"/>
      <point x="147" y="-87" type="line"/>
      <point x="177" y="-5" type="line"/>
      <point x="190" y="-6"/>
      <point x="204" y="-8"/>
      <point x="218" y="-8" type="curve" smooth="yes"/>
      <point x="324" y="-8"/>
      <point x="422" y="63"/>
      <point x="422" y="209" type="curve" smooth="yes"/>
      <point x="422" y="302"/>
      <point x="386" y="372"/>
      <point x="318" y="404" type="curve"/>
      <point x="342" y="482" type="line"/>
      <point x="300" y="494" type="line"/>
      <point x="274" y="418" type="line"/>
      <point x="261" y="420"/>
      <point x="245" y="422"/>
      <point x="228" y="422" type="curve" smooth="yes"/>
      <point x="123" y="422"/>
      <point x="26" y="348"/>
    </contour>
    <contour>
      <point x="137" y="213" type="curve" smooth="yes"/>
      <point x="137" y="323"/>
      <point x="166" y="374"/>
      <point x="223" y="374" type="curve" smooth="yes"/>
      <point x="238" y="374"/>
      <point x="250" y="371"/>
      <point x="261" y="363" type="curve"/>
      <point x="165" y="76" type="line"/>
      <point x="145" y="104"/>
      <point x="137" y="153"/>
    </contour>
    <contour>
      <point x="224" y="40" type="curve" smooth="yes"/>
      <point x="210" y="40"/>
      <point x="198" y="43"/>
      <point x="188" y="50" type="curve"/>
      <point x="284" y="335" type="line"/>
      <point x="303" y="305"/>
      <point x="310" y="258"/>
      <point x="310" y="201" type="curve" smooth="yes"/>
      <point x="310" y="92"/>
      <point x="281" y="40"/>
    </contour>
  </outline>
</glyph>
<glyph name="thorn" format="1">
  <advance width="458"/>
  <unicode hex="00FE"/>
  <outline>
    <contour>
      <point x="58" y="544" type="line"/>
      <point x="58" y="-129" type="line"/>
      <point x="8" y="-138" type="line"/>
      <point x="8" y="-179" type="line"/>
      <point x="230" y="-179" type="line"/>
      <point x="230" y="-138" type="line"/>
      <point x="159" y="-129" type="line"/>
      <point x="159" y="-53" type="line"/>
      <point x="156" y="-5" type="line"/>
      <point x="173" y="-6"/>
      <point x="192" y="-8"/>
      <point x="213" y="-8" type="curve" smooth="yes"/>
      <point x="349" y="-8"/>
      <point x="431" y="92"/>
      <point x="431" y="220" type="curve" smooth="yes"/>
      <point x="431" y="364"/>
      <point x="356" y="422"/>
      <point x="270" y="422" type="curve" smooth="yes"/>
      <point x="221" y="422"/>
      <point x="182" y="399"/>
      <point x="159" y="375" type="curve"/>
      <point x="159" y="594" type="line"/>
      <point x="137" y="607" type="line"/>
      <point x="136" y="607" type="line"/>
      <point x="2" y="591" type="line"/>
      <point x="2" y="553" type="line"/>
    </contour>
    <contour>
      <point x="231" y="359" type="curve" smooth="yes"/>
      <point x="284" y="359"/>
      <point x="324" y="314"/>
      <point x="323" y="207" type="curve" smooth="yes"/>
      <point x="321" y="91"/>
      <point x="278" y="36"/>
      <point x="217" y="36" type="curve" smooth="yes"/>
      <point x="189" y="36"/>
      <point x="164" y="43"/>
      <point x="159" y="56" type="curve"/>
      <point x="159" y="326" type="line"/>
      <point x="172" y="340"/>
      <point x="198" y="359"/>
    </contour>
  </outline>
</glyph>
